<?xml version="1.0" encoding="utf-8"?>
<!-- Generator: Adobe Illustrator 17.0.2, SVG Export Plug-In . SVG Version: 6.00 Build 0)  -->
<!DOCTYPE svg PUBLIC "-//W3C//DTD SVG 1.1//EN" "http://www.w3.org/Graphics/SVG/1.1/DTD/svg11.dtd">
<svg version="1.1" id="Layer_1" xmlns="http://www.w3.org/2000/svg" xmlns:xlink="http://www.w3.org/1999/xlink" x="0px" y="0px"
	 width="60px" height="60px" viewBox="0 0 60 60" enable-background="new 0 0 60 60" xml:space="preserve">
<g>
	<circle fill="#DDDDDD" cx="30" cy="30" r="30"/>
	<g opacity="0.7">
		<path fill="#FFFFFF" d="M50.061,11.201c-5.017-5.352-12.146-8.7-20.061-8.7c-7.914,0-15.042,3.348-20.059,8.698v37.604
			c5.017,5.351,12.145,8.698,20.059,8.698c7.915,0,15.044-3.348,20.061-8.7V11.201z M39.027,34.844
			c-0.921,0.817-2.107,1.012-0.422,4.374c0,0-2.218-0.357-6.916-1.13c-0.566-0.092-1.334-0.178-1.293,0.743
			c0.084,2.157,0.168,4.388,0.364,7.838h-1.519c0.198-3.45,0.282-5.681,0.364-7.838c0.037-0.921-0.723-0.835-1.293-0.743
			c-4.697,0.773-6.918,1.13-6.918,1.13c1.687-3.362,0.502-3.557-0.42-4.374c-5.289-4.671-6.414-5.681-6.414-5.681
			c2.448-0.878,2.107-0.551,0.534-6.749c5.104,1.708,4.68,1.203,5.765-1.458c0,0,0.394,0.476,3.585,4.282
			c0.45,0.537,1.216,0.178,1.056-0.653c-1.661-8.687-1.747-9.044-1.747-9.044c3.236,2.069,3.114,2.183,3.632,1.116
			c1.771-3.657,2.615-5.458,2.615-5.458s0.843,1.8,2.614,5.458c0.517,1.067,0.394,0.952,3.628-1.116c0,0-0.084,0.357-1.741,9.044
			c-0.163,0.831,0.6,1.19,1.052,0.653c3.194-3.806,3.589-4.282,3.589-4.282c1.082,2.661,0.66,3.167,5.766,1.458
			c-1.573,6.198-1.915,5.872,0.532,6.749C45.441,29.163,44.318,30.173,39.027,34.844z"/>
		<g>
			<path fill="#E01616" d="M57.5,30.001c0-7.277-2.827-13.887-7.439-18.802v37.604C54.673,43.886,57.5,37.276,57.5,30.001z"/>
			<path fill="#E01616" d="M2.5,30.001c0,7.275,2.83,13.887,7.441,18.802V11.199C5.33,16.112,2.5,22.724,2.5,30.001z"/>
			<path fill="#E01616" d="M44.908,22.413c-5.106,1.708-4.684,1.203-5.766-1.458c0,0-0.394,0.476-3.588,4.282
				c-0.452,0.537-1.214,0.178-1.052-0.653c1.657-8.687,1.741-9.044,1.741-9.044c-3.234,2.069-3.111,2.183-3.628,1.116
				c-1.771-3.657-2.614-5.458-2.614-5.458s-0.844,1.8-2.616,5.458c-0.518,1.067-0.396,0.952-3.632-1.116
				c0,0,0.086,0.357,1.747,9.044c0.161,0.831-0.605,1.19-1.056,0.653c-3.191-3.806-3.585-4.282-3.585-4.282
				c-1.085,2.661-0.661,3.167-5.765,1.458c1.573,6.198,1.913,5.872-0.535,6.749c0,0,1.125,1.01,6.414,5.681
				c0.923,0.817,2.107,1.012,0.42,4.374c0,0,2.221-0.357,6.918-1.13c0.57-0.092,1.33-0.178,1.293,0.743
				c-0.082,2.157-0.166,4.388-0.364,7.838h1.519c-0.196-3.45-0.28-5.681-0.364-7.838c-0.041-0.921,0.727-0.835,1.293-0.743
				c4.698,0.773,6.916,1.13,6.916,1.13c-1.685-3.362-0.499-3.557,0.422-4.374c5.291-4.671,6.413-5.681,6.413-5.681
				C42.993,28.285,43.335,28.612,44.908,22.413z"/>
		</g>
	</g>
</g>
</svg>
