<?xml version="1.0" encoding="utf-8"?>
<!-- Generator: Adobe Illustrator 17.0.2, SVG Export Plug-In . SVG Version: 6.00 Build 0)  -->
<!DOCTYPE svg PUBLIC "-//W3C//DTD SVG 1.1//EN" "http://www.w3.org/Graphics/SVG/1.1/DTD/svg11.dtd">
<svg version="1.1" id="Layer_1" xmlns="http://www.w3.org/2000/svg" xmlns:xlink="http://www.w3.org/1999/xlink" x="0px" y="0px"
	 width="60px" height="60px" viewBox="0 0 60 60" enable-background="new 0 0 60 60" xml:space="preserve">
<g>
	<circle fill="#DDDDDD" cx="30" cy="30" r="30"/>
	<g opacity="0.7">
		<path fill="#FFFFFF" d="M29.998,2.5c-11.04,0-20.555,6.569-24.93,15.933c-0.038,0.087-0.071,0.331-0.113,0.331h50.083
			c-0.034,0-0.072-0.244-0.11-0.331C50.553,9.069,41.034,2.5,29.998,2.5z"/>
		<path fill="#E01616" d="M5.068,41.961c0.587,1.263,1.277,2.25,2.045,3.403C12.041,52.741,20.446,57.5,29.998,57.5
			c9.556,0,17.957-4.921,22.886-12.297c0.764-1.154,1.457-1.952,2.044-3.215c0.038-0.079,0.076,0.156,0.11,0.156H4.955
			C4.997,42.144,5.023,41.882,5.068,41.961z"/>
		<path fill="#00539F" d="M2.5,30.454c0,4.043,0.881,7.624,2.455,11.69h50.083c1.577-4.066,2.462-7.647,2.462-11.69
			c0-4.047-0.885-7.624-2.462-11.69H4.955C3.381,22.83,2.5,26.407,2.5,30.454z"/>
	</g>
</g>
</svg>
