<?xml version="1.0" encoding="utf-8"?>
<!-- Generator: Adobe Illustrator 17.0.2, SVG Export Plug-In . SVG Version: 6.00 Build 0)  -->
<!DOCTYPE svg PUBLIC "-//W3C//DTD SVG 1.1//EN" "http://www.w3.org/Graphics/SVG/1.1/DTD/svg11.dtd">
<svg version="1.1" id="Layer_1" xmlns="http://www.w3.org/2000/svg" xmlns:xlink="http://www.w3.org/1999/xlink" x="0px" y="0px"
	 width="60px" height="60px" viewBox="0 0 60 60" enable-background="new 0 0 60 60" xml:space="preserve">
<g>
	<circle fill="#DDDDDD" cx="30" cy="30" r="30"/>
	<g opacity="0.7">
		<path d="M54.931,18.289C50.554,8.922,41.042,2.5,30.003,2.5C18.962,2.5,9.448,8.887,5.071,18.254
			c-0.358,0.775-0.68,1.277-0.969,2.275h51.805C55.613,19.531,55.292,19.064,54.931,18.289z"/>
		<path fill="#FCB131" d="M52.886,45.214c0.766-1.152,1.455-2.176,2.045-3.441c0.374-0.801,0.706-1.29,1.005-2.288H4.067
			c0.299,0.998,0.63,1.487,1.003,2.288c0.59,1.264,1.28,2.376,2.048,3.529C12.045,52.678,20.449,57.5,30.003,57.5
			C39.555,57.5,47.96,52.59,52.886,45.214z"/>
		<path fill="#E01616" d="M57.5,30.054c0-3.24-0.568-6.532-1.594-9.525H4.101C3.074,23.522,2.5,26.814,2.5,30.054
			c0,3.192,0.559,6.439,1.567,9.432h51.869C56.943,36.493,57.5,33.246,57.5,30.054z"/>
	</g>
</g>
</svg>
