<?xml version="1.0" encoding="utf-8"?>
<!-- Generator: Adobe Illustrator 17.0.2, SVG Export Plug-In . SVG Version: 6.00 Build 0)  -->
<!DOCTYPE svg PUBLIC "-//W3C//DTD SVG 1.1//EN" "http://www.w3.org/Graphics/SVG/1.1/DTD/svg11.dtd">
<svg version="1.1" id="Layer_1" xmlns="http://www.w3.org/2000/svg" xmlns:xlink="http://www.w3.org/1999/xlink" x="0px" y="0px"
	 width="60px" height="60px" viewBox="0 0 60 60" enable-background="new 0 0 60 60" xml:space="preserve">
<g>
	<circle fill="#DDDDDD" cx="30" cy="30" r="30"/>
	<g opacity="0.7">
		<g>
			<path fill="#FFFFFF" d="M30.002,2.5c-5.976,0-11.499,1.918-16.006,5.156h32.009C41.494,4.418,35.973,2.5,30.002,2.5z"/>
			<path fill="#FFFFFF" d="M13.969,52.336C18.48,55.585,24.015,57.5,30.002,57.5c5.983,0,11.518-1.915,16.029-5.164H13.969z"/>
			<path fill="#FFFFFF" d="M54.932,41.609c1.646-3.526,2.568-7.461,2.568-11.61s-0.923-8.084-2.568-11.61
				c-0.342-0.734-0.73-1.442-1.133-2.139H6.198c-0.403,0.696-0.791,1.404-1.134,2.139C3.423,21.915,2.5,25.85,2.5,29.999
				s0.919,8.084,2.564,11.61c0.343,0.733,0.727,1.44,1.134,2.133h47.605C54.205,43.049,54.589,42.341,54.932,41.609z M33.654,36.509
				l-3.66,6.322l-3.66-6.322h-7.553c0,0,3.75-6.514,3.78-6.514c-0.03,0-3.78-6.514-3.78-6.514h7.553l3.66-6.32l3.66,6.32h7.549
				c0,0-3.747,6.514-3.773,6.514c0.026,0,3.773,6.514,3.773,6.514H33.654z"/>
			<polygon fill="#FFFFFF" points="25.148,25.526 22.328,25.526 23.74,27.96 			"/>
			<polygon fill="#FFFFFF" points="37.657,25.526 34.84,25.526 36.248,27.96 			"/>
			<polygon fill="#FFFFFF" points="29.994,21.241 28.699,23.482 31.293,23.482 			"/>
			<polygon fill="#FFFFFF" points="22.328,34.47 25.148,34.47 23.74,32.03 			"/>
			<polygon fill="#FFFFFF" points="34.84,34.47 37.657,34.47 36.248,32.03 			"/>
			<polygon fill="#FFFFFF" points="32.491,25.526 27.498,25.526 24.922,29.995 27.498,34.47 32.491,34.47 35.066,29.995 			"/>
			<polygon fill="#FFFFFF" points="29.994,38.751 31.293,36.509 28.699,36.509 			"/>
		</g>
		<g>
			<path fill="#003976" d="M41.204,23.482h-7.549l-3.66-6.32l-3.66,6.32h-7.553c0,0,3.75,6.514,3.78,6.514
				c-0.03,0-3.78,6.514-3.78,6.514h7.553l3.66,6.322l3.66-6.322h7.549c0,0-3.747-6.514-3.773-6.514
				C37.457,29.995,41.204,23.482,41.204,23.482z M37.657,25.526l-1.408,2.434l-1.408-2.434H37.657z M29.994,21.241l1.299,2.24
				h-2.594L29.994,21.241z M22.328,25.526h2.82L23.74,27.96L22.328,25.526z M22.328,34.47l1.412-2.44l1.408,2.44H22.328z
				 M29.994,38.751l-1.296-2.242h2.594L29.994,38.751z M32.491,34.47h-4.993l-2.576-4.475l2.576-4.469h4.993l2.576,4.469
				L32.491,34.47z M37.657,34.47H34.84l1.408-2.44L37.657,34.47z"/>
			<path fill="#003976" d="M46.004,7.656H13.995c-3.17,2.276-5.84,5.202-7.798,8.594h47.601
				C51.841,12.858,49.171,9.932,46.004,7.656z"/>
			<path fill="#003976" d="M52.884,45.231c0.32-0.484,0.621-0.985,0.919-1.489H6.198c0.294,0.505,0.591,1.006,0.919,1.489
				c1.837,2.76,4.164,5.172,6.853,7.105h32.061C48.719,50.403,51.046,47.991,52.884,45.231z"/>
		</g>
	</g>
</g>
</svg>
