<?xml version="1.0" encoding="utf-8"?>
<!-- Generator: Adobe Illustrator 17.0.2, SVG Export Plug-In . SVG Version: 6.00 Build 0)  -->
<!DOCTYPE svg PUBLIC "-//W3C//DTD SVG 1.1//EN" "http://www.w3.org/Graphics/SVG/1.1/DTD/svg11.dtd">
<svg version="1.1" id="Layer_1" xmlns="http://www.w3.org/2000/svg" xmlns:xlink="http://www.w3.org/1999/xlink" x="0px" y="0px"
	 width="60px" height="60px" viewBox="0 0 60 60" enable-background="new 0 0 60 60" xml:space="preserve">
<g>
	<circle fill="#DDDDDD" cx="30" cy="30" r="30"/>
	<g opacity="0.7">
		<circle fill="#FFFFFF" cx="30" cy="30" r="27.5"/>
		<g>
			<path fill="none" d="M31.551,2.557C31.037,2.53,30.521,2.5,30.002,2.5c-0.523,0-1.037,0.03-1.553,0.057H31.551z"/>
			<path fill="#FFFFFF" d="M32.869,32.624H2.634c0.139,1.457,0.394,2.884,0.751,4.266h53.234c0.358-1.393,0.614-2.828,0.749-4.292
				H32.869V32.624z"/>
			<path fill="#FFFFFF" d="M16.679,54.051h26.643c2.112-1.171,4.047-2.624,5.77-4.288H10.909
				C12.634,51.427,14.569,52.88,16.679,54.051z"/>
			<path fill="#FFFFFF" d="M32.869,28.306h24.576c-0.088-1.465-0.294-2.899-0.602-4.292H32.869V28.306z"/>
			<path fill="#FFFFFF" d="M5.072,41.608c0.589,1.265,1.28,2.47,2.046,3.622c0.053,0.083,0.115,0.158,0.169,0.237h45.427
				c0.054-0.079,0.116-0.154,0.167-0.237c0.77-1.152,1.457-2.357,2.05-3.622c0.064-0.14,0.123-0.286,0.185-0.429H4.883
				C4.945,41.321,5.004,41.468,5.072,41.608z"/>
			<path fill="#FFFFFF" d="M32.869,19.721H55.51c-0.181-0.448-0.375-0.892-0.578-1.329c-0.478-1.024-1.028-2.011-1.622-2.959H32.869
				V19.721z"/>
			<path fill="#FFFFFF" d="M32.869,11.141h17.116c-1.534-1.63-3.259-3.08-5.15-4.288H32.869V11.141z"/>
			<path fill="#D63647" d="M44.834,6.852c-3.518-2.267-7.592-3.731-11.965-4.187v4.187H44.834z"/>
			<path fill="#D63647" d="M32.869,15.433H53.31c-0.966-1.54-2.08-2.978-3.325-4.292H32.869V15.433z"/>
			<path fill="#D63647" d="M32.869,24.014h23.974c-0.33-1.476-0.778-2.91-1.333-4.292H32.869V24.014z"/>
			<path fill="#D63647" d="M32.869,32.598h24.499c0.083-0.859,0.132-1.725,0.132-2.602c0-0.564-0.019-1.129-0.055-1.69H32.869
				V32.598z"/>
			<path fill="#D63647" d="M4.883,41.178h50.233c0.612-1.374,1.117-2.809,1.502-4.288H3.385C3.769,38.37,4.272,39.804,4.883,41.178z
				"/>
			<path fill="#D63647" d="M10.909,49.763h38.183c1.346-1.303,2.564-2.741,3.622-4.296H7.287
				C8.347,47.022,9.565,48.46,10.909,49.763z"/>
			<path fill="#D63647" d="M30.002,57.5c4.836,0,9.375-1.254,13.321-3.449H16.679C20.623,56.246,25.164,57.5,30.002,57.5z"/>
			<path fill="#003976" d="M15.985,6.355l0.198,0.61l-0.548-0.399c-1.164,0.719-2.27,1.51-3.311,2.387l0.322,0.994L11.841,9.36
				c-1.053,0.93-2.024,1.935-2.924,3.016l0.188,0.588l-0.42-0.309c-1.423,1.751-2.651,3.667-3.614,5.738
				c-0.133,0.286-0.256,0.58-0.38,0.87l0.256,0.79h1.248l-1.011,0.719l0.386,1.193l-1.009-0.734l-0.808,0.588
				c-0.715,2.297-1.141,4.718-1.227,7.225h0.13l-0.13,0.09C2.517,29.424,2.5,29.71,2.5,29.996c0,0.889,0.053,1.766,0.134,2.628
				h30.235v-0.026v-4.292v-4.292v-4.292v-4.288v-4.292V6.852V2.666c-0.437-0.042-0.876-0.083-1.318-0.109h-3.102
				C23.912,2.809,19.671,4.164,15.985,6.355z M5.57,27.974l-1.009-0.738l-1.003,0.738l0.389-1.182l-1.018-0.738h1.254l0.378-1.179
				l0.386,1.186h1.248l-1.011,0.719L5.57,27.974z M9.106,30.953l-1.005-0.734l-1.005,0.734l0.392-1.182L6.472,29.04H7.72
				l0.381-1.182l0.384,1.186h1.248l-1.011,0.719L9.106,30.953z M8.722,23.765l0.384,1.194l-1.005-0.738l-1.005,0.738l0.392-1.182
				l-1.015-0.734H7.72l0.381-1.182l0.384,1.186h1.248L8.722,23.765z M8.722,17.767l0.384,1.19l-1.005-0.731l-1.005,0.731
				l0.392-1.179l-1.015-0.734H7.72l0.381-1.186l0.384,1.186h1.248L8.722,17.767z M12.645,27.974l-1.009-0.738l-1.002,0.738
				l0.388-1.182l-1.015-0.738h1.25l0.379-1.179l0.388,1.186h1.244l-1.009,0.719L12.645,27.974z M12.259,20.772l0.386,1.193
				l-1.009-0.734l-1.002,0.734l0.388-1.182l-1.015-0.734h1.25l0.379-1.186l0.388,1.189h1.244L12.259,20.772z M12.259,14.767
				l0.386,1.189l-1.009-0.734l-1.002,0.734l0.388-1.182l-1.015-0.738h1.25l0.379-1.179l0.388,1.186h1.244L12.259,14.767z
				 M16.182,30.953l-1.005-0.734l-1.005,0.734l0.39-1.182l-1.017-0.731h1.248l0.384-1.182l0.384,1.186h1.248l-1.013,0.719
				L16.182,30.953z M15.797,23.765l0.386,1.194l-1.005-0.738l-1.005,0.738l0.39-1.182l-1.017-0.734h1.248l0.384-1.182l0.384,1.186
				h1.248L15.797,23.765z M15.797,17.767l0.386,1.19l-1.005-0.731l-1.005,0.731l0.39-1.179l-1.017-0.734h1.248l0.384-1.186
				l0.384,1.186h1.248L15.797,17.767z M15.797,11.773l0.386,1.19l-1.005-0.734l-1.005,0.734l0.39-1.182l-1.017-0.734h1.248
				l0.384-1.179l0.384,1.182h1.248L15.797,11.773z M19.719,27.974l-1.005-0.738l-1.005,0.738l0.389-1.182l-1.018-0.738h1.254
				l0.38-1.179l0.386,1.186h1.245l-1.011,0.719L19.719,27.974z M19.334,20.772l0.386,1.193l-1.005-0.734l-1.005,0.734l0.389-1.182
				l-1.018-0.734h1.254l0.38-1.186l0.386,1.189h1.245L19.334,20.772z M19.334,14.767l0.386,1.189l-1.005-0.734l-1.005,0.734
				l0.389-1.182l-1.018-0.738h1.254l0.38-1.179l0.386,1.186h1.245L19.334,14.767z M19.334,8.754l0.386,1.194l-1.005-0.734
				l-1.005,0.734l0.389-1.186l-1.018-0.73h1.254l0.38-1.182L19.1,8.035h1.245L19.334,8.754z M23.255,30.953l-1.003-0.734
				l-1.005,0.734l0.388-1.182l-1.015-0.731h1.252l0.38-1.182l0.386,1.186h1.244l-1.011,0.719L23.255,30.953z M22.871,23.765
				l0.384,1.194l-1.003-0.738l-1.005,0.738l0.388-1.182l-1.015-0.734h1.252l0.38-1.182l0.386,1.186h1.244L22.871,23.765z
				 M22.871,17.767l0.384,1.19l-1.003-0.731l-1.005,0.731l0.388-1.179l-1.015-0.734h1.252l0.38-1.186l0.386,1.186h1.244
				L22.871,17.767z M22.871,11.773l0.384,1.19l-1.003-0.734l-1.005,0.734l0.388-1.182l-1.015-0.734h1.252l0.38-1.179l0.386,1.182
				h1.244L22.871,11.773z M22.871,5.776l0.384,1.19l-1.003-0.734l-1.005,0.734l0.388-1.182l-1.015-0.738h1.252l0.38-1.179
				l0.386,1.186h1.244L22.871,5.776z M26.794,27.974l-1.005-0.738l-1.005,0.738l0.388-1.182l-1.013-0.738h1.25l0.381-1.179
				l0.386,1.186h1.244l-1.011,0.719L26.794,27.974z M26.408,20.772l0.386,1.193l-1.005-0.734l-1.005,0.734l0.388-1.182l-1.013-0.734
				h1.25l0.381-1.186l0.386,1.189h1.244L26.408,20.772z M26.408,14.767l0.386,1.189l-1.005-0.734l-1.005,0.734l0.388-1.182
				l-1.013-0.738h1.25l0.381-1.179l0.386,1.186h1.244L26.408,14.767z M26.408,8.754l0.386,1.194l-1.005-0.734l-1.005,0.734
				l0.388-1.186l-1.013-0.73h1.25l0.381-1.182l0.386,1.186h1.244L26.408,8.754z M30.331,30.953l-1.005-0.734l-1.005,0.734
				l0.392-1.182l-1.017-0.731h1.25l0.38-1.182l0.384,1.186h1.248l-1.015,0.719L30.331,30.953z M29.944,23.765l0.388,1.194
				l-1.005-0.738l-1.005,0.738l0.392-1.182l-1.017-0.734h1.25l0.38-1.182l0.384,1.186h1.248L29.944,23.765z M29.944,17.767
				l0.388,1.19l-1.005-0.731l-1.005,0.731l0.392-1.179l-1.017-0.734h1.25l0.38-1.186l0.384,1.186h1.248L29.944,17.767z
				 M29.944,11.773l0.388,1.19l-1.005-0.734l-1.005,0.734l0.392-1.182l-1.017-0.734h1.25l0.38-1.179l0.384,1.182h1.248
				L29.944,11.773z M29.71,5.053h1.248l-1.015,0.723l0.388,1.19l-1.005-0.734l-1.005,0.734l0.392-1.182l-1.017-0.738h1.25
				l0.38-1.179L29.71,5.053z"/>
			<path fill="#FFFFFF" d="M15.985,6.355c-0.117,0.068-0.235,0.143-0.35,0.211l0.548,0.399L15.985,6.355z"/>
			<polygon fill="#FFFFFF" points="22.252,3.867 21.871,5.045 20.619,5.045 21.634,5.783 21.246,6.965 22.252,6.231 23.255,6.965 
				22.871,5.776 23.882,5.053 22.638,5.053 			"/>
			<polygon fill="#FFFFFF" points="27.696,5.045 28.712,5.783 28.321,6.965 29.326,6.231 30.331,6.965 29.944,5.776 30.958,5.053 
				29.71,5.053 29.326,3.867 28.946,5.045 			"/>
			<path fill="#FFFFFF" d="M8.918,12.376c-0.079,0.091-0.154,0.185-0.232,0.279l0.42,0.309L8.918,12.376z"/>
			<polygon fill="#FFFFFF" points="15.177,9.868 14.793,11.047 13.545,11.047 14.562,11.781 14.172,12.963 15.177,12.229 
				16.182,12.963 15.797,11.773 16.809,11.051 15.561,11.051 			"/>
			<polygon fill="#FFFFFF" points="22.252,9.868 21.871,11.047 20.619,11.047 21.634,11.781 21.246,12.963 22.252,12.229 
				23.255,12.963 22.871,11.773 23.882,11.051 22.638,11.051 			"/>
			<polygon fill="#FFFFFF" points="29.326,9.868 28.946,11.047 27.696,11.047 28.712,11.781 28.321,12.963 29.326,12.229 
				30.331,12.963 29.944,11.773 30.958,11.051 29.71,11.051 			"/>
			<polygon fill="#FFFFFF" points="8.101,15.859 7.72,17.045 6.472,17.045 7.487,17.779 7.095,18.957 8.101,18.227 9.106,18.957 
				8.722,17.767 9.733,17.045 8.485,17.045 			"/>
			<polygon fill="#FFFFFF" points="15.177,15.859 14.793,17.045 13.545,17.045 14.562,17.779 14.172,18.957 15.177,18.227 
				16.182,18.957 15.797,17.767 16.809,17.045 15.561,17.045 			"/>
			<polygon fill="#FFFFFF" points="22.252,15.859 21.871,17.045 20.619,17.045 21.634,17.779 21.246,18.957 22.252,18.227 
				23.255,18.957 22.871,17.767 23.882,17.045 22.638,17.045 			"/>
			<polygon fill="#FFFFFF" points="29.326,15.859 28.946,17.045 27.696,17.045 28.712,17.779 28.321,18.957 29.326,18.227 
				30.331,18.957 29.944,17.767 30.958,17.045 29.71,17.045 			"/>
			<polygon fill="#FFFFFF" points="8.101,21.86 7.72,23.042 6.472,23.042 7.487,23.777 7.095,24.959 8.101,24.221 9.106,24.959 
				8.722,23.765 9.733,23.046 8.485,23.046 			"/>
			<polygon fill="#FFFFFF" points="15.177,21.86 14.793,23.042 13.545,23.042 14.562,23.777 14.172,24.959 15.177,24.221 
				16.182,24.959 15.797,23.765 16.809,23.046 15.561,23.046 			"/>
			<polygon fill="#FFFFFF" points="22.252,21.86 21.871,23.042 20.619,23.042 21.634,23.777 21.246,24.959 22.252,24.221 
				23.255,24.959 22.871,23.765 23.882,23.046 22.638,23.046 			"/>
			<polygon fill="#FFFFFF" points="29.326,21.86 28.946,23.042 27.696,23.042 28.712,23.777 28.321,24.959 29.326,24.221 
				30.331,24.959 29.944,23.765 30.958,23.046 29.71,23.046 			"/>
			<path fill="#FFFFFF" d="M2.527,29.044c0,0.026,0,0.06,0,0.09l0.13-0.09H2.527z"/>
			<polygon fill="#FFFFFF" points="8.485,29.044 8.101,27.858 7.72,29.04 6.472,29.04 7.487,29.771 7.095,30.953 8.101,30.219 
				9.106,30.953 8.722,29.763 9.733,29.044 			"/>
			<polygon fill="#FFFFFF" points="15.561,29.044 15.177,27.858 14.793,29.04 13.545,29.04 14.562,29.771 14.172,30.953 
				15.177,30.219 16.182,30.953 15.797,29.763 16.809,29.044 			"/>
			<polygon fill="#FFFFFF" points="22.638,29.044 22.252,27.858 21.871,29.04 20.619,29.04 21.634,29.771 21.246,30.953 
				22.252,30.219 23.255,30.953 22.871,29.763 23.882,29.044 			"/>
			<polygon fill="#FFFFFF" points="29.71,29.044 29.326,27.858 28.946,29.04 27.696,29.04 28.712,29.771 28.321,30.953 
				29.326,30.219 30.331,30.953 29.944,29.763 30.958,29.044 			"/>
			<polygon fill="#FFFFFF" points="4.947,26.062 4.561,24.876 4.183,26.054 2.929,26.054 3.948,26.792 3.558,27.974 4.561,27.236 
				5.57,27.974 5.185,26.781 6.195,26.062 			"/>
			<polygon fill="#FFFFFF" points="12.024,26.062 11.636,24.876 11.258,26.054 10.008,26.054 11.022,26.792 10.635,27.974 
				11.636,27.236 12.645,27.974 12.259,26.781 13.268,26.062 			"/>
			<polygon fill="#FFFFFF" points="19.1,26.062 18.714,24.876 18.334,26.054 17.08,26.054 18.099,26.792 17.709,27.974 
				18.714,27.236 19.719,27.974 19.334,26.781 20.345,26.062 			"/>
			<polygon fill="#FFFFFF" points="26.175,26.062 25.789,24.876 25.408,26.054 24.158,26.054 25.171,26.792 24.783,27.974 
				25.789,27.236 26.794,27.974 26.408,26.781 27.419,26.062 			"/>
			<path fill="#FFFFFF" d="M5.57,21.965l-0.386-1.193l1.011-0.719H4.947l-0.256-0.79c-0.352,0.832-0.667,1.687-0.938,2.557
				l0.808-0.588L5.57,21.965z"/>
			<polygon fill="#FFFFFF" points="11.636,18.863 11.258,20.049 10.008,20.049 11.022,20.783 10.635,21.965 11.636,21.231 
				12.645,21.965 12.259,20.772 13.268,20.053 12.024,20.053 			"/>
			<polygon fill="#FFFFFF" points="18.714,18.863 18.334,20.049 17.08,20.049 18.099,20.783 17.709,21.965 18.714,21.231 
				19.719,21.965 19.334,20.772 20.345,20.053 19.1,20.053 			"/>
			<polygon fill="#FFFFFF" points="25.789,18.863 25.408,20.049 24.158,20.049 25.171,20.783 24.783,21.965 25.789,21.231 
				26.794,21.965 26.408,20.772 27.419,20.053 26.175,20.053 			"/>
			<polygon fill="#FFFFFF" points="11.636,12.858 11.258,14.036 10.008,14.036 11.022,14.774 10.635,15.956 11.636,15.222 
				12.645,15.956 12.259,14.767 13.268,14.044 12.024,14.044 			"/>
			<polygon fill="#FFFFFF" points="18.714,12.858 18.334,14.036 17.08,14.036 18.099,14.774 17.709,15.956 18.714,15.222 
				19.719,15.956 19.334,14.767 20.345,14.044 19.1,14.044 			"/>
			<polygon fill="#FFFFFF" points="25.789,12.858 25.408,14.036 24.158,14.036 25.171,14.774 24.783,15.956 25.789,15.222 
				26.794,15.956 26.408,14.767 27.419,14.044 26.175,14.044 			"/>
			<path fill="#FFFFFF" d="M12.323,8.953c-0.162,0.136-0.326,0.268-0.482,0.407l0.804,0.588L12.323,8.953z"/>
			<polygon fill="#FFFFFF" points="18.714,6.849 18.334,8.031 17.08,8.031 18.099,8.761 17.709,9.948 18.714,9.213 19.719,9.948 
				19.334,8.754 20.345,8.035 19.1,8.035 			"/>
			<polygon fill="#FFFFFF" points="25.789,6.849 25.408,8.031 24.158,8.031 25.171,8.761 24.783,9.948 25.789,9.213 26.794,9.948 
				26.408,8.754 27.419,8.035 26.175,8.035 			"/>
		</g>
	</g>
</g>
</svg>
