<?xml version="1.0" encoding="utf-8"?>
<!-- Generator: Adobe Illustrator 17.0.2, SVG Export Plug-In . SVG Version: 6.00 Build 0)  -->
<!DOCTYPE svg PUBLIC "-//W3C//DTD SVG 1.1//EN" "http://www.w3.org/Graphics/SVG/1.1/DTD/svg11.dtd">
<svg version="1.1" id="Layer_1" xmlns="http://www.w3.org/2000/svg" xmlns:xlink="http://www.w3.org/1999/xlink" x="0px" y="0px"
	 width="60px" height="60px" viewBox="0 0 60 60" enable-background="new 0 0 60 60" xml:space="preserve">
<g>
	<circle fill="#DDDDDD" cx="30" cy="30" r="30"/>
	<g opacity="0.7">
		<circle fill="#FFFFFF" cx="30" cy="30" r="27.5"/>
		<g>
			<path fill="#003976" d="M20.803,4.082c-4.79,1.7-8.975,4.689-12.123,8.553l12.123,6.044V4.082z"/>
			<path fill="#003976" d="M8.68,47.365c3.148,3.867,7.333,6.854,12.123,8.555V41.323L8.68,47.365z"/>
			<path fill="#003976" d="M51.294,12.594C48.122,8.721,43.911,5.73,39.09,4.045v14.634L51.294,12.594z"/>
			<path fill="#003976" d="M39.09,55.957c4.82-1.687,9.031-4.676,12.203-8.549L39.09,41.323V55.957z"/>
			<path fill="#FFFFFF" d="M39.633,20.838l12.973-6.492c-0.415-0.6-0.852-1.184-1.312-1.752L39.09,18.679V4.045
				c-1.184-0.413-2.402-0.753-3.65-1.005v21.591h21.533c-0.478-2.434-1.289-4.747-2.361-6.903l-6.199,3.111H39.633z"/>
			<path fill="#FFFFFF" d="M3.03,35.377c0.486,2.451,1.299,4.783,2.388,6.95l6.313-3.157h8.78L7.434,45.708
				c0.396,0.57,0.809,1.121,1.246,1.657l12.123-6.042V55.92c1.259,0.448,2.557,0.803,3.895,1.067v-21.61H3.03z"/>
			<path fill="#FFFFFF" d="M35.44,56.96c1.248-0.246,2.466-0.588,3.65-1.003V41.323l12.203,6.085
				c1.282-1.569,2.391-3.284,3.31-5.112l-6.225-3.127h7.555c0.433-1.224,0.785-2.492,1.039-3.792H35.44V56.96z"/>
			<path fill="#FFFFFF" d="M24.698,3.016c-1.338,0.26-2.636,0.62-3.895,1.067v14.597L8.68,12.635
				c-1.257,1.543-2.347,3.23-3.251,5.022l6.374,3.181H4.073c-0.435,1.227-0.785,2.494-1.043,3.792h21.668V3.016z"/>
			<path fill="#E03A3E" d="M39.633,20.838h8.78l6.199-3.111c-0.583-1.179-1.259-2.307-2.006-3.381L39.633,20.838z"/>
			<path fill="#E03A3E" d="M54.604,42.296c0.501-1.007,0.945-2.049,1.33-3.127h-7.555L54.604,42.296z"/>
			<path fill="#E03A3E" d="M5.429,17.657c-0.518,1.027-0.971,2.087-1.356,3.181h7.731L5.429,17.657z"/>
			<path fill="#E03A3E" d="M11.731,39.169l-6.313,3.157c0.594,1.181,1.266,2.311,2.016,3.381l13.078-6.539H11.731z"/>
			<path fill="#E03A3E" d="M35.44,3.04c-1.756-0.351-3.574-0.542-5.438-0.542c-1.814,0-3.589,0.183-5.304,0.517v21.615H3.03
				c-0.342,1.737-0.53,3.533-0.53,5.371c0,1.84,0.189,3.636,0.53,5.375h21.668v21.61c1.715,0.334,3.49,0.515,5.304,0.515
				c1.864,0,3.682-0.185,5.438-0.542V35.377h21.533c0.344-1.739,0.527-3.535,0.527-5.375c0-1.838-0.183-3.634-0.527-5.371H35.44
				V3.04z"/>
		</g>
	</g>
</g>
</svg>
