<?xml version="1.0" encoding="utf-8"?>
<!-- Generator: Adobe Illustrator 17.0.2, SVG Export Plug-In . SVG Version: 6.00 Build 0)  -->
<!DOCTYPE svg PUBLIC "-//W3C//DTD SVG 1.1//EN" "http://www.w3.org/Graphics/SVG/1.1/DTD/svg11.dtd">
<svg version="1.1" id="Layer_1" xmlns="http://www.w3.org/2000/svg" xmlns:xlink="http://www.w3.org/1999/xlink" x="0px" y="0px"
	 width="60px" height="60px" viewBox="0 0 60 60" enable-background="new 0 0 60 60" xml:space="preserve">
<g>
	<circle fill="#DDDDDD" cx="30" cy="30" r="30"/>
	<g opacity="0.7">
		<path fill="#F15D2F" d="M54.93,18.39C50.56,9,41.04,2.5,30,2.5S9.45,9,5.07,18.39C3.42,21.92,2.5,25.85,2.5,30
			c0,4.15,0.92,8.08,2.57,11.61c0.59,1.26,1.28,2.47,2.05,3.62C12.05,52.62,20.45,57.5,30,57.5s17.96-4.88,22.89-12.27
			c0.76-1.15,1.45-2.36,2.04-3.62c1.65-3.53,2.57-7.46,2.57-11.61C57.5,25.85,56.58,21.92,54.93,18.39z M26.54,41.45
			c2.94,0,5.61-0.92,7.63-2.74c-2.61,3.3-6.68,5.6-11.22,5.6c-7.9,0-14.31-6.4-14.31-14.31c0-7.91,6.41-14.32,14.31-14.32
			c4.55,0,8.61,2.3,11.22,5.61c-2.02-1.82-4.69-2.74-7.63-2.74c-6.32,0-11.45,5.12-11.45,11.45C15.09,36.32,20.22,41.45,26.54,41.45
			z M46.88,34.37l-4.85-1.77l-3.15,4.08l0.19-5.15l-4.88-1.75l4.98-1.45l0.15-5.13l2.89,4.28l4.96-1.44l-3.19,4.03L46.88,34.37z"/>
		<path fill="#FFFFFF" d="M26.54,41.45c2.94,0,5.61-0.92,7.63-2.74c-2.61,3.3-6.68,5.6-11.22,5.6c-7.9,0-14.31-6.4-14.31-14.31
			c0-7.91,6.41-14.32,14.31-14.32c4.55,0,8.61,2.3,11.22,5.61c-2.02-1.82-4.69-2.74-7.63-2.74c-6.32,0-11.45,5.12-11.45,11.45
			C15.09,36.32,20.22,41.45,26.54,41.45z"/>
		<polygon fill="#FFFFFF" points="43.98,30.07 46.88,34.37 42.03,32.6 38.88,36.68 39.07,31.53 34.19,29.78 39.17,28.33 39.32,23.2 
			42.21,27.48 47.17,26.04 		"/>
	</g>
</g>
</svg>
