<?xml version="1.0" encoding="utf-8"?>
<!-- Generator: Adobe Illustrator 17.0.2, SVG Export Plug-In . SVG Version: 6.00 Build 0)  -->
<!DOCTYPE svg PUBLIC "-//W3C//DTD SVG 1.1//EN" "http://www.w3.org/Graphics/SVG/1.1/DTD/svg11.dtd">
<svg version="1.1" id="Layer_1" xmlns="http://www.w3.org/2000/svg" xmlns:xlink="http://www.w3.org/1999/xlink" x="0px" y="0px"
	 width="60px" height="60px" viewBox="0 0 60 60" enable-background="new 0 0 60 60" xml:space="preserve">
<circle fill="#DDDDDD" cx="30" cy="30" r="30"/>
<g opacity="0.7">
	<path fill="#EF3E42" d="M30.004,2.5c-3.549,0-6.93,0.678-10.036,1.9c0.148-0.006,0.292-0.021,0.444-0.021
		c0.363,0,0.718,0.01,1.077,0.046c-4.095,1.872-6.947,6.034-6.947,10.798c0,4.762,2.852,8.924,6.947,10.797
		c-0.359,0.034-0.714,0.046-1.077,0.046c-5.996,0-10.851-4.857-10.851-10.843c0-1.724,0.414-3.344,1.132-4.792
		c-2.316,2.286-4.234,4.976-5.62,7.961C3.426,21.919,2.5,25.85,2.5,30.002l0,0h55l0,0c0-4.152-0.93-8.084-2.574-11.61
		C50.553,9.007,41.037,2.5,30.004,2.5z M17.822,12.434h2.05l0.63-1.939l0.625,1.944h2.045l-1.652,1.185l0.63,1.954l-1.648-1.204
		l-1.652,1.204l0.643-1.938L17.822,12.434z M24.41,22.533l-1.648-1.202l-1.652,1.202l0.642-1.935l-1.669-1.208h2.054l0.625-1.939
		l0.634,1.948h2.045l-1.661,1.179L24.41,22.533z M24.769,11.276l0.638-1.937l-1.665-1.208h2.054l0.621-1.938l0.634,1.946h2.045
		l-1.661,1.183l0.634,1.954l-1.652-1.204L24.769,11.276z M31.724,22.533l-1.648-1.202l-1.652,1.202l0.643-1.935l-1.665-1.208h2.049
		l0.626-1.939l0.625,1.948h2.049l-1.661,1.179L31.724,22.533z M33.985,15.578l-1.648-1.204l-1.648,1.204l0.634-1.938l-1.669-1.206
		h2.058l0.625-1.939l0.63,1.944h2.045l-1.661,1.185L33.985,15.578z"/>
	<polygon fill="#FFFFFF" points="27.435,9.322 29.096,8.139 27.051,8.139 26.417,6.193 25.796,8.131 23.742,8.131 25.407,9.339 
		24.769,11.276 26.417,10.072 28.069,11.276 	"/>
	<polygon fill="#FFFFFF" points="32.966,12.439 32.337,10.495 31.711,12.434 29.653,12.434 31.323,13.641 30.689,15.578 
		32.337,14.374 33.985,15.578 33.351,13.624 35.011,12.439 	"/>
	<polygon fill="#FFFFFF" points="30.701,19.398 30.076,17.45 29.45,19.389 27.401,19.389 29.066,20.598 28.424,22.533 
		30.076,21.331 31.724,22.533 31.09,20.577 32.751,19.398 	"/>
	<polygon fill="#FFFFFF" points="23.395,19.398 22.761,17.45 22.136,19.389 20.083,19.389 21.752,20.598 21.109,22.533 
		22.761,21.331 24.41,22.533 23.78,20.577 25.441,19.398 	"/>
	<polygon fill="#FFFFFF" points="20.501,14.374 22.149,15.578 21.519,13.624 23.172,12.439 21.126,12.439 20.501,10.495 
		19.871,12.434 17.822,12.434 19.491,13.641 18.849,15.578 	"/>
	<path fill="#FFFFFF" d="M20.412,26.066c0.363,0,0.718-0.013,1.077-0.046c-4.095-1.872-6.947-6.034-6.947-10.797
		c0-4.764,2.852-8.926,6.947-10.798c-0.359-0.036-0.714-0.046-1.077-0.046c-0.152,0-0.296,0.015-0.444,0.021
		c-3.499,1.369-6.647,3.437-9.275,6.032c-0.718,1.447-1.132,3.068-1.132,4.792C9.561,21.208,14.416,26.066,20.412,26.066z"/>
	<path fill="#FFFFFF" d="M5.074,41.614c0.583,1.259,1.276,2.466,2.045,3.619C12.041,52.624,20.446,57.5,30.004,57.5
		c9.545,0,17.946-4.876,22.877-12.267c0.769-1.154,1.453-2.36,2.045-3.619c1.644-3.531,2.574-7.462,2.574-11.612h-55
		C2.5,34.152,3.426,38.083,5.074,41.614z"/>
</g>
</svg>
