<?xml version="1.0" encoding="utf-8"?>
<!-- Generator: Adobe Illustrator 17.1.0, SVG Export Plug-In . SVG Version: 6.00 Build 0)  -->
<!DOCTYPE svg PUBLIC "-//W3C//DTD SVG 1.1//EN" "http://www.w3.org/Graphics/SVG/1.1/DTD/svg11.dtd">
<svg version="1.1" id="Layer_1" xmlns="http://www.w3.org/2000/svg" xmlns:xlink="http://www.w3.org/1999/xlink" x="0px" y="0px"
	 width="61px" height="61px" viewBox="0 0 61 61" enable-background="new 0 0 61 61" xml:space="preserve">
<g>
	<path fill="#FFFFFF" d="M14.747,8.561V52.42c4.434,3.194,9.872,5.08,15.753,5.08s11.319-1.887,15.753-5.08V8.561
		c-4.244-3.056-9.409-4.908-15-5.061h-1.506C24.155,3.654,18.991,5.505,14.747,8.561z"/>
	<g>
		<g>
			<path fill="#0699D6" stroke="#000000" stroke-width="0.125" d="M28.749,35.869c-1.014,0.281-1.453-0.53-1.61-1.115
				c-0.113,0.529-0.101,0.822-0.507,0.709c-0.405-0.113-1.655-0.676-1.959-0.789c-0.304-0.112-0.371,0.158,0.124,0.417
				c0.495,0.259,0.957,0.552,0.968,0.732c0.011,0.18-0.428,0.405-0.586,0.484c0.743,0,1.571,0.154,1.835,0.214
				c0.495,0.113,0.529,0.451-0.282,0.991c2.06-0.225,1.982,0.778,3.029,0.767c0.766-0.009,1.61,0.001,1.959-0.012
				c0.946-0.034,0.248-0.416,1.16-0.642c0.64-0.158,1.284-0.383,1.779-0.541c-0.507-0.112-0.788-0.236-0.788-0.349
				c0-0.113,1.014-0.495,1.497-0.698c-0.169-0.056-0.585-0.113-1.092,0.023c-0.507,0.135-1.396,0.27-2.466,0.147
				C30.742,36.083,29.56,36.274,28.749,35.869z"/>
			<g>
				<path fill="#FBBC19" stroke="#000000" stroke-width="0.125" d="M32.318,37.772c0.147,0.203,0.439,0.163,0.563-0.011
					c0.131-0.185,0.045-0.406-0.101-0.496c0.101-0.27,0.157-0.901,0-1.137c0.147-0.09,0.233-0.311,0.101-0.495
					c-0.124-0.174-0.416-0.214-0.563-0.012c-0.856-0.169-2.759-0.124-3.378,0c-0.147-0.202-0.439-0.163-0.563,0.012
					c-0.131,0.185-0.045,0.405,0.101,0.495c-0.158,0.237-0.101,0.867,0,1.137c-0.147,0.09-0.233,0.311-0.101,0.496
					c0.124,0.174,0.416,0.214,0.563,0.011C29.65,38.053,31.586,38.053,32.318,37.772z"/>
				<g>
					<path fill="none" stroke="#000000" stroke-width="0.125" d="M28.698,37.4c0.197-0.113,0.41,0.14,0.242,0.372"/>
					<path fill="none" stroke="#000000" stroke-width="0.125" d="M28.94,35.62c0.167,0.232-0.045,0.484-0.242,0.372"/>
					<path fill="none" stroke="#000000" stroke-width="0.125" d="M32.56,37.4c-0.197-0.113-0.41,0.14-0.242,0.372"/>
					<path fill="none" stroke="#000000" stroke-width="0.125" d="M32.318,35.62c-0.167,0.232,0.045,0.484,0.242,0.372"/>
					<path fill="none" stroke="#000000" stroke-width="0.125" d="M29.008,35.609c0.732-0.045,0.958,2.422,1.757,2.377"/>
					<path fill="none" stroke="#000000" stroke-width="0.125" d="M29.492,35.553c0.755-0.056,1.092,2.523,1.937,2.399"/>
					<path fill="none" stroke="#000000" stroke-width="0.125" d="M30.021,35.53c0.754-0.056,1.16,2.489,1.903,2.343"/>
				</g>
			</g>
			<g>
				<path fill="#FFFFFF" stroke="#000000" stroke-width="0.125" d="M25.236,35.957c-0.454,0-0.454,0.677,0,0.677
					C25.691,36.634,25.697,35.957,25.236,35.957z"/>
				<path fill="#FFFFFF" stroke="#000000" stroke-width="0.125" d="M27.037,34.47c-0.455,0-0.455,0.678,0,0.678
					C27.492,35.148,27.499,34.47,27.037,34.47z"/>
				<path fill="#FFFFFF" stroke="#000000" stroke-width="0.125" d="M34.491,36.813c-0.455,0-0.455,0.678,0,0.678
					C34.946,37.49,34.952,36.813,34.491,36.813z"/>
			</g>
			<g>
				<path fill="#82693C" stroke="#000000" stroke-width="0.125" d="M24.617,34.426c-0.275-0.138-0.608-0.09-0.709,0.067
					c-0.102,0.158,0.157,0.462,0.428,0.586c0.27,0.124,0.518,0.022,0.597-0.09C25.011,34.877,24.932,34.584,24.617,34.426z"/>
				<path fill="#82693C" stroke="#000000" stroke-width="0.125" d="M26.635,37.137c-0.293,0.093-0.499,0.359-0.461,0.543
					c0.037,0.184,0.435,0.221,0.715,0.122c0.28-0.1,0.375-0.362,0.329-0.492C27.15,37.119,26.971,37.03,26.635,37.137z"/>
				<path fill="#82693C" stroke="#000000" stroke-width="0.125" d="M35.247,36.42c0.296-0.086,0.623-0.39,0.55-0.563
					c-0.09-0.214-0.461-0.172-0.743-0.078c-0.283,0.092-0.428,0.323-0.385,0.454C34.732,36.426,34.909,36.518,35.247,36.42z"/>
			</g>
		</g>
		<g>
			<g>
				<path fill="#CD7419" stroke="#000000" stroke-width="0.125" d="M36.082,38.248c0.027-0.133-0.086-0.555-0.203-0.666
					c0.167-0.027,0.236-0.252,0.087-0.367c-0.116-0.091-0.267-0.03-0.322,0.034c-0.054,0.065-0.053,0.29,0.113,0.333
					c0.021,0.139,0.157,0.626,0.04,0.821c0.227,0.009,0.627,0.14,0.733,0.234c-0.055,0.162,0.133,0.286,0.217,0.276
					c0.084-0.01,0.217-0.104,0.205-0.251c-0.016-0.188-0.241-0.252-0.356-0.128C36.531,38.417,36.208,38.299,36.082,38.248z"/>
				<path fill="#CD7419" stroke="#000000" stroke-width="0.125" d="M39.256,35.634c-0.018-0.135-0.261-0.498-0.407-0.566
					c0.149-0.08,0.142-0.314-0.036-0.376c-0.139-0.048-0.262,0.058-0.293,0.136c-0.03,0.078,0.042,0.292,0.213,0.278
					c0.065,0.125,0.35,0.542,0.303,0.764c0.218-0.064,0.639-0.069,0.768-0.014c0,0.171,0.218,0.227,0.294,0.191
					c0.076-0.036,0.172-0.168,0.113-0.303c-0.075-0.172-0.31-0.161-0.378-0.006C39.735,35.65,39.391,35.641,39.256,35.634z"/>
				<path fill="#CD7419" stroke="#000000" stroke-width="0.125" d="M41.034,32.126c-0.078-0.111-0.354-0.35-0.482-0.387
					c0.096-0.139-0.019-0.344-0.205-0.317c-0.146,0.021-0.207,0.172-0.197,0.256c0.009,0.084,0.172,0.239,0.318,0.149
					c0.115,0.081,0.421,0.392,0.482,0.611c0.163-0.158,0.585-0.27,0.725-0.281c0.079,0.152,0.299,0.101,0.349,0.034
					c0.051-0.067,0.075-0.228-0.04-0.321c-0.147-0.118-0.349,0-0.338,0.169C41.517,32.005,41.159,32.07,41.034,32.126z"/>
			</g>
			<g>
				<path fill="#058348" stroke="#000000" stroke-width="0.125" d="M40.859,32.534c0.113-0.541,0.137-1.011-0.174-1.464
					c-0.349-0.507-0.011-1.15-0.169-1.465c0.214,0.226,0.664,0.755,0.755,1.013c0.169-0.326,0.608-1.002,0.957-1.104
					c-0.022,0.191,0.03,0.47,0.079,0.687c0.079,0.349-0.319,0.86-0.653,1.161c-0.225,0.202-0.557,0.343-0.659,1.267"/>
				<path fill="#058348" stroke="#000000" stroke-width="0.125" d="M40.943,32.484c0.18-1.296-0.18-2.856,0.462-3.374
					c0.462,0.721,0.484,1.622,0.192,2.005C41.303,31.498,40.988,32.022,40.943,32.484z"/>
				<path fill="#058348" stroke="#000000" stroke-width="0.125" d="M38.624,36.127c0.439-0.372,0.777-0.631,0.687-1.329
					c-0.119-0.926,0.135-2.004,0.968-2.174c0.056,0.259,0.101,0.935,0.068,1.206c0.349-0.35,0.608-0.755,1.328-0.8
					c-0.54,0.518-0.72,1.78-1.385,2.05c-0.664,0.27-1.205,0.8-1.531,1.238"/>
				<path fill="#058348" stroke="#000000" stroke-width="0.125" d="M38.939,35.981c0.282-0.338,0.473-0.518,0.619-1.307
					c0.163-0.882,0.681-2.072,1.436-2.399c0.124,0.642-0.107,1.543-0.636,2.196C39.829,35.125,39.131,35.756,38.939,35.981z"/>
				<path fill="#058348" stroke="#000000" stroke-width="0.125" d="M35.685,38.403c0.586-0.372,0.744-0.616,0.878-1.002
					c0.349-1.003,1.362-1.397,1.396-1.814c0.113,0.507,0.034,1.082-0.124,1.374c0.282-0.236,0.845-0.462,1.227-0.495
					c-0.225,0.451,0,1.036-0.867,1.318c-0.867,0.282-1.25-0.135-2.545,0.778"/>
				<path fill="#058348" stroke="#000000" stroke-width="0.125" d="M35.708,38.448c0.518-0.428,1.193-1.07,1.565-1.532
					c0.371-0.462,1.114-1.104,1.846-1.104c-0.315,0.912-1.092,1.678-2.072,1.993C36.068,38.121,36.057,38.245,35.708,38.448z"/>
				<path fill="#058348" stroke="#000000" stroke-width="0.125" d="M32.33,39.135c0.856-0.158,1.058-1.397,2.77-1.172
					c-0.248,0.226-0.451,0.811-0.811,1.014c0.405,0.067,1.013,0.202,1.441,0.45c-0.473-0.067-1.554,0.789-2.455,0.361
					C32.375,39.36,32.509,39.292,32.33,39.135z"/>
				<path fill="#058348" stroke="#000000" stroke-width="0.125" d="M32.735,39.517c0.694,0.429,2.59-0.158,3.22-1.217
					c-0.788-0.09-1.712,0.27-2.23,0.518c-0.518,0.248-0.987,0.251-1.396,0.18c-1.104-0.191-2.364-0.202-3.626,0.698
					c-0.09,0.056,0.109,0.289,0.237,0.192C30.01,39.078,31.474,38.741,32.735,39.517z"/>
			</g>
		</g>
		<g>
			<g>
				<path fill="#CD7419" stroke="#000000" stroke-width="0.125" d="M25.168,38.301c-0.022-0.292-0.056-0.506-0.135-0.664
					c-0.079-0.158-0.124-0.518,0.034-0.53c0.157-0.011,0.27,0.248,0.203,0.462c-0.068,0.214,0,0.698,0.146,0.879"/>
				<path fill="#CD7419" stroke="#000000" stroke-width="0.125" d="M25.073,37.53c-0.208-0.073-0.267,0.029-0.186,0.191
					c0.107,0.214,0.383,0.237,0.478,0.078c0.134-0.221,0.045-0.349-0.045-0.304C25.231,37.541,25.123,37.548,25.073,37.53z"/>
				<path fill="#CD7419" stroke="#000000" stroke-width="0.125" d="M25.116,38.371c-0.288,0.059-0.503,0.084-0.676,0.051
					c-0.173-0.033-0.532,0.022-0.5,0.177c0.032,0.155,0.311,0.193,0.499,0.07c0.188-0.123,0.672-0.19,0.885-0.097"/>
				<path fill="#CD7419" stroke="#000000" stroke-width="0.125" d="M24.347,38.489c-0.127-0.181-0.044-0.265,0.134-0.231
					c0.235,0.045,0.331,0.304,0.206,0.439c-0.177,0.19-0.324,0.139-0.305,0.04C24.401,38.637,24.378,38.532,24.347,38.489z"/>
				<path fill="#CD7419" stroke="#000000" stroke-width="0.125" d="M22.004,35.603c0.049-0.289,0.071-0.531,0.033-0.704
					c-0.038-0.172,0.005-0.533,0.161-0.505c0.156,0.027,0.202,0.306,0.085,0.497c-0.118,0.191-0.146,0.682-0.048,0.892"/>
				<path fill="#CD7419" stroke="#000000" stroke-width="0.125" d="M22.101,34.806c-0.184-0.122-0.266-0.037-0.227,0.141
					c0.052,0.233,0.314,0.322,0.445,0.192c0.184-0.182,0.129-0.328,0.03-0.306C22.251,34.855,22.145,34.835,22.101,34.806z"/>
				<path fill="#CD7419" stroke="#000000" stroke-width="0.125" d="M22.004,35.643c-0.293,0.007-0.53,0.012-0.694-0.051
					c-0.165-0.062-0.528-0.07-0.523,0.088c0.005,0.158,0.274,0.243,0.48,0.155c0.206-0.089,0.814-0.054,1.008,0.073"/>
				<path fill="#CD7419" stroke="#000000" stroke-width="0.125" d="M21.207,35.643c-0.094-0.2,0.002-0.269,0.171-0.204
					c0.223,0.084,0.274,0.357,0.127,0.468c-0.207,0.156-0.343,0.08-0.307-0.014C21.234,35.798,21.23,35.691,21.207,35.643z"/>
				<path fill="#CD7419" stroke="#000000" stroke-width="0.125" d="M20.056,32.169c0.162-0.246,0.325-0.483,0.359-0.656
					c0.034-0.173,0.219-0.485,0.351-0.398c0.132,0.088,0.062,0.362-0.123,0.49c-0.184,0.128-0.418,0.575-0.497,0.958"/>
				<path fill="#CD7419" stroke="#000000" stroke-width="0.125" d="M20.512,31.453c-0.12-0.185-0.229-0.141-0.264,0.037
					c-0.046,0.235,0.158,0.421,0.33,0.355c0.241-0.092,0.249-0.248,0.15-0.268C20.629,31.558,20.541,31.497,20.512,31.453z"/>
				<path fill="#CD7419" stroke="#000000" stroke-width="0.125" d="M19.959,32.167c-0.257-0.142-0.463-0.258-0.574-0.395
					c-0.111-0.137-0.421-0.328-0.496-0.188c-0.075,0.138,0.114,0.349,0.336,0.376c0.223,0.027,0.73,0.364,0.833,0.572"/>
				<path fill="#CD7419" stroke="#000000" stroke-width="0.125" d="M19.271,31.764c0.02-0.221,0.137-0.231,0.251-0.09
					c0.151,0.186,0.057,0.446-0.126,0.468c-0.257,0.031-0.336-0.103-0.258-0.167C19.216,31.912,19.266,31.817,19.271,31.764z"/>
			</g>
			<g>
				<path fill="#058348" stroke="#000000" stroke-width="0.125" d="M20.237,32.951c-0.034-0.428-0.405-1.43-0.237-1.622
					c0.169-0.191,0.163-0.231,0.045-0.321c-0.118-0.09,0.001-0.269,0.186-0.338c0.27-0.102,0.382-0.324,0.18-0.31
					c-0.332,0.023-0.529-0.034-0.332-0.147c0.239-0.136,0.497-0.309,0.445-0.507c-0.023-0.084-0.135-0.107-0.259-0.062
					c-0.124,0.045-0.247-0.029-0.101-0.13c0.186-0.13,0.04-0.259,0.175-0.349c0.135-0.09,0.085-0.214,0-0.203
					c-0.085,0.011-0.293,0.231-0.377,0.13c-0.085-0.102-0.189-0.212-0.287-0.012c-0.141,0.287,0.034,0.468-0.056,0.603
					c-0.09,0.135-0.208,0.18-0.321,0.034c-0.113-0.147-0.276-0.102-0.287,0.078c-0.011,0.18,0.073,0.293,0.191,0.462
					c0.118,0.169,0.096,0.298-0.118,0.197c-0.214-0.102-0.316-0.102-0.327,0.067c-0.011,0.169,0.079,0.231,0.349,0.355
					c0.27,0.124,0.315,0.159,0.338,0.298c0.039,0.248,0.282,0.203,0.36,0.535c0.079,0.332,0.27,0.85,0.248,1.334"/>
				<path fill="#058348" stroke="#000000" stroke-width="0.125" d="M22.658,35.947c-0.758-0.402-1.036-0.721-1.059-1.149
					c-0.019-0.36-0.011-0.529,0.112-0.676c0.124-0.147,0.056-0.304-0.101-0.169c-0.158,0.135-0.315,0.09-0.281-0.147
					c0.034-0.237,0.135-0.541,0.045-0.721c-0.09-0.18-0.295-0.174-0.349,0.067c-0.023,0.102-0.101,0.214-0.214,0.214
					c-0.113,0-0.101-0.248-0.056-0.405c0.045-0.158-0.101-0.27-0.18-0.135c-0.078,0.135-0.259,0.27-0.338,0.067
					c-0.079-0.203-0.27-0.09-0.231,0.045c-0.191-0.067-0.214,0.081-0.147,0.169c0.09,0.118,0.124,0.225,0,0.197
					c-0.124-0.029-0.366-0.113-0.321,0.073c0.045,0.185,0.451,0.321,0.71,0.372c0.259,0.051,0.276,0.169,0.158,0.208
					c-0.119,0.04-0.192,0.023-0.372-0.005c-0.18-0.029-0.214,0.112-0.073,0.265c0.141,0.152,0.512,0.196,0.681,0.214
					c0.27,0.028,0.293,0.231,0.175,0.225c-0.119-0.005-0.344-0.084-0.36,0.034c-0.017,0.119,0.298,0.248,0.535,0.226
					c0.237-0.023,0.267,0.032,0.315,0.095c0.327,0.44,0.923,0.958,1.301,1.104"/>
				<path fill="#058348" stroke="#000000" stroke-width="0.125" d="M25.743,38.549c-0.732-0.226-1.182-0.901-1.205-1.262
					c-0.022-0.361-0.107-0.265-0.158-0.18c-0.051,0.084-0.213,0.199-0.281-0.078c-0.084-0.344-0.028-0.637-0.163-0.794
					c-0.135-0.158-0.281-0.225-0.355,0.062c-0.073,0.287-0.237,0.129-0.231-0.113c0.006-0.243,0.011-0.473-0.096-0.58
					c-0.107-0.107-0.185-0.101-0.185,0.13c0,0.231-0.102,0.276-0.214,0.062c-0.112-0.214-0.287-0.327-0.276-0.096
					c0.011,0.231,0.107,0.434-0.09,0.428c-0.197-0.006-0.355,0.028-0.191,0.18c0.163,0.152,0.281,0.186,0.388,0.208
					c0.107,0.023,0.124,0.158,0.006,0.209c-0.118,0.051-0.231,0.017-0.332-0.029c-0.101-0.045-0.265,0.017-0.107,0.197
					c0.158,0.18,0.4,0.27,0.71,0.27c0.309,0,0.416,0.136,0.231,0.237c-0.186,0.101-0.321,0.112-0.524,0.078
					c-0.203-0.034-0.242,0.136,0.04,0.304c0.281,0.169,0.552,0.13,0.805,0.045c0.253-0.084,0.264,0.011,0.225,0.09
					c-0.04,0.078-0.022,0.191,0.203,0.124c0.225-0.067,0.451-0.147,0.72,0.045c0.27,0.192,0.569,0.468,0.907,0.642"/>
				<path fill="#058348" stroke="#000000" stroke-width="0.125" d="M32.453,39.822c-1.115-0.8-2.409-1.199-3.502-0.901
					c-0.248,0.067-0.416,0.147-0.563-0.102c-0.147-0.248-0.22-0.146-0.281-0.067c-0.062,0.079-0.237,0.079-0.383-0.18
					c-0.147-0.259-0.27-0.343-0.451-0.326c-0.18,0.017-0.242,0.112-0.146,0.281c0.096,0.169,0.006,0.298-0.146,0.141
					c-0.152-0.158-0.366-0.372-0.541-0.366c-0.174,0.006-0.344,0.029-0.231,0.197c0.112,0.169,0.112,0.35-0.09,0.192
					c-0.203-0.158-0.349-0.236-0.541-0.209c-0.276,0.04-0.079,0.287-0.321,0.355c-0.134,0.038-0.31,0.125-0.377,0.209
					c-0.067,0.084-0.073,0.309,0.473,0.225c0.546-0.084,0.568-0.056,0.523,0.113c-0.045,0.169-0.047,0.369,0.265,0.298
					c0.394-0.09,0.602-0.388,0.749-0.248c0.089,0.086-0.019,0.213-0.101,0.298c-0.135,0.141,0.175,0.263,0.355,0.124
					c0.175-0.135,0.389-0.377,0.512-0.332c0.124,0.045,0.005,0.203-0.04,0.293c-0.045,0.09,0,0.281,0.22,0.174
					c0.219-0.107,0.355-0.761,1.03-0.671c0.197-0.366,1.785-0.557,3.091,0.524c0.09,0.09,0.197,0.09,0.321,0.079
					C32.403,39.912,32.577,39.918,32.453,39.822z"/>
			</g>
		</g>
		<g>
			<g>
				<path fill="#0699D6" stroke="#000000" stroke-width="0.125" d="M30.756,39.893c0.286,0.216,0.645,0.407,0.718,0.65
					c-0.074,0.053-0.147,0.126-0.214,0.225c-0.177-0.216-0.476-0.399-0.72-0.628C30.598,40.081,30.724,39.956,30.756,39.893z"/>
				<path fill="#0699D6" stroke="#000000" stroke-width="0.125" d="M29.997,39.487c-0.301,0.29-0.936,0.427-1.079,0.999
					c0.114-0.041,0.256-0.075,0.401-0.057c0.038-0.287,0.694-0.618,0.945-0.857C30.173,39.563,30.057,39.536,29.997,39.487z"/>
				<path fill="#0699D6" stroke="#000000" stroke-width="0.125" d="M30.239,39.572c-0.257-0.034-0.376-0.145-0.376-0.493
					c0-0.373,0.058-0.451,0.389-0.468c0.118-0.005,0.104,0.24,0.104,0.457C30.356,39.284,30.392,39.6,30.239,39.572z"/>
			</g>
			<g>
				<path fill="#E62532" stroke="#000000" stroke-width="0.125" d="M31.07,39.476c0.297,0.298,0.946,0.43,1.091,1.01
					c-0.114-0.041-0.256-0.075-0.401-0.057c-0.035-0.264-0.589-0.564-0.874-0.795c0.009-0.026,0.012-0.054,0.02-0.08
					C30.948,39.543,31.019,39.523,31.07,39.476z"/>
				<path fill="#E62532" stroke="#000000" stroke-width="0.125" d="M30.907,39.555c-0.132,0.576-0.787,0.845-1.089,1.213
					c-0.067-0.099-0.14-0.172-0.214-0.225c0.106-0.35,0.802-0.591,1.023-0.956C30.705,39.583,30.873,39.569,30.907,39.555z"/>
				<path fill="#E62532" stroke="#000000" stroke-width="0.125" d="M30.697,39.582c0.342-0.016,0.495-0.105,0.495-0.503
					c0-0.406-0.068-0.463-0.484-0.471c0.118-0.006,0.104,0.243,0.104,0.46C30.812,39.284,30.849,39.611,30.697,39.582z"/>
			</g>
			<g>
				<path fill="#FFFFFF" stroke="#000000" stroke-width="0.125" d="M30.629,39.584c-0.22,0.367-0.918,0.608-1.025,0.959
					c-0.094-0.066-0.19-0.102-0.286-0.114c0.039-0.288,0.697-0.62,0.946-0.858C30.342,39.588,30.576,39.589,30.629,39.584z"/>
				<path fill="#FFFFFF" stroke="#000000" stroke-width="0.125" d="M30.756,39.893c0.286,0.216,0.645,0.407,0.718,0.65
					c0.095-0.066,0.19-0.102,0.286-0.114c-0.035-0.264-0.589-0.564-0.875-0.796C30.863,39.698,30.792,39.855,30.756,39.893z"/>
				<path fill="#FFFFFF" stroke="#000000" stroke-width="0.125" d="M30.697,39.582c0.152,0.029,0.115-0.298,0.115-0.514
					c0-0.217,0.014-0.466-0.104-0.46c-0.054-0.001-0.114-0.002-0.18-0.002c-0.108,0-0.199,0.001-0.275,0.005
					c0.118-0.005,0.104,0.24,0.104,0.457c0,0.216,0.035,0.532-0.117,0.504c0.082,0.01,0.177,0.014,0.289,0.014
					C30.589,39.586,30.645,39.585,30.697,39.582z"/>
			</g>
		</g>
		<g>
			<g>
				<path fill="#E62532" stroke="#000000" stroke-width="0.125" d="M23.22,31.093c-0.193,0.193-0.563-0.012-0.72-0.169
					c-0.158-0.158-0.326-0.44-0.011-0.744c0.247-0.237,0.552-0.101,0.743,0.203C23.423,30.687,23.39,30.923,23.22,31.093z"/>
				<path fill="#E62532" stroke="#000000" stroke-width="0.125" d="M22.101,30.32c-0.194-0.153-0.194-0.254-0.076-0.368
					c0.118-0.114,0.221-0.1,0.345,0.042c0.158,0.182,0.171,0.321,0.1,0.394C22.399,30.46,22.292,30.469,22.101,30.32z"/>
				<path fill="#E62532" stroke="#000000" stroke-width="0.125" d="M22.087,30.517c-0.187-0.051-0.218-0.123-0.167-0.242
					c0.05-0.118,0.125-0.105,0.257-0.04c0.169,0.083,0.226,0.144,0.196,0.218C22.344,30.528,22.27,30.567,22.087,30.517z"/>
				<path fill="#E62532" stroke="#000000" stroke-width="0.125" d="M22.663,29.831c0-0.248,0.045-0.322,0.237-0.305
					c0.163,0.015,0.21,0.119,0.174,0.305c-0.045,0.236-0.09,0.338-0.231,0.332C22.741,30.158,22.663,30.073,22.663,29.831z"/>
				
					<rect x="21.97" y="29.405" transform="matrix(-0.4993 -0.8664 0.8664 -0.4993 7.8191 63.464)" fill="#E62532" stroke="#000000" stroke-width="0.125" width="0.552" height="0.136"/>
				<path fill="#E62532" stroke="#000000" stroke-width="0.125" d="M22.061,28.922c-0.243,0-0.246,0.385,0,0.385
					C22.3,29.307,22.316,28.922,22.061,28.922z"/>
				<path fill="#E62532" stroke="#000000" stroke-width="0.125" d="M22.342,30.087c-0.156-0.225-0.127-0.334,0.025-0.424
					c0.152-0.089,0.266-0.041,0.352,0.151c0.111,0.245,0.073,0.4-0.02,0.458C22.606,30.329,22.494,30.307,22.342,30.087z"/>
			</g>
			<g>
				<line fill="none" stroke="#000000" stroke-width="0.125" x1="22.714" y1="31.971" x2="22.466" y2="31.859"/>
				<line fill="none" stroke="#000000" stroke-width="0.125" x1="23.896" y1="30.742" x2="23.93" y2="31.081"/>
				<line fill="none" stroke="#000000" stroke-width="0.125" x1="24.73" y1="32.039" x2="24.977" y2="31.768"/>
				<line fill="none" stroke="#000000" stroke-width="0.125" x1="23.738" y1="33.334" x2="24.234" y2="33.142"/>
				<line fill="none" stroke="#000000" stroke-width="0.125" x1="22.984" y1="32.883" x2="23.401" y2="32.794"/>
				<line fill="none" stroke="#000000" stroke-width="0.125" x1="23.288" y1="32.704" x2="22.883" y2="32.715"/>
				<line fill="none" stroke="#000000" stroke-width="0.125" x1="25.54" y1="32.388" x2="25.405" y2="32.163"/>
				<line fill="none" stroke="#000000" stroke-width="0.125" x1="24.741" y1="33.92" x2="25.09" y2="33.841"/>
				<line fill="none" stroke="#000000" stroke-width="0.125" x1="25.754" y1="34.303" x2="26.002" y2="34.111"/>
				<line fill="none" stroke="#000000" stroke-width="0.125" x1="25.934" y1="34.393" x2="26.182" y2="34.145"/>
				<line fill="none" stroke="#000000" stroke-width="0.125" x1="27.938" y1="35.001" x2="28.22" y2="34.731"/>
				<line fill="none" stroke="#000000" stroke-width="0.125" x1="28.985" y1="35.192" x2="29.301" y2="34.866"/>
				<line fill="none" stroke="#000000" stroke-width="0.125" x1="28.152" y1="33.075" x2="27.702" y2="32.849"/>
				<line fill="none" stroke="#000000" stroke-width="0.125" x1="28.366" y1="32.501" x2="28.625" y2="32.929"/>
				<line fill="none" stroke="#000000" stroke-width="0.125" x1="28.569" y1="32.478" x2="28.726" y2="32.906"/>
				<line fill="none" stroke="#000000" stroke-width="0.125" x1="29.593" y1="32.669" x2="29.639" y2="33.075"/>
				<line fill="none" stroke="#000000" stroke-width="0.125" x1="29.852" y1="32.692" x2="29.841" y2="33.109"/>
				<line fill="none" stroke="#000000" stroke-width="0.125" x1="29.92" y1="35.057" x2="30.033" y2="34.798"/>
				<line fill="none" stroke="#000000" stroke-width="0.125" x1="30.213" y1="34.764" x2="30.111" y2="35.148"/>
				<path fill="none" stroke="#000000" stroke-width="0.125" d="M34.311,35.204c0.011,0.112,0.101,0.281,0.169,0.349"/>
				<path fill="none" stroke="#000000" stroke-width="0.125" d="M35.246,33.92c-0.011-0.079,0.034-0.35,0.079-0.44"/>
				<line fill="none" stroke="#000000" stroke-width="0.125" x1="35.865" y1="33.559" x2="36.045" y2="33.153"/>
				<line fill="none" stroke="#000000" stroke-width="0.125" x1="35.921" y1="35.316" x2="36.315" y2="35.485"/>
				<line fill="none" stroke="#000000" stroke-width="0.125" x1="36.057" y1="35.249" x2="36.428" y2="35.316"/>
				<line fill="none" stroke="#000000" stroke-width="0.125" x1="36.811" y1="34.787" x2="37.261" y2="34.731"/>
				<line fill="none" stroke="#000000" stroke-width="0.125" x1="32.69" y1="35.226" x2="33.107" y2="35.474"/>
				<line fill="none" stroke="#000000" stroke-width="0.125" x1="32.836" y1="35.204" x2="33.343" y2="35.328"/>
			</g>
			<g>
				<path fill="#058348" stroke="#000000" stroke-width="0.125" d="M24.808,33.255c-1.148-0.045-2.072-0.654-2.139-1.374
					c-0.067-0.721,0.6-1.155,1.216-0.879c1.059,0.473,0.788,1.577,1.396,1.666L24.808,33.255z"/>
				<path fill="#058348" stroke="#000000" stroke-width="0.125" d="M27.781,33.458c-0.541-0.518-1.734-1.486-2.522-0.991
					c-0.788,0.495-0.536,1.077-0.315,1.329c0.315,0.361,1.734,0.586,2.724,0.27L27.781,33.458z"/>
				<path fill="#058348" stroke="#000000" stroke-width="0.125" d="M31.609,33.751c-1.577-0.631-2.657-1.217-3.536-0.698
					c-0.878,0.518-0.563,1.284-0.045,1.644c0.518,0.361,2.117,0.203,2.815,0.023C31.541,34.539,31.722,34.201,31.609,33.751z"/>
				<path fill="#058348" stroke="#000000" stroke-width="0.125" d="M34.041,34.517c0.856,0.034,0.816-0.224,1.047-0.529
					c0.248-0.327,0.914-0.74,1.43-0.327c0.563,0.451,0.675,1.059,0,1.43c-0.675,0.372-1.137,0.473-1.835,0.259
					c-0.698-0.214-1.104-0.349-1.25-0.372C33.782,34.843,33.951,34.686,34.041,34.517z"/>
				<path fill="#058348" stroke="#000000" stroke-width="0.125" d="M31.767,36.319c0.067-1.644,2.522-0.653,2.342-2.253
					c-0.081-0.719-1.374-0.63-2.41-0.383c-1.035,0.248-1.103,1.374-1.148,2.681c0,0.09,0.203,0.09,0.608,0.09
					C31.564,36.454,31.778,36.476,31.767,36.319z"/>
			</g>
			<g>
				<path fill="#E62532" stroke="#000000" stroke-width="0.125" d="M36.777,33.548c-0.315,0.192-0.394,0.428-0.304,0.608
					c0.09,0.18,0.473,0.136,0.72-0.011c0.248-0.147,0.394-0.44,0.282-0.619C37.363,33.345,37.036,33.39,36.777,33.548z"/>
				
					<rect x="37.723" y="32.979" transform="matrix(0.6936 -0.7203 0.7203 0.6936 -12.1628 37.4977)" fill="#E62532" stroke="#000000" stroke-width="0.125" width="0.552" height="0.137"/>
				<path fill="#E62532" stroke="#000000" stroke-width="0.125" d="M38.477,32.716c-0.067-0.234-0.438-0.13-0.37,0.106
					C38.174,33.052,38.548,32.961,38.477,32.716z"/>
				<path fill="#E62532" stroke="#000000" stroke-width="0.125" d="M37.183,33.103c0.129-0.214,0.209-0.288,0.371-0.185
					c0.139,0.087,0.11,0.224-0.006,0.372c-0.148,0.191-0.234,0.26-0.357,0.191C37.103,33.431,37.057,33.31,37.183,33.103z"/>
				<path fill="#E62532" stroke="#000000" stroke-width="0.125" d="M37.696,33.523c0.247-0.039,0.355-0.026,0.381,0.165
					c0.023,0.162-0.1,0.229-0.289,0.236c-0.241,0.009-0.349-0.012-0.375-0.15C37.394,33.673,37.457,33.56,37.696,33.523z"/>
				<path fill="#E62532" stroke="#000000" stroke-width="0.125" d="M37.484,33.241c0.194-0.195,0.304-0.185,0.414-0.028
					c0.094,0.134,0.045,0.267-0.149,0.342c-0.224,0.087-0.316,0.149-0.402,0.038C37.283,33.513,37.312,33.412,37.484,33.241z"/>
			</g>
			<g>
				<path fill="#559334" stroke="#AAC457" stroke-width="0.0625" d="M23.33,31.527c-0.218,0.109-0.113,0.317,0.104,0.208
					C23.652,31.626,23.551,31.416,23.33,31.527z"/>
				<path fill="#559334" stroke="#AAC457" stroke-width="0.0625" d="M23.937,31.464c-0.234,0.066-0.171,0.289,0.063,0.224
					C24.234,31.621,24.174,31.396,23.937,31.464z"/>
				<path fill="#559334" stroke="#AAC457" stroke-width="0.0625" d="M23.142,32.093c-0.031,0.242,0.199,0.271,0.231,0.03
					C23.404,31.882,23.174,31.848,23.142,32.093z"/>
				<path fill="#559334" stroke="#AAC457" stroke-width="0.0625" d="M23.716,32.084c-0.132,0.167-0.002,0.272,0.129,0.105
					C23.976,32.022,23.849,31.914,23.716,32.084z"/>
				<path fill="#559334" stroke="#AAC457" stroke-width="0.0625" d="M24.421,31.936c-0.239,0.047-0.194,0.275,0.045,0.229
					C24.705,32.117,24.663,31.889,24.421,31.936z"/>
				<path fill="#559334" stroke="#AAC457" stroke-width="0.0625" d="M24.331,32.62c-0.151,0.174-0.022,0.325,0.129,0.151
					C24.612,32.597,24.484,32.443,24.331,32.62z"/>
				<path fill="#559334" stroke="#AAC457" stroke-width="0.0625" d="M23.74,32.633c-0.123,0.21,0.078,0.328,0.201,0.118
					C24.063,32.541,23.864,32.421,23.74,32.633z"/>
				<path fill="#559334" stroke="#AAC457" stroke-width="0.0625" d="M25.272,33.059c-0.123,0.21,0.078,0.328,0.201,0.117
					C25.595,32.967,25.397,32.846,25.272,33.059z"/>
				<path fill="#559334" stroke="#AAC457" stroke-width="0.0625" d="M25.725,32.701c-0.157,0.186,0.02,0.336,0.177,0.151
					C26.06,32.666,25.885,32.513,25.725,32.701z"/>
				<path fill="#559334" stroke="#AAC457" stroke-width="0.0625" d="M25.452,33.636c-0.003,0.243,0.229,0.246,0.232,0.003
					C25.687,33.395,25.455,33.389,25.452,33.636z"/>
				<path fill="#559334" stroke="#AAC457" stroke-width="0.0625" d="M26.041,33.425c-0.081,0.229,0.138,0.306,0.219,0.077
					S26.124,33.192,26.041,33.425z"/>
				<path fill="#559334" stroke="#AAC457" stroke-width="0.0625" d="M26.874,33.572c-0.081,0.229,0.138,0.307,0.219,0.078
					C27.175,33.42,26.957,33.339,26.874,33.572z"/>
				<path fill="#559334" stroke="#AAC457" stroke-width="0.0625" d="M26.417,33.916c-0.004,0.243,0.229,0.247,0.232,0.004
					C26.653,33.676,26.42,33.669,26.417,33.916z"/>
				<path fill="#559334" stroke="#AAC457" stroke-width="0.0625" d="M28.222,33.701c-0.123,0.21,0.078,0.328,0.201,0.117
					C28.546,33.609,28.346,33.488,28.222,33.701z"/>
				<path fill="#559334" stroke="#AAC457" stroke-width="0.0625" d="M28.462,34.391c0.063,0.235,0.288,0.175,0.225-0.06
					C28.624,34.096,28.398,34.153,28.462,34.391z"/>
				<path fill="#559334" stroke="#AAC457" stroke-width="0.0625" d="M28.773,33.217c-0.123,0.21,0.078,0.328,0.201,0.117
					C29.097,33.124,28.898,33.003,28.773,33.217z"/>
				<path fill="#559334" stroke="#AAC457" stroke-width="0.0625" d="M29.173,33.804c-0.163,0.181,0.01,0.336,0.173,0.155
					C29.508,33.778,29.338,33.62,29.173,33.804z"/>
				<path fill="#559334" stroke="#AAC457" stroke-width="0.0625" d="M29.747,33.359c-0.163,0.182,0.011,0.336,0.173,0.155
					C30.082,33.333,29.912,33.175,29.747,33.359z"/>
				<path fill="#559334" stroke="#AAC457" stroke-width="0.0625" d="M29.461,34.524c0.102,0.221,0.313,0.124,0.211-0.097
					C29.57,34.206,29.358,34.3,29.461,34.524z"/>
				<path fill="#559334" stroke="#AAC457" stroke-width="0.0625" d="M29.997,34.02c-0.085,0.228,0.132,0.309,0.218,0.081
					C30.3,33.874,30.084,33.79,29.997,34.02z"/>
				<path fill="#559334" stroke="#AAC457" stroke-width="0.0625" d="M31.485,35.362c-0.211-0.121-0.36,0.114-0.149,0.235
					C31.547,35.718,31.699,35.484,31.485,35.362z"/>
				<path fill="#559334" stroke="#AAC457" stroke-width="0.0625" d="M31.102,34.686c-0.211-0.121-0.36,0.114-0.149,0.235
					C31.164,35.042,31.316,34.808,31.102,34.686z"/>
				<path fill="#559334" stroke="#AAC457" stroke-width="0.0625" d="M32.431,34.607c-0.211-0.121-0.395,0.137-0.184,0.258
					C32.459,34.986,32.645,34.73,32.431,34.607z"/>
				<path fill="#559334" stroke="#AAC457" stroke-width="0.0625" d="M32.677,33.9c-0.23-0.078-0.305,0.141-0.075,0.22
					C32.833,34.198,32.911,33.979,32.677,33.9z"/>
				<path fill="#559334" stroke="#AAC457" stroke-width="0.0625" d="M31.7,34.561c-0.182-0.089-0.241,0.161-0.059,0.248
					C31.822,34.898,31.884,34.651,31.7,34.561z"/>
				<path fill="#559334" stroke="#AAC457" stroke-width="0.0625" d="M33.116,34.767c-0.23-0.078-0.305,0.142-0.075,0.221
					C33.272,35.065,33.35,34.846,33.116,34.767z"/>
				<path fill="#559334" stroke="#AAC457" stroke-width="0.0625" d="M33.478,34.111c-0.23-0.078-0.329,0.167-0.099,0.245
					C33.61,34.435,33.712,34.19,33.478,34.111z"/>
				<path fill="#559334" stroke="#AAC457" stroke-width="0.0625" d="M34.509,34.793c-0.16-0.184-0.335-0.031-0.176,0.152
					C34.493,35.129,34.671,34.979,34.509,34.793z"/>
				<path fill="#559334" stroke="#AAC457" stroke-width="0.0625" d="M35.367,34.693c-0.207-0.128-0.35,0.111-0.143,0.24
					C35.43,35.062,35.576,34.824,35.367,34.693z"/>
				<path fill="#559334" stroke="#AAC457" stroke-width="0.0625" d="M35.986,34.84c-0.207-0.129-0.349,0.111-0.143,0.24
					C36.049,35.208,36.195,34.97,35.986,34.84z"/>
				<path fill="#559334" stroke="#AAC457" stroke-width="0.0625" d="M35.625,33.894c-0.206-0.129-0.372,0.122-0.166,0.251
					C35.666,34.274,35.835,34.024,35.625,33.894z"/>
				<path fill="#559334" stroke="#AAC457" stroke-width="0.0625" d="M36.098,34.175c-0.207-0.128-0.372,0.123-0.166,0.251
					C36.139,34.555,36.308,34.306,36.098,34.175z"/>
			</g>
			<g>
				<path fill="#E62532" stroke="#000000" stroke-width="0.125" d="M26.429,32.169c-0.332,0.225-0.428,0.67-0.242,0.951
					c0.186,0.282,0.501,0.203,0.675,0c0.175-0.202,0.141-0.687,0.045-0.856L26.429,32.169z"/>
				<path fill="#E62532" stroke="#000000" stroke-width="0.125" d="M26.812,31.479c-0.242,0-0.246,0.385,0,0.385
					C27.052,31.864,27.068,31.479,26.812,31.479z"/>
				<path fill="#E62532" stroke="#000000" stroke-width="0.125" d="M26.559,31.634c-0.256,0-0.259,0.406,0,0.406
					C26.812,32.04,26.829,31.634,26.559,31.634z"/>
				<path fill="#E62532" stroke="#000000" stroke-width="0.125" d="M26.954,31.718c-0.256,0-0.259,0.406,0,0.406
					C27.206,32.124,27.223,31.718,26.954,31.718z"/>
				<path fill="#E62532" stroke="#000000" stroke-width="0.125" d="M26.795,32.281c0.124,0.191,0.495,0.073,0.501-0.259
					c-0.079,0.034-0.315,0.101-0.451,0.022L26.795,32.281z"/>
				<path fill="#E62532" stroke="#000000" stroke-width="0.125" d="M26.61,32.027c-0.141-0.022-0.287-0.084-0.326-0.248
					c-0.226,0.226,0.011,0.608,0.332,0.468L26.61,32.027z"/>
				<path fill="#E62532" stroke="#000000" stroke-width="0.125" d="M26.643,32.354c-0.141-0.045-0.143-0.252-0.124-0.344
					c0.045-0.214,0.479-0.101,0.422,0.141C26.898,32.339,26.777,32.397,26.643,32.354z"/>
			</g>
			<g>
				<line fill="none" stroke="#000000" stroke-width="0.125" x1="23.243" y1="32.1" x2="22.973" y2="31.954"/>
				<line fill="none" stroke="#000000" stroke-width="0.125" x1="23.153" y1="31.363" x2="23.356" y2="31.645"/>
				<line fill="none" stroke="#000000" stroke-width="0.125" x1="23.919" y1="31.244" x2="23.941" y2="31.577"/>
				<line fill="none" stroke="#000000" stroke-width="0.125" x1="23.761" y1="32.117" x2="23.553" y2="31.932"/>
				<line fill="none" stroke="#000000" stroke-width="0.125" x1="23.812" y1="32.698" x2="23.53" y2="32.528"/>
				<line fill="none" stroke="#000000" stroke-width="0.125" x1="24.363" y1="32.681" x2="24.116" y2="32.455"/>
				<line fill="none" stroke="#000000" stroke-width="0.125" x1="24.431" y1="32.005" x2="24.352" y2="31.678"/>
				<line fill="none" stroke="#000000" stroke-width="0.125" x1="23.412" y1="31.599" x2="23.39" y2="31.284"/>
				<line fill="none" stroke="#000000" stroke-width="0.125" x1="25.36" y1="33.12" x2="25.078" y2="32.985"/>
				<line fill="none" stroke="#000000" stroke-width="0.125" x1="25.585" y1="32.591" x2="25.776" y2="32.771"/>
				<line fill="none" stroke="#000000" stroke-width="0.125" x1="25.338" y1="33.694" x2="25.562" y2="33.661"/>
				<line fill="none" stroke="#000000" stroke-width="0.125" x1="25.574" y1="33.593" x2="25.27" y2="33.48"/>
				<line fill="none" stroke="#000000" stroke-width="0.125" x1="25.844" y1="33.48" x2="26.103" y2="33.491"/>
				<line fill="none" stroke="#000000" stroke-width="0.125" x1="26.137" y1="33.436" x2="25.878" y2="33.222"/>
				<line fill="none" stroke="#000000" stroke-width="0.125" x1="26.677" y1="33.537" x2="27.037" y2="33.57"/>
				<line fill="none" stroke="#000000" stroke-width="0.125" x1="26.497" y1="33.897" x2="26.16" y2="33.897"/>
				<line fill="none" stroke="#000000" stroke-width="0.125" x1="27.961" y1="33.773" x2="28.265" y2="33.807"/>
				<line fill="none" stroke="#000000" stroke-width="0.125" x1="28.332" y1="33.683" x2="28.073" y2="33.48"/>
				<line fill="none" stroke="#000000" stroke-width="0.125" x1="28.591" y1="33.153" x2="28.85" y2="33.255"/>
				<line fill="none" stroke="#000000" stroke-width="0.125" x1="29.548" y1="33.289" x2="29.796" y2="33.424"/>
				<line fill="none" stroke="#000000" stroke-width="0.125" x1="28.862" y1="33.841" x2="29.166" y2="33.931"/>
				<line fill="none" stroke="#000000" stroke-width="0.125" x1="29.256" y1="33.818" x2="29.042" y2="33.604"/>
				<line fill="none" stroke="#000000" stroke-width="0.125" x1="29.729" y1="33.965" x2="30.089" y2="34.044"/>
				<line fill="none" stroke="#000000" stroke-width="0.125" x1="29.267" y1="34.573" x2="29.56" y2="34.483"/>
				<line fill="none" stroke="#000000" stroke-width="0.125" x1="31.012" y1="34.798" x2="30.978" y2="34.472"/>
				<line fill="none" stroke="#000000" stroke-width="0.125" x1="31.406" y1="35.474" x2="31.406" y2="35.125"/>
				<line fill="none" stroke="#000000" stroke-width="0.125" x1="31.778" y1="35.294" x2="31.474" y2="35.474"/>
				<line fill="none" stroke="#000000" stroke-width="0.125" x1="32.33" y1="34.72" x2="32.363" y2="34.393"/>
				<line fill="none" stroke="#000000" stroke-width="0.125" x1="32.419" y1="34.731" x2="32.803" y2="34.528"/>
				<line fill="none" stroke="#000000" stroke-width="0.125" x1="33.129" y1="34.877" x2="33.365" y2="34.731"/>
				<line fill="none" stroke="#000000" stroke-width="0.125" x1="33.456" y1="34.224" x2="33.658" y2="33.987"/>
				<line fill="none" stroke="#000000" stroke-width="0.125" x1="32.656" y1="34.021" x2="32.87" y2="33.74"/>
				<line fill="none" stroke="#000000" stroke-width="0.125" x1="34.446" y1="34.866" x2="34.649" y2="34.629"/>
				<line fill="none" stroke="#000000" stroke-width="0.125" x1="35.325" y1="34.438" x2="35.235" y2="34.776"/>
				<line fill="none" stroke="#000000" stroke-width="0.125" x1="35.302" y1="34.821" x2="35.527" y2="34.629"/>
				<line fill="none" stroke="#000000" stroke-width="0.125" x1="35.899" y1="34.945" x2="36.147" y2="34.72"/>
				<line fill="none" stroke="#000000" stroke-width="0.125" x1="35.989" y1="34.314" x2="36.191" y2="34.078"/>
				<line fill="none" stroke="#000000" stroke-width="0.125" x1="35.561" y1="34.032" x2="35.685" y2="33.672"/>
			</g>
		</g>
		<g>
			<g>
				<g>
					<path fill="#AD621A" stroke="#000000" stroke-width="0.125" d="M26.182,23.478c-0.2-0.144-0.156-0.329,0.203-0.586
						c0.276-0.197,0.58-0.535,0.568-0.772c-0.012-0.262,0.064-0.278,0.136-0.023c0.056,0.204,0.064,0.38,0.025,0.508
						c0.158-0.225,0.223-0.66,0.217-0.829c-0.006-0.169,0.118-0.338,0.169-0.045c0.051,0.292,0.05,0.394,0.033,0.518
						c0.093-0.049,0.182-0.087,0.28-0.136c0.053-0.183,0.087-0.361,0.092-0.49c0.011-0.287,0.101-0.428,0.147-0.186
						c0.026,0.138,0.043,0.325,0.045,0.513c0.119-0.084,0.215-0.183,0.27-0.31c0.096-0.22,0.163-0.43,0.22-0.017
						c0.009,0.067,0.01,0.153-0.003,0.254c0.473-0.27,1.134,0.259,1.483,0.18c0.349-0.078,0.315,0,0.203,0.102
						c-0.044,0.04-0.117,0.089-0.203,0.132c0.411,0.122,0.66,0.445,0.863,0.781c0.18-0.721-0.345-1.24-0.818-1.296
						c-0.473-0.056-1.024-0.126-0.743-0.687c0.147-0.292,0.313-0.518,0.865-0.529c0.101-0.254,0.444-0.379,1.162-0.327
						c0.923,0.068,1.858,0.248,2.668,0.698c0.811,0.451,1.306,0.698,1.757,0.496c-0.034,0.155-0.109,0.301-0.212,0.424
						c1.374,0.856,2.424,2.037,2.779,3.18c0.203,0.653,0.36,1.329,0.924,1.42c-0.081,0.07-0.189,0.117-0.315,0.138
						c0.214,0.743,0.191,1.968,0.011,2.633c-0.18,0.664,0,1.837-0.237,2.624c-0.22,0.733-0.27,0.237-0.27-0.101
						c0-0.924-0.203-1.217-0.191-3.166c0.001-0.267-0.147-0.509-0.306-0.728c-0.101,1.228,0.374,1.957,0.081,3.703
						c-0.085,0.506-0.237,0.067-0.27-0.698c-0.034-0.767-0.282-1.194-0.372-1.893c-0.034-0.262-0.118-0.479-0.222-0.676
						c0.011,0.733,0.279,2.14,0.2,2.884c-0.055,0.517-0.225,0.102-0.225-0.169c0-0.79-0.326-1.217-0.416-1.927
						c-0.025-0.197-0.162-0.49-0.375-0.819c0.136,0.552,0.218,1.214,0.229,1.529c0.011,0.315-0.034,0.473-0.158,0.27
						c-0.124-0.203-0.248-0.586-0.293-1.07c-0.045-0.484-0.386-0.732-0.656-1.003c0.192,0.361,0.392,0.94,0.476,1.318
						c0.077,0.344-0.023,0.405-0.09,0.27c-0.067-0.135-0.281-0.507-0.394-0.856c-0.113-0.35-0.383-0.665-0.687-0.789
						c-0.304-0.124-0.315-0.113-0.653-0.462c0.338,0.383,0.709,0.901,0.901,1.295c0.192,0.394,0.135,0.462-0.045,0.304
						c-0.18-0.158-0.248-0.259-0.416-0.54c-0.359-0.598-0.428-0.462-0.653-0.518c-0.225-0.056-0.45-0.137-0.754-0.52
						c-0.046,0.064-0.119,0.117-0.212,0.144c0.305,0.552,0.45,1.134,0.481,1.681c0.788,0.586,2.703,1.825,3.874,2.637
						c0.547,0.379,0.113,0.547-0.304,0.563c-0.304,0.012-0.443,0.009-0.563-0.067c-0.079,0.27-0.608,0.473-0.935,0.225
						c-0.147,0.226-0.521,0.306-0.844,0.012c-0.18,0.18-0.428,0.147-0.597-0.012c-0.169-0.158-0.259-0.225-0.755-0.698
						c0.034,0.586-0.169,0.259-0.248,0.045c-0.034,0.631-0.177,0.51-0.301,0.296c-0.099,0.509-0.33,0.537-0.476,0.301
						c-0.058-0.094-0.124-0.202-0.203-0.333c-0.101,0.608-0.316,0.434-0.417,0.231c-0.101-0.202-0.238-0.384-0.497-0.756
						c-0.098,0.114-0.234-0.071-0.483-0.438c-0.055-0.08-0.127-0.175-0.212-0.287c-0.073,0.787-0.296,0.723-0.486,0.472
						c-0.214,0.102-0.62,0.289-1.003,0.322c-0.408,0.036-0.425-0.14-0.275-0.354c-0.518-0.068-0.975-0.176-0.986-0.367
						c-0.011-0.191,0.657-0.574,1.041-0.822c-0.341-0.278-0.492-0.584-0.433-0.643c0.079-0.078,0.338,0.012,0.574,0.136
						c-0.326-0.383-0.731-1.071-0.641-1.296c-0.08-0.084-0.158-0.17-0.237-0.251c-0.137,0.087-0.322,0.118-0.282-0.109
						c0.045-0.259-0.292-0.8-0.315-1.228c-0.023-0.428,0.281-0.632,0.405-1.06c-0.1-0.019-0.126-0.095-0.101-0.202
						c0.05-0.209,0.388-0.495,0.495-0.827c-0.149,0.003-0.179-0.01-0.078-0.136c0.112-0.141,0.19-0.356,0.229-0.547
						c-0.078,0.052-0.106,0.025-0.106-0.055c0-0.141-0.087-0.18-0.18-0.203C27.927,23.81,26.542,23.737,26.182,23.478z"/>
				</g>
				<g>
					<path fill="none" stroke="#000000" stroke-width="0.125" d="M27.325,22.842c0.276-0.125,0.456-0.248,0.625-0.389
						s0.433-0.338,0.428,0c-0.006,0.338-0.433,0.614-0.867,0.659"/>
					<path fill="none" stroke="#000000" stroke-width="0.125" d="M28.552,22.047c0.445,0,1.002,0.265,1.165,0.439
						c0.163,0.175,0.192,0.383-0.259,0.35"/>
					<path fill="none" stroke="#000000" stroke-width="0.125" d="M28.417,22.346c0.411,0.13,0.777,0.316,0.991,0.49
						c0.214,0.174,0.191,0.338-0.231,0.242c-0.422-0.095-0.67-0.214-0.901-0.349"/>
					<path fill="none" stroke="#000000" stroke-width="0.125" d="M29.931,22.351c0.586,0.541,0.844,0.991,0.934,1.307
						c0.09,0.315,0.034,0.766-0.067,0.631c-0.084-0.113-0.253-0.169-0.422-0.192"/>
					<path fill="none" stroke="#000000" stroke-width="0.125" d="M29.819,22.757c0.371,0.338,0.619,1.036,0.529,1.554
						c-0.09,0.518-0.281,0.226-0.45,0.068c-0.169-0.158-0.586-0.62-0.54-1.262"/>
					<path fill="none" stroke="#000000" stroke-width="0.125" d="M27.814,23.196c0.371-0.124,0.968-0.079,0.901,0.169
						c-0.068,0.248-0.608-0.045-0.856,0"/>
					<path fill="none" stroke="#000000" stroke-width="0.125" d="M28.648,22.926c-0.022,0.067-0.045,0.169-0.169,0.225"/>
					<path fill="none" stroke="#000000" stroke-width="0.125" d="M28.625,23.478c0.157,0.281,0.518,0.439,0.743,0"/>
					<path fill="none" stroke="#000000" stroke-width="0.125" d="M29.244,26.293c-0.124,0.575-0.124,1.172,0.281,1.521
						c0.405,0.35,0.507,0.372,0.631,0.169c0.124-0.203,0.18-0.541,0.09-0.923c-0.09-0.383-0.135-0.698-0.023-1.014"/>
					<path fill="none" stroke="#000000" stroke-width="0.125" d="M29.323,27.544c-0.022,0.158-0.056,0.35-0.18,0.44
						c-0.124,0.09-0.192,0.078-0.226-0.101c-0.034-0.18-0.552-0.969-0.157-1.735"/>
					<path fill="none" stroke="#000000" stroke-width="0.125" d="M28.4,26.136c-0.518,0.98-0.011,1.217-0.022,1.543
						c-0.011,0.327,0.158,0.237,0.214,0.141c0.056-0.096,0.112-0.248,0.107-0.512"/>
					<path fill="none" stroke="#000000" stroke-width="0.125" d="M29.627,24.379c-0.45,0.72-0.574,1.329-0.496,1.678
						c0.079,0.349,0.338,0.484,0.53,0.27c0.191-0.215,0.27-0.383,0.349-0.564"/>
					<path fill="none" stroke="#000000" stroke-width="0.125" d="M30.044,24.728c-0.157,0.642-0.118,1.019,0.147,1.284
						c0.203,0.203,0.344,0.01,0.428-0.169c0.18-0.383,0.259-1.014,0.18-1.554"/>
					<path fill="none" stroke="#000000" stroke-width="0.125" d="M28.693,24.705c-0.157,0.473-0.259,0.935-0.293,1.16
						c-0.034,0.226,0.023,0.406,0.259,0.304c0.236-0.101,0.405-0.27,0.473-0.563"/>
					<path fill="none" stroke="#000000" stroke-width="0.125" d="M28.535,27.916c0.146,0.18,0.344,0.307,0.461,0.484
						c0.157,0.236,0.281-0.136,0.281-0.608"/>
					<path fill="none" stroke="#000000" stroke-width="0.125" d="M28.929,29.143c-0.023,0.304,0.034,0.98,0.146,1.194
						c0.112,0.214,0.338,0.553,0.63,0.09"/>
					<path fill="none" stroke="#000000" stroke-width="0.125" d="M30.742,25.46c-0.011,0.586,0.461,0.939,0.304,1.724
						c-0.067,0.338-0.203,0.563-0.766,0.101"/>
					<path fill="none" stroke="#000000" stroke-width="0.125" d="M30.787,25.19c-0.023,0.214,0.191,0.383,0.338,0.552
						c0.147,0.169,0.225,0.18,0.326-0.27c0.101-0.45,0.068-1.025-0.017-1.307"/>
					<path fill="none" stroke="#000000" stroke-width="0.125" d="M31.08,26.71c0.304,0.113,0.53,0.045,0.53-0.225
						c0-0.27-0.113-0.53-0.259-0.71"/>
					<path fill="none" stroke="#000000" stroke-width="0.125" d="M26.447,23.342c-0.012,0.108,0.197,0.113,0.355,0.085
						c0.157-0.029,0.355-0.169,0.377-0.338c0.022-0.169-0.034-0.333-0.169-0.327"/>
					<path fill="none" stroke="#000000" stroke-width="0.125" d="M26.565,23.163c0.028,0.09,0.327,0.231,0.456-0.169"/>
					<path fill="none" stroke="#000000" stroke-width="0.125" d="M26.661,23.061c-0.034,0.045,0.095,0.073,0.157,0.029
						c0.062-0.045,0.112-0.214,0.011-0.186"/>
					<path fill="none" stroke="#000000" stroke-width="0.125" d="M34.221,21.372c0.112,0.18,0.186,0.394,0.163,0.54
						c-0.023,0.147-0.118,0.226-0.265,0.056c-0.147-0.169-0.259-0.225-0.394-0.27"/>
					<path fill="none" stroke="#000000" stroke-width="0.125" d="M33.382,20.994c0.169,0.174,0.321,0.405,0.326,0.558
						c0.006,0.152-0.084,0.388-0.259,0.253c-0.175-0.135-0.259-0.242-0.383-0.326"/>
					<path fill="none" stroke="#000000" stroke-width="0.125" d="M32.673,20.927c0.203,0.174,0.338,0.332,0.389,0.518
						c0.051,0.185,0.09,0.377-0.253,0.242c-0.352-0.138-1.126-0.309-1.644-0.338"/>
					<path fill="none" stroke="#000000" stroke-width="0.125" d="M31.868,20.887c0.535,0.084,0.552,0.67,0.816,0.755"/>
					<path fill="none" stroke="#000000" stroke-width="0.125" d="M32.971,22.272c0.484,0.113,1.092,0.316,1.284,0.417
						c0.191,0.101,0.428,0.214,0.529,0.067c0.101-0.147,0.259-0.349,0.191-0.54"/>
					<path fill="none" stroke="#000000" stroke-width="0.125" d="M34.593,22.824c0.101,0.282,0.045,0.676-0.226,0.879"/>
					<path fill="none" stroke="#000000" stroke-width="0.125" d="M33.118,23.084c0.428-0.023,0.89,0.237,1.104,0.473
						c0.214,0.237,0.349,0.654-0.101,0.981"/>
					<path fill="none" stroke="#000000" stroke-width="0.125" d="M34.964,22.509c0.946,0.879,2.173,2.422,2.409,3.019
						c0.237,0.597,0.056,0.856-0.529,0.259c-0.586-0.597-1.768-2.039-2.207-2.58"/>
					<path fill="none" stroke="#000000" stroke-width="0.125" d="M34.356,24.289c0.552,0.642,1.295,1.61,1.655,1.88
						c0.36,0.27,0.631,0.451,0.563-0.653"/>
					<path fill="none" stroke="#000000" stroke-width="0.125" d="M34.007,25.043c0.507,0.518,1.182,1.216,1.531,1.43
						c0.349,0.214,0.54,0.316,0.473-0.304"/>
					<path fill="none" stroke="#000000" stroke-width="0.125" d="M31.924,26.113c0.315,0.428,0.698,0.958,0.833,1.104
						c0.135,0.147,0.124,0.372,0.101,0.54c-0.023,0.169-0.09,0.158-0.282,0.113"/>
					<path fill="none" stroke="#000000" stroke-width="0.125" d="M31.992,25.37c0.226,0.304,0.226,0.552-0.112,0.597"/>
					<path fill="none" stroke="#000000" stroke-width="0.125" d="M32.115,25.528c0.304-0.011,0.541-0.135,0.563-0.575"/>
					<path fill="none" stroke="#000000" stroke-width="0.125" d="M32.386,24.829c0.394,0.35,0.845-0.281,0.574-0.608"/>
					<path fill="none" stroke="#000000" stroke-width="0.125" d="M32.712,24.176c0.394,0.045,0.541-0.316,0.259-0.789"/>
					<path fill="none" stroke="#000000" stroke-width="0.125" d="M32.667,23.41c0.484,0.067,0.619-0.484,0.192-0.969"/>
					<path fill="none" stroke="#000000" stroke-width="0.125" d="M32.549,22.52c0.073-0.062,0.113-0.112,0.225-0.101
						c0.112,0.012,0.236-0.078,0.152-0.287c-0.084-0.208-0.135-0.355-0.118-0.445"/>
					<path fill="none" stroke="#000000" stroke-width="0.125" d="M29.56,21.349c0.282-0.079,0.664-0.225,0.934-0.067"/>
					<path fill="none" stroke="#000000" stroke-width="0.125" d="M30.46,21.687c0.203-0.078,0.541-0.124,0.788,0.011"/>
					<path fill="none" stroke="#000000" stroke-width="0.125" d="M31.159,22.115c0.147-0.09,0.72,0.012,0.822,0.394"/>
					<path fill="none" stroke="#000000" stroke-width="0.125" d="M31.406,22.723c0.18-0.101,0.642,0.067,0.687,0.338"/>
					<path fill="none" stroke="#000000" stroke-width="0.125" d="M31.463,23.365c0.383-0.011,0.732,0.293,0.687,0.597"/>
					<path fill="none" stroke="#000000" stroke-width="0.125" d="M28.299,28.006c0.27,0.338,1.238,1.34,1.565,1.666
						c0.169,0.169,0.237,0.203,0.304-0.158"/>
					<path fill="none" stroke="#000000" stroke-width="0.125" d="M29.188,28.422c0.36,0.406,0.935,1.104,1.34,1.329
						c0.405,0.225,0.338-0.034,0.338-0.541"/>
					<path fill="none" stroke="#000000" stroke-width="0.125" d="M30.156,27.983c0.191,0.462,0.597,1.171,1.002,1.464
						c0.405,0.293,0.435,0.056,0.405-0.315c-0.045-0.564-0.439-1.25-0.642-1.633"/>
					<path fill="none" stroke="#000000" stroke-width="0.125" d="M29.447,29.729c0.146,0.158,0.45,0.147,0.304-0.158"/>
					<path fill="none" stroke="#000000" stroke-width="0.125" d="M30.066,29.796c0.338,0.631,1.16,1.387,1.407,1.578
						c0.248,0.191,0.259,0.147,0.327-0.136"/>
					<path fill="none" stroke="#000000" stroke-width="0.125" d="M30.821,29.819c0.371,0.676,0.766,1.285,1.058,1.454
						c0.293,0.169,0.377,0.185,0.4-0.248"/>
					<path fill="none" stroke="#000000" stroke-width="0.125" d="M31.485,29.571c0.248,0.608,0.563,1.228,0.833,1.51
						c0.27,0.282,0.394,0.158,0.394-0.316"/>
					<path fill="none" stroke="#000000" stroke-width="0.125" d="M31.575,26.654c0.338,0.687,0.586,1.442,0.619,1.994
						c0.034,0.552-0.011,0.575-0.675,0.18"/>
					<path fill="none" stroke="#000000" stroke-width="0.125" d="M31.901,26.339c0.394,0.743,0.631,1.34,0.687,1.757
						c0.056,0.416,0.034,0.518-0.405,0.349"/>
					<path fill="none" stroke="#000000" stroke-width="0.125" d="M32.555,28.501c0.281,0.789,0.472,1.644,0.484,2.005
						c0.011,0.361-0.041,0.809-0.405,0.078c-0.09-0.18-0.372-0.991-0.507-1.487"/>
					<path fill="none" stroke="#000000" stroke-width="0.125" d="M32.859,27.848c0.27,0.721,0.484,1.42,0.495,2.072
						c0.011,0.654,0,1.139-0.304,0.62"/>
					<path fill="none" stroke="#000000" stroke-width="0.125" d="M32.577,26.631c0.496-0.27,0.529-0.754-0.203-1.148"/>
					<path fill="none" stroke="#000000" stroke-width="0.125" d="M32.949,26.046c0.563-0.225,0.923-0.676-0.101-1.171"/>
					<path fill="none" stroke="#000000" stroke-width="0.125" d="M33.456,25.325c0.371-0.023,0.608-0.282,0.597-0.564
						c-0.011-0.281-0.237-0.653-1.002-0.687"/>
					<path fill="none" stroke="#000000" stroke-width="0.125" d="M33.287,27.082c0.473,0.147,0.844,0.259,0.754-0.552"/>
					<path fill="none" stroke="#000000" stroke-width="0.125" d="M33.411,25.775c0.405,0.462,0.589,0.785,1.059,0.89
						c0.552,0.124,0.529,0.056,0.315-0.822"/>
					<path fill="none" stroke="#000000" stroke-width="0.125" d="M27.113,22.606c-0.023,0.077-0.064,0.136-0.121,0.174
						c-0.169,0.113-0.709,0.535-0.524,0.749"/>
					<path fill="none" stroke="#000000" stroke-width="0.125" d="M27.113,22.606c0.155-0.195,0.287-0.285,0.419-0.355"/>
					<path fill="none" stroke="#000000" stroke-width="0.125" d="M27.55,22.723c0.102-0.158,0.196-0.386,0.262-0.608"/>
					<path fill="none" stroke="#000000" stroke-width="0.125" d="M28.096,21.952c0.001,0.139-0.006,0.279-0.028,0.399"/>
					<path fill="none" stroke="#000000" stroke-width="0.125" d="M30.929,23.073c0.225,0.372,0.394,0.762,0.668,0.912
						c0.383,0.208-0.107,0.188-0.163,0.18c-0.163-0.022-0.428-0.152-0.552-0.411"/>
					<path fill="none" stroke="#000000" stroke-width="0.125" d="M30.066,22.292c-0.134,0.067-0.3,0.122-0.434,0.104"/>
					<path fill="none" stroke="#000000" stroke-width="0.125" d="M28.583,21.879c-0.02,0.143-0.07,0.313-0.183,0.495"/>
					<path fill="none" stroke="#000000" stroke-width="0.125" d="M34.356,22.014c0.42,0.369,0.952,0.201,1.252-0.161"/>
					<path fill="none" stroke="#000000" stroke-width="0.125" d="M35.524,27.983c-0.27-0.27-0.616-0.619-0.661-0.923"/>
					<path fill="none" stroke="#000000" stroke-width="0.125" d="M36.402,28.257c-0.116-0.18-0.257-0.371-0.413-0.566"/>
					<path fill="none" stroke="#000000" stroke-width="0.125" d="M37.219,28.287c-0.175-0.326-0.408-0.591-0.577-0.901"/>
					<path fill="none" stroke="#000000" stroke-width="0.125" d="M38.002,27.851c-0.169-0.233-0.352-0.443-0.381-0.634"/>
					<path fill="none" stroke="#000000" stroke-width="0.125" d="M38.996,26.589c-0.437,0.073-1.093-0.18-1.599-0.949"/>
					<path fill="none" stroke="#000000" stroke-width="0.125" d="M30.233,20.56c-0.029,0.073-0.039,0.155-0.032,0.248
						c0.034,0.417,0.282,0.473,0.709,0.71c0.909,0.503,0.99,0.372,1.193,1.666c0.149,0.952,0,1.195-0.585,1.735
						c0.135,0.732,0.236,0.924,0.349,1.104c0.113,0.18,0.124,0.383-0.236,0.372"/>
					<path fill="none" stroke="#000000" stroke-width="0.125" d="M33.208,27.486c0.174-0.246,0.024-0.708-0.349-1.047"/>
					<path fill="none" stroke="#000000" stroke-width="0.125" d="M32.864,27.415c0.046,0.072,0.091,0.143,0.132,0.216"/>
					<path fill="none" stroke="#000000" stroke-width="0.125" d="M33.365,30.495c0.092-0.353,0.136-0.757,0.112-1.183"/>
					<path fill="none" stroke="#000000" stroke-width="0.125" d="M34.705,32.681c-0.383-0.35-0.766-0.709-1.396-1.273"/>
					<path fill="none" stroke="#000000" stroke-width="0.125" d="M35.55,32.669c-0.326-0.248-1.689-1.475-2.241-1.938"/>
					<path fill="none" stroke="#000000" stroke-width="0.125" d="M36.484,32.444c-0.586-0.372-2.263-1.611-3.119-2.377"/>
					<path fill="none" stroke="#000000" stroke-width="0.125" d="M32.712,30.901c0.169,0.518,0.315,0.901,0.394,1.115"/>
					<path fill="none" stroke="#000000" stroke-width="0.125" d="M32.127,32.281c-0.121-0.2-0.271-0.451-0.462-0.772"/>
					<path fill="none" stroke="#000000" stroke-width="0.125" d="M32.805,32.312c-0.124-0.215-0.363-0.577-0.6-0.949"/>
					<path fill="none" stroke="#000000" stroke-width="0.125" d="M33.354,31.971c-0.034-0.586-0.056-0.947-0.09-1.206"/>
					<path fill="none" stroke="#000000" stroke-width="0.125" d="M28.756,31.471c0.04-0.057,0.092-0.117,0.151-0.176
						c0.192-0.191,0.428-0.36,0.845-0.439"/>
					<path fill="none" stroke="#000000" stroke-width="0.125" d="M30.033,31.502c-0.044-0.058-0.086-0.126-0.125-0.196
						c-0.203-0.372-0.214-0.857-0.192-1.251"/>
					<path fill="none" stroke="#000000" stroke-width="0.125" d="M31.214,31.756c0.052-0.062,0.093-0.21,0.136-0.461"/>
					<path fill="none" stroke="#000000" stroke-width="0.125" d="M28.81,30.282c0.113,0.092,0.246,0.182,0.401,0.258"/>
					<path fill="none" stroke="#000000" stroke-width="0.125" d="M28.311,28.478c0.85,0.891,1.74,1.936,2.208,2.552"/>
					<path fill="none" stroke="#000000" stroke-width="0.125" d="M28.074,28.227c0.02-0.012,0.038-0.027,0.056-0.041
						c0.135-0.113,0.214-0.27,0.259-0.44"/>
					<path fill="none" stroke="#000000" stroke-width="0.125" d="M27.881,25.831c0.031,0.006,0.068,0.006,0.113,0.001
						c0.191-0.023,0.327-0.101,0.473-0.27"/>
					<path fill="none" stroke="#000000" stroke-width="0.125" d="M28.276,24.802c0.018,0,0.036,0,0.056-0.001
						c0.197-0.006,0.478-0.101,0.755-0.422"/>
					<path fill="none" stroke="#000000" stroke-width="0.125" d="M28.427,24.118c0.025-0.018,0.055-0.043,0.092-0.078
						c0.09-0.084,0.191-0.219,0.158-0.479"/>
				</g>
			</g>
			<g>
				<path fill="#F7B382" stroke="#000000" stroke-width="0.125" d="M26.103,23.41c-0.147,0.011-0.332,0.129-0.237,0.281
					c-0.495,0.293-0.527,0.872-0.293,1.217c0.192,0.281,0.687,0.27,0.822,0.248c-0.259-0.09-0.372-0.676-0.248-0.833
					c0.124-0.158,0.383-0.473,1.014,0.191c0.203-0.191,0.405-0.361,0.597-0.372c0.248-0.012,0.496-0.237,0.338-0.44
					c-0.157-0.202-1.013,0.113-1.272-0.078C26.565,23.432,26.249,23.613,26.103,23.41z"/>
				<path fill="none" stroke="#000000" stroke-width="0.125" d="M27.758,24.143c0.028-0.209-0.141-0.254-0.377-0.214
					c-0.236,0.039-0.428,0.18-0.557,0.287"/>
				<path fill="none" stroke="#000000" stroke-width="0.125" d="M25.866,23.692c0,0.09,0.355,0.141,0.36-0.186"/>
			</g>
			<g>
				<path fill="#FBBC19" stroke="#000000" stroke-width="0.125" d="M32.273,32.523c0.079,0.281-0.416,0.495-0.687,0.394
					c-0.27-0.102-0.585,0.011-0.585,0.36c0,0.226,0.135,0.361,0.371,0.417c-0.045,0.169,0.147,0.462,0.405,0.473
					c0.259,0.011,0.473-0.214,0.473-0.462c0.349,0.068,0.856-0.292,1.227-0.056c0.101,0.281,0.405,0.338,0.755,0.146
					c0.349-0.191,0.203-0.637-0.113-0.63c-0.552,0.011-0.966-0.324-1.314-0.853C32.707,32.776,32.499,32.918,32.273,32.523z"/>
				<path fill="none" stroke="#000000" stroke-width="0.125" d="M31.373,33.694c0.067-0.225,0.563-0.338,0.653-0.451
					c0.09-0.112,0.321-0.259,0.422-0.27"/>
				<path fill="none" stroke="#000000" stroke-width="0.125" d="M32.431,32.72c0.011,0.09,0.028,0.27,0.017,0.338
					c-0.011,0.067,0.005,0.152,0.242,0.147c0.237-0.006,0.321-0.006,0.299-0.152c-0.022-0.147-0.056-0.372-0.056-0.563"/>
				<path fill="none" stroke="#000000" stroke-width="0.125" d="M32.251,33.705c0.203,0.006,0.422-0.141,0.473-0.349"/>
				<path fill="none" stroke="#000000" stroke-width="0.125" d="M32.684,33.655c0.129-0.034,0.282-0.135,0.315-0.304"/>
				<path fill="none" stroke="#000000" stroke-width="0.125" d="M33.045,33.581c0.129-0.017,0.231-0.101,0.231-0.231"/>
				<path fill="none" stroke="#000000" stroke-width="0.125" d="M32.178,33.109c-0.084,0.062-0.028,0.225,0.163,0.304"/>
				<path fill="none" stroke="#000000" stroke-width="0.125" d="M31.851,33.345c-0.107,0.056-0.051,0.355,0.152,0.383"/>
				<path fill="none" stroke="#000000" stroke-width="0.125" d="M34.03,33.165c-0.168-0.012-0.422-0.017-0.462,0.056"/>
				<path fill="#FFFFFF" stroke="#000000" stroke-width="0.125" d="M31.361,34.46c-0.439-0.191-0.355-0.676-0.028-0.743
					c0.327-0.067,0.338,0.141,0.338,0.276C31.671,34.128,31.215,34.185,31.361,34.46z"/>
				<path fill="#FFFFFF" stroke="#000000" stroke-width="0.125" d="M30.646,33.795c-0.343-0.253-0.09-0.715,0.248-0.726
					c0.338-0.011,0.31,0.35,0.191,0.434S30.562,33.407,30.646,33.795z"/>
				<path fill="#FFFFFF" stroke="#000000" stroke-width="0.125" d="M34.21,34.331c0.484-0.056,0.518-0.417,0.405-0.631
					c-0.112-0.214-0.355-0.197-0.428-0.124c-0.073,0.073-0.163,0.27-0.011,0.366C34.328,34.038,34.339,34.179,34.21,34.331z"/>
				<path fill="none" stroke="#000000" stroke-width="0.125" d="M31.519,32.901c0.129,0.034,0.208,0.095,0.214,0.163"/>
			</g>
			<g>
				<path fill="#FBBC19" stroke="#000000" stroke-width="0.125" d="M28.141,30.438c0.225,0.09,0.878,0.282,1.486,0.451
					c-0.157,0.04-0.394,0.118-0.574,0.27c-0.383-0.09-1.059-0.208-1.436-0.254c-0.231,0.22-0.344,0.243-0.422,0.141
					c-0.07-0.089-0.252-0.171-0.473-0.303c-0.1,0.071-0.182,0.098-0.248,0.097c-0.117,0.117-0.218,0.14-0.303,0.106
					c-0.096,0.163-0.192,0.229-0.372,0.066c-0.18-0.163-0.264-0.446-0.264-0.592c0-0.146,0.107-0.219,0.197-0.231
					c0.06-0.213,0.2-0.308,0.369-0.285c0.032-0.212,0.248-0.359,0.509-0.323c0.338,0.045,1.126-0.158,1.306,0.079
					C28.045,29.842,28.394,30.196,28.141,30.438z"/>
				<g>
					<path fill="none" stroke="#000000" stroke-width="0.125" d="M25.732,30.191c-0.023,0.079,0.09,0.18,0.158,0.372
						c0.042,0.12,0.138,0.328,0.282,0.385"/>
					<path fill="none" stroke="#000000" stroke-width="0.125" d="M26.101,29.906c-0.008,0.054-0.005,0.113,0.013,0.173
						c0.045,0.146,0.124,0.315,0.147,0.506c0.015,0.128,0.081,0.254,0.214,0.256"/>
					<path fill="none" stroke="#000000" stroke-width="0.125" d="M27.443,30.687c-0.259-0.102-0.27-0.27-0.282-0.428
						c-0.011-0.158-0.27-0.27-0.478-0.141c-0.208,0.13-0.307,0.411-0.048,0.575c0.03,0.019,0.059,0.036,0.087,0.053"/>
					<path fill="none" stroke="#000000" stroke-width="0.125" d="M28.141,30.438c-0.13,0.125-0.22,0.197-0.524,0.468"/>
				</g>
				<g>
					<path fill="#FFFFFF" stroke="#000000" stroke-width="0.125" d="M26.497,30.839c0.09,0.169,0.343,0.332,0.636,0.152
						c-0.124-0.095-0.338-0.202-0.411-0.246C26.658,30.791,26.587,30.833,26.497,30.839z"/>
					<path fill="#FFFFFF" stroke="#000000" stroke-width="0.125" d="M26.204,30.954c0.051,0.141,0.355,0.262,0.625,0.116
						c-0.129-0.02-0.267-0.099-0.332-0.231h-0.02C26.438,30.899,26.3,30.986,26.204,30.954z"/>
					<path fill="#FFFFFF" stroke="#000000" stroke-width="0.125" d="M25.987,31.11c0.042,0.107,0.31,0.155,0.437,0.011
						c-0.062-0.023-0.194-0.084-0.22-0.166c-0.008,0-0.02-0.002-0.031-0.008C26.14,31.003,26.08,31.113,25.987,31.11z"/>
					<path fill="#FFFFFF" stroke="#000000" stroke-width="0.125" d="M27.037,29.464c-0.507-0.034-0.63,0.377-0.608,0.715
						c0.011,0.169,0.161,0.195,0.315,0.152c0.101-0.029,0.18-0.113,0.124-0.31C26.817,29.842,26.829,29.616,27.037,29.464z"/>
				</g>
			</g>
			<path fill="#FBBC19" stroke="#000000" stroke-width="0.125" d="M25.332,22.244c0.174,0.163,0.158,0.631-0.017,0.789
				c0.028-0.158,0.045-0.44-0.084-0.564L25.332,22.244z"/>
			<path fill="#559334" stroke="#000000" stroke-width="0.125" d="M25.436,24.508c-0.982,0.39-1.213-0.185-1.224-0.399
				c-0.012-0.214-0.045-0.44-0.136-0.665c-0.131-0.328-0.09-0.552,0.237-0.744c0.327-0.191,0.642-0.416,0.811-0.563
				c0.168-0.147,0.341-0.25,0.236,0.09c-0.045,0.147-0.158,0.473-0.338,0.653c-0.18,0.18-0.304,0.372-0.146,0.507
				c0.158,0.135,0.597-0.101,0.8-0.315c0.045,0.112-0.136,0.326-0.315,0.383c-0.18,0.056-0.572,0.15-0.54,0.304
				c0.045,0.226,0.495,0.034,0.878,0.067C25.562,23.956,25.41,24.159,25.436,24.508z"/>
			<path fill="#559334" stroke="#000000" stroke-width="0.125" d="M27.19,30.444c0.36-0.147,0.972-0.501,0.614-1.38
				c-0.451-1.104-1.785-0.302-2.117-0.777c-0.473-0.676-0.377-1.086,0.811-1.971c1.148-0.856,1.041-1.436,0.664-1.802
				c-0.09-0.107-0.422-0.417-0.675-0.405c-0.253,0.011-0.439,0.292-0.378,0.495c0.304,0.221,0.435,0.647,0.108,0.89
				c-1.036,0.769-2.016,1.543-1.565,2.917c0.344,1.049,1.239,0.854,1.543,0.867c0.518,0.023,0.979-0.022,0.811,0.316
				c-0.029,0.057-0.084,0.127-0.159,0.202c-0.005,0.066,0.007,0.193,0.032,0.269c0.09-0.003,0.192,0.034,0.242,0.098
				C27.19,30.253,27.156,30.383,27.19,30.444z"/>
			<path fill="#CD7419" stroke="#000000" stroke-width="0.125" d="M25.526,27.262c-0.194,0.349-0.108,0.641,0.16,1.025
				c0.333,0.475,1.667-0.327,2.117,0.777c0.359,0.879-0.253,1.233-0.614,1.38c-0.034-0.062,0-0.191-0.07-0.281
				c-0.05-0.064-0.152-0.101-0.242-0.098c-0.025-0.076-0.037-0.203-0.032-0.269c0.074-0.075,0.13-0.144,0.159-0.202
				c0.169-0.338-0.326-0.293-0.844-0.316C24.967,29.227,25.053,27.848,25.526,27.262z"/>
			<path fill="#CD7419" stroke="#000000" stroke-width="0.125" d="M26.127,24.37c0.06-0.138,0.196-0.254,0.359-0.261
				c0.253-0.012,0.585,0.298,0.675,0.405c0.361,0.351,0.477,0.901-0.52,1.697C27.362,25.659,26.904,24.482,26.127,24.37z"/>
			<path fill="#559334" stroke="#000000" stroke-width="0.125" d="M25.987,31.11c-0.736,0.599-1.348,0.197-1.506-0.649
				c-0.105-0.562-0.248-0.676-0.709-1.003c-0.7-0.495-0.416-1.115-0.236-1.622c0.18-0.507-0.045-0.709-0.394-0.879
				c-0.349-0.169-1.126-0.586-0.034-0.563c1.092,0.022,1.16,1.228,0.957,1.644c-0.203,0.416-0.281,0.72,0.36,0.969
				c0.642,0.248,0.439,1.16,0.878,1.419c0.066,0.039,0.147,0.055,0.237,0.053C25.585,30.777,25.754,31.076,25.987,31.11z"/>
			<g>
				<path fill="#CD7419" stroke="#000000" stroke-width="0.125" d="M22.737,26.412c0.077-0.06,0.14-0.266-0.068-0.32
					c-0.244-0.063-0.258,0.147-0.399,0.19c-0.184,0.054-0.226,0.113-0.065,0.251c0.111,0.095,0.014,0.298,0.257,0.361
					c0.207,0.054,0.263-0.163,0.214-0.247C22.641,26.585,22.674,26.462,22.737,26.412z"/>
				<path fill="#CD7419" stroke="#000000" stroke-width="0.125" d="M23.015,26.484c0.077-0.06,0.14-0.266-0.068-0.32
					c-0.244-0.063-0.258,0.147-0.4,0.19c-0.184,0.055-0.226,0.113-0.064,0.251c0.111,0.095,0.014,0.298,0.258,0.361
					c0.208,0.054,0.263-0.163,0.214-0.247C22.919,26.657,22.952,26.534,23.015,26.484z"/>
				<path fill="#CD7419" stroke="#000000" stroke-width="0.125" d="M23.293,26.556c0.077-0.06,0.14-0.266-0.068-0.32
					c-0.244-0.063-0.258,0.147-0.399,0.19c-0.184,0.055-0.226,0.113-0.065,0.251c0.111,0.095,0.014,0.298,0.258,0.361
					c0.207,0.054,0.263-0.163,0.214-0.247C23.197,26.729,23.229,26.606,23.293,26.556z"/>
			</g>
			<g>
				<path fill="none" stroke="#000000" stroke-width="0.125" d="M26.125,24.368c0.777,0.113,1.238,1.296,0.518,1.847"/>
				<path fill="none" stroke="#000000" stroke-width="0.125" d="M26.294,25.426c-0.112,0.135-0.011,0.783,0.107,0.963"/>
				<path fill="none" stroke="#000000" stroke-width="0.125" d="M26.379,26.406c-0.242-0.056-0.811-0.18-0.991-0.237"/>
				<path fill="none" stroke="#000000" stroke-width="0.125" d="M25.928,25.708c-0.068,0.18-0.011,0.845,0.045,1.042"/>
				<path fill="none" stroke="#000000" stroke-width="0.125" d="M25.81,25.809c0.175-0.022,1.03,0.186,1.104,0.068"/>
				<path fill="none" stroke="#000000" stroke-width="0.125" d="M26.413,25.173c0.005,0.203,0.591,0.682,0.366,0.907"/>
				<path fill="none" stroke="#000000" stroke-width="0.125" d="M26.266,25.46c0.129,0.045,0.737-0.147,0.653-0.394"/>
				<path fill="none" stroke="#000000" stroke-width="0.125" d="M25.371,26.181c-0.011,0.191,0.157,0.72,0.231,0.94"/>
				<path fill="none" stroke="#000000" stroke-width="0.125" d="M24.994,26.581c0.197-0.045,0.749,0.22,0.957,0.18"/>
				<path fill="none" stroke="#000000" stroke-width="0.125" d="M24.606,27.274c0.056-0.158,0.917-0.045,1.03-0.18"/>
				<path fill="none" stroke="#000000" stroke-width="0.125" d="M24.949,26.626c-0.089,0.13,0.294,0.601,0.431,0.849"/>
				<path fill="none" stroke="#000000" stroke-width="0.125" d="M24.6,27.296c-0.045,0.18,0.648,0.507,0.619,0.654"/>
				<path fill="none" stroke="#000000" stroke-width="0.125" d="M24.566,28.068c-0.028-0.208,0.715-0.479,0.822-0.619"/>
				<path fill="none" stroke="#000000" stroke-width="0.125" d="M24.741,28.625c-0.101-0.248,0.451-0.625,0.501-0.805"/>
				<path fill="none" stroke="#000000" stroke-width="0.125" d="M24.583,28.13c0.084-0.085,0.574,0.078,0.614,0.326"/>
				<g>
					<path fill="none" stroke="#000000" stroke-width="0.125" d="M25.242,27.904c0.056,0.034,0.214-0.011,0.259,0.067"/>
					<path fill="none" stroke="#000000" stroke-width="0.125" d="M25.202,28.22c0,0.073,0.422-0.006,0.484,0.067"/>
					<path fill="none" stroke="#000000" stroke-width="0.125" d="M25.264,28.642c-0.034-0.124,0.281-0.377,0.467-0.287"/>
					<path fill="none" stroke="#000000" stroke-width="0.125" d="M25.422,28.952c-0.04-0.124,0.231-0.586,0.4-0.547"/>
					<path fill="none" stroke="#000000" stroke-width="0.125" d="M25.698,29.166c-0.09-0.056,0.18-0.704,0.389-0.71"/>
					<path fill="none" stroke="#000000" stroke-width="0.125" d="M26.041,29.261c-0.101-0.011,0.11-0.81,0.346-0.81"/>
					<path fill="none" stroke="#000000" stroke-width="0.125" d="M26.311,29.278c-0.141-0.005,0.051-0.819,0.321-0.836"/>
					<path fill="none" stroke="#000000" stroke-width="0.125" d="M26.621,29.29c-0.147-0.006,0.006-0.851,0.242-0.845"/>
					<path fill="none" stroke="#000000" stroke-width="0.125" d="M26.829,29.313c-0.135-0.04,0.113-0.876,0.299-0.834"/>
					<path fill="none" stroke="#000000" stroke-width="0.125" d="M26.992,29.374c-0.118-0.118,0.253-0.873,0.388-0.8"/>
					<path fill="none" stroke="#000000" stroke-width="0.125" d="M27.032,29.442c-0.023-0.078,0.535-0.766,0.619-0.642"/>
					<path fill="none" stroke="#000000" stroke-width="0.125" d="M27.021,29.56c0.034-0.107,0.827-0.417,0.856-0.293"/>
					<path fill="none" stroke="#000000" stroke-width="0.125" d="M26.959,29.662c0.067-0.09,0.991-0.18,0.957,0"/>
					<path fill="none" stroke="#000000" stroke-width="0.125" d="M26.902,29.741c0.062-0.068,1.019,0.04,0.929,0.18"/>
					<path fill="none" stroke="#000000" stroke-width="0.125" d="M26.852,29.848c0.197,0,0.912,0.191,0.827,0.276"/>
					<path fill="none" stroke="#000000" stroke-width="0.125" d="M26.863,29.993c0.31,0.034,0.704,0.22,0.608,0.304"/>
				</g>
				<path fill="none" stroke="#000000" stroke-width="0.125" d="M24.78,28.704c0.056,0.107,0.371-0.034,0.484-0.062"/>
				<path fill="none" stroke="#000000" stroke-width="0.125" d="M25.039,29.025c0.079,0.073,0.287,0.005,0.4-0.056"/>
				<path fill="none" stroke="#000000" stroke-width="0.125" d="M26.407,25.089c-0.011-0.136,0.191-0.304,0.332-0.344"/>
				<path fill="none" stroke="#000000" stroke-width="0.125" d="M26.902,25.021c-0.112-0.034-0.535-0.141-0.625-0.254"/>
				<path fill="none" stroke="#000000" stroke-width="0.125" d="M26.384,24.447c0.079-0.085,0.281-0.304,0.371-0.259"/>
				<path fill="none" stroke="#000000" stroke-width="0.125" d="M26.661,24.644c0.095-0.119,0.281-0.344,0.377-0.248"/>
				<path fill="none" stroke="#000000" stroke-width="0.125" d="M26.818,24.852c0.118-0.118,0.371-0.31,0.445-0.214"/>
				<path fill="none" stroke="#000000" stroke-width="0.125" d="M26.914,25.043c0.157-0.124,0.456-0.276,0.49-0.129"/>
				<path fill="none" stroke="#000000" stroke-width="0.125" d="M26.992,25.297c0.197-0.107,0.439-0.248,0.422-0.135"/>
				<path fill="none" stroke="#000000" stroke-width="0.125" d="M26.998,25.533c0.168-0.079,0.366-0.163,0.321-0.079"/>
				<path fill="none" stroke="#000000" stroke-width="0.125" d="M26.97,25.736c0.068-0.029,0.147-0.051,0.203-0.051"/>
				<path fill="none" stroke="#000000" stroke-width="0.125" d="M25.585,23.822c-0.186,0-0.557,0.822-0.732,0.811"/>
				<path fill="none" stroke="#000000" stroke-width="0.125" d="M24.543,24.582c-0.118-0.078,0.31-0.682,0.563-0.709"/>
				<path fill="none" stroke="#000000" stroke-width="0.125" d="M24.206,24.041c0-0.174,0.388-0.36,0.619-0.338"/>
				<path fill="none" stroke="#000000" stroke-width="0.125" d="M24.82,23.726c-0.186,0.04-0.377,0.49-0.073,0.907"/>
				<path fill="none" stroke="#000000" stroke-width="0.125" d="M24.892,23.855c-0.107,0.185,0.299,0.591,0.473,0.676"/>
				<path fill="none" stroke="#000000" stroke-width="0.125" d="M24.752,31.104c0.101,0.135,0.709-0.174,0.878-0.322"/>
				<path fill="none" stroke="#000000" stroke-width="0.125" d="M25.332,30.444c0.113,0.067-0.252,0.946-0.006,0.953"/>
				<path fill="none" stroke="#000000" stroke-width="0.125" d="M25.112,30.219c0.124,0.332-0.467,0.71-0.394,0.845"/>
				<path fill="none" stroke="#000000" stroke-width="0.125" d="M24.971,29.825c0.045,0.163-0.507,0.67-0.428,0.879"/>
				<path fill="none" stroke="#000000" stroke-width="0.125" d="M24.6,29.104c0.107,0.084-0.36,0.654-0.248,0.907"/>
				<path fill="none" stroke="#000000" stroke-width="0.125" d="M23.975,29.605c0.124,0.096,0.833-0.259,0.94,0.023"/>
				<path fill="none" stroke="#000000" stroke-width="0.125" d="M24.493,30.484c0.023,0.124,0.535,0.152,0.906-0.011"/>
				<path fill="none" stroke="#000000" stroke-width="0.125" d="M24.375,30.056c0.062,0.158,0.433,0.304,0.726,0.13"/>
				<path fill="none" stroke="#000000" stroke-width="0.125" d="M24.313,28.963c-0.101-0.051-0.552,0.49-0.434,0.575"/>
				<path fill="none" stroke="#000000" stroke-width="0.125" d="M23.53,29.234c-0.107-0.136,0.371-0.575,0.478-0.479"/>
				<path fill="none" stroke="#000000" stroke-width="0.125" d="M23.344,28.867c-0.062-0.214,0.535-0.416,0.58-0.292"/>
				<path fill="none" stroke="#000000" stroke-width="0.125" d="M23.356,28.405c0.051-0.202,0.608-0.259,0.58-0.028"/>
				<path fill="none" stroke="#000000" stroke-width="0.125" d="M23.485,27.983c0.085-0.243,0.648-0.096,0.58,0.056"/>
				<path fill="none" stroke="#000000" stroke-width="0.125" d="M23.581,27.685c0.028-0.18,0.574-0.248,0.568-0.012"/>
				<path fill="none" stroke="#000000" stroke-width="0.125" d="M23.581,27.369c-0.034-0.185,0.461-0.372,0.529-0.141"/>
				<path fill="none" stroke="#000000" stroke-width="0.125" d="M23.485,27.189c-0.135-0.169,0.389-0.479,0.484-0.338"/>
				<path fill="none" stroke="#000000" stroke-width="0.125" d="M23.378,27.099c-0.158-0.101,0.169-0.642,0.304-0.54"/>
				<path fill="none" stroke="#000000" stroke-width="0.125" d="M24.498,23.608c-0.062-0.107-0.088-0.335,0.023-0.44
					c0.096-0.09,0.225-0.231,0.273-0.396c0.034-0.119-0.043-0.071-0.087-0.037c-0.051,0.04-0.126,0.023-0.121-0.036
					c0.005-0.062,0.07-0.15,0.155-0.166c0.057-0.012,0.056,0.062,0.045,0.101"/>
			</g>
		</g>
	</g>
	<path fill="#E62532" d="M46.253,8.561V52.42C53.062,47.516,57.5,39.524,57.5,30.49C57.5,21.457,53.062,13.465,46.253,8.561z"/>
	<path fill="#058348" d="M14.747,8.561C7.938,13.465,3.5,21.457,3.5,30.49c0,9.034,4.438,17.026,11.247,21.929V8.561z"/>
</g>
<circle opacity="0.5" fill="#959485" cx="30.5" cy="30.5" r="30"/>
</svg>
