<?xml version="1.0" encoding="utf-8"?>
<!-- Generator: Adobe Illustrator 17.1.0, SVG Export Plug-In . SVG Version: 6.00 Build 0)  -->
<!DOCTYPE svg PUBLIC "-//W3C//DTD SVG 1.1//EN" "http://www.w3.org/Graphics/SVG/1.1/DTD/svg11.dtd">
<svg version="1.1" id="Layer_1" xmlns="http://www.w3.org/2000/svg" xmlns:xlink="http://www.w3.org/1999/xlink" x="0px" y="0px"
	 width="61px" height="61px" viewBox="0 0 61 61" enable-background="new 0 0 61 61" xml:space="preserve">
<g>
	<g>
		<circle fill="#1D3C6F" cx="30.5" cy="30.5" r="27"/>
		<path fill="#FFFFFF" d="M3.781,26.623h1.894v-5.955l11.946,5.955h4.928v-2.461l-8.582-4.285h8.582v-6.75h-8.582l8.582-4.285v-2.46
			h-4.184C10.651,10.272,5.058,17.747,3.781,26.623z"/>
		<path fill="#1D3C6F" stroke="#000000" stroke-width="0.25" d="M12.978,30.387"/>
		<polygon fill="#FFFFFF" points="40.95,10.664 43.233,9.798 41.891,11.82 43.967,13.056 41.553,13.27 41.888,15.674 40.202,13.912 
			38.526,15.674 38.851,13.27 36.447,13.056 38.513,11.82 37.182,9.798 39.454,10.664 40.202,8.35 		"/>
		<polygon fill="#FFFFFF" points="40.95,46.978 43.233,46.112 41.891,48.135 43.967,49.371 41.553,49.584 41.888,51.988 
			40.202,50.226 38.526,51.988 38.851,49.584 36.447,49.371 38.513,48.135 37.182,46.112 39.454,46.978 40.202,44.664 		"/>
		<polygon fill="#FFFFFF" points="53.055,21.776 55.338,20.91 53.996,22.932 56.072,24.168 53.658,24.382 53.993,26.785 
			52.307,25.024 50.631,26.785 50.955,24.382 48.552,24.168 50.617,22.932 49.286,20.91 51.559,21.776 52.307,19.462 		"/>
		<polygon fill="#FFFFFF" points="33.43,25.417 35.713,24.551 34.371,26.573 36.447,27.809 34.033,28.023 34.368,30.426 
			32.682,28.665 31.006,30.426 31.331,28.023 28.927,27.809 30.993,26.573 29.662,24.551 31.934,25.417 32.682,23.103 		"/>
		<polygon fill="#FFFFFF" points="45.648,30.286 45.124,31.928 43.388,31.933 44.801,32.95 44.263,34.591 45.657,33.569 
			47.055,34.584 46.516,32.932 47.917,31.928 46.187,31.932 		"/>
		<path fill="#FFFFFF" d="M7.974,43.17l2.829-4.266L5.989,40.73l-1.578-4.881l-0.224,0.693c0.801,3.501,2.281,6.741,4.296,9.576
			l3.87-0.343L7.974,43.17z"/>
		<path fill="#E13B3E" d="M10.393,12.485l12.156-6.103h-3.178l-5.136,2.569C12.843,10.003,11.557,11.188,10.393,12.485z"/>
		<polygon fill="#E13B3E" points="22.549,26.623 9.091,19.877 12.336,19.877 22.549,25.015 		"/>
		<g>
			<path fill="#E13B3E" d="M6.323,18.48h16.225v-3.953H8.734C7.822,15.768,7.016,17.09,6.323,18.48z"/>
			<path fill="#E13B3E" d="M4.334,23.824c-0.233,0.915-0.416,1.85-0.552,2.799h0.552V23.824z"/>
		</g>
	</g>
	<circle opacity="0.5" fill="#959485" cx="30.5" cy="30.5" r="30"/>
</g>
</svg>
