<?xml version="1.0" encoding="utf-8"?>
<!-- Generator: Adobe Illustrator 17.0.2, SVG Export Plug-In . SVG Version: 6.00 Build 0)  -->
<!DOCTYPE svg PUBLIC "-//W3C//DTD SVG 1.1//EN" "http://www.w3.org/Graphics/SVG/1.1/DTD/svg11.dtd">
<svg version="1.1" id="Layer_1" xmlns="http://www.w3.org/2000/svg" xmlns:xlink="http://www.w3.org/1999/xlink" x="0px" y="0px"
	 width="220px" height="95px" viewBox="0 0 220 95" enable-background="new 0 0 220 95" xml:space="preserve">
<path fill="#15467A" d="M0,0v95h220V0H0z M110,77.5c-16.569,0-30-13.431-30-30s13.431-30,30-30s30,13.431,30,30
	S126.569,77.5,110,77.5z M127.931,34.469c-1.422,0.845-2.998,1.457-4.672,1.786c-1.341-1.431-3.254-2.324-5.368-2.324
	c-4.064,0-7.357,3.295-7.357,7.357c0,0.578,0.066,1.138,0.19,1.676c-6.112-0.306-11.534-3.234-15.162-7.685
	c-0.63,1.085-0.994,2.35-0.994,3.698c0,2.552,1.544,4.801,3.518,6.123C96.881,45.06,95,44.728,95,44.176v0.096
	c0,3.563,2.29,6.534,5.653,7.213c-0.617,0.166-1.388,0.258-2.06,0.258c-0.475,0-0.995-0.048-1.446-0.136
	c0.937,2.923,3.623,5.05,6.84,5.112c-2.516,1.969-5.705,3.147-9.149,3.147c-0.595,0-1.188-0.035-1.763-0.101
	c3.256,2.083,7.117,3.304,11.271,3.304c13.532,0,20.926-11.208,20.926-20.928c0-0.32-0.008-0.639-0.024-0.954
	c1.44-1.037,2.686-2.333,3.671-3.807c-1.32,0.586-2.735,0.98-4.223,1.16C126.215,37.629,127.379,36.189,127.931,34.469z"/>
</svg>
