<?xml version="1.0" encoding="utf-8"?>
<!-- Generator: Adobe Illustrator 17.0.2, SVG Export Plug-In . SVG Version: 6.00 Build 0)  -->
<!DOCTYPE svg PUBLIC "-//W3C//DTD SVG 1.1//EN" "http://www.w3.org/Graphics/SVG/1.1/DTD/svg11.dtd">
<svg version="1.1" id="Layer_1" xmlns="http://www.w3.org/2000/svg" xmlns:xlink="http://www.w3.org/1999/xlink" x="0px" y="0px"
	 width="198px" height="90px" viewBox="0 0 198 90" enable-background="new 0 0 198 90" xml:space="preserve">
<g>
	<path fill="#15467A" d="M35.078,28.333c0.206,0.017,0.415,0.033,0.607,0.118c0.143,0.016,0.286,0.032,0.43,0.048
		c0.332,0.118,0.681,0.168,1.018,0.274c0.148,0.019,0.297,0.038,0.446,0.059c0.145,0.055,0.291,0.107,0.439,0.156
		c0.279,0.066,0.558,0.141,0.845,0.175l-0.01,0.049c0.424,0.071,0.834,0.207,1.246,0.33c0.385,0.099,0.777,0.187,1.143,0.346
		c0.129,0.013,0.259,0.027,0.39,0.039l-0.006,0.089c0.08,0.009,0.242,0.028,0.323,0.038c0.137,0.053,0.277,0.104,0.417,0.156
		c0.264,0.063,0.522,0.149,0.782,0.233c0.297,0.098,0.593,0.203,0.897,0.282c0.212,0.073,0.426,0.141,0.641,0.208
		c0.153,0.057,0.308,0.11,0.462,0.169c0.108,0.038,0.216,0.076,0.324,0.116c0.151,0.055,0.303,0.11,0.455,0.164
		c0.14,0.061,0.282,0.121,0.423,0.183c0.12,0.045,0.239,0.092,0.358,0.138c0.181,0.085,0.363,0.168,0.546,0.248
		c0.191,0.101,0.382,0.204,0.569,0.313c0.026-0.002,0.078-0.006,0.104-0.007c0.245,0.178,0.51,0.325,0.775,0.472
		c0.134,0.089,0.267,0.179,0.4,0.271c0.535,0.325,0.973,0.775,1.44,1.187c-0.003,0.027-0.01,0.078-0.013,0.104l0.073-0.048
		c0.306,0.382,0.615,0.763,0.878,1.177c0.07,0.132,0.14,0.266,0.209,0.401l0.041-0.017c0.041,0.128,0.086,0.255,0.134,0.381
		c0.068,0.146,0.135,0.291,0.204,0.436c0.139,0.471,0.325,0.931,0.386,1.421c0.018,0.002,0.055,0.006,0.073,0.008
		c0.012,0.259,0.027,0.52,0.034,0.78l0.077-0.01c0.067,1.202,0.223,2.415,0.059,3.615c-0.02,0.248-0.035,0.498-0.047,0.747
		l-0.073-0.023c-0.016,0.208-0.032,0.416-0.053,0.626c-0.087,0.213-0.155,0.434-0.218,0.656c-0.058,0.152-0.11,0.307-0.166,0.461
		c-0.077,0.153-0.159,0.303-0.247,0.45l-0.01,0.083c-0.04,0.068-0.122,0.202-0.164,0.268l-0.026,0.02
		c-0.089,0.137-0.184,0.272-0.276,0.406c-0.032,0.038-0.096,0.115-0.128,0.152l-0.036-0.002c-0.028,0.041-0.083,0.122-0.112,0.163
		c-0.134,0.128-0.268,0.255-0.404,0.381c-0.158,0.104-0.315,0.209-0.472,0.312c-0.056,0.037-0.167,0.111-0.223,0.148
		c-0.028,0.002-0.085,0.006-0.112,0.008c-0.951,0.521-2.081,0.354-3.115,0.295c-0.403-0.137-0.817-0.236-1.211-0.399
		c-0.139-0.05-0.278-0.102-0.415-0.151l-0.003-0.108c-0.051,0.013-0.154,0.041-0.204,0.056l0.006-0.148l-0.104,0.008
		c0.017-2.767,0.003-5.532,0.008-8.299c-0.006-1.095,0.018-2.191-0.036-3.286c-0.018,0.001-0.056,0.001-0.075,0.001
		c-0.067-0.904-0.973-1.634-1.874-1.452c-0.058,0.038-0.171,0.115-0.229,0.153c-0.384,0.389-0.546,0.933-0.504,1.472
		c-0.008,8.049-0.001,16.098-0.003,24.148c0.007,0.691-0.023,1.385,0.039,2.073c-0.072,0.006-0.218,0.015-0.292,0.019
		c0.066-0.05,0.13-0.104,0.193-0.158c-0.341,0.08-0.656-0.08-0.969-0.187c-0.298-0.096-0.596-0.198-0.898-0.277
		c-0.147-0.055-0.293-0.107-0.438-0.164c-0.072-0.007-0.216-0.021-0.287-0.028l0.006-0.068c-0.267-0.051-0.524-0.139-0.78-0.225
		c-0.224-0.072-0.45-0.14-0.68-0.184l0.011-0.065c-0.072-0.007-0.218-0.022-0.291-0.03c-0.141-0.061-0.283-0.117-0.425-0.173
		c-0.115-0.029-0.227-0.06-0.34-0.092c-0.148-0.048-0.295-0.092-0.441-0.142c-0.336-0.108-0.672-0.209-1.005-0.323
		c-0.166-0.048-0.328-0.098-0.491-0.149C35.084,49.046,35.092,38.689,35.078,28.333z"/>
	<path fill="#15467A" d="M100.035,36.228c1.355-0.024,2.793-0.004,4.001,0.693c0.041-0.001,0.124-0.004,0.165-0.006l-0.012,0.082
		c0.364,0.189,0.678,0.458,0.985,0.727c0.029,0.032,0.087,0.097,0.116,0.129c0.151,0.179,0.303,0.359,0.454,0.538
		c0.05,0.092,0.1,0.186,0.151,0.278c0.068,0.102,0.137,0.205,0.207,0.307c-0.001,0.028-0.004,0.083-0.006,0.111
		c0.111,0.213,0.208,0.434,0.315,0.65c0.004,0.078,0.011,0.234,0.016,0.312l0.096-0.01c0.013,0.205,0.029,0.409,0.05,0.613
		c0.174,0.67,0.08,1.374,0.066,2.057l-0.072-0.001c-0.011,0.203-0.024,0.404-0.037,0.607c-0.099,0.264-0.176,0.537-0.299,0.79
		c-0.007,0.033-0.018,0.1-0.023,0.133c-0.138,0.248-0.269,0.5-0.405,0.749c-0.282,0.382-0.579,0.758-0.961,1.046
		c-0.158,0.109-0.312,0.225-0.462,0.344l-0.029,0.001c-0.324,0.204-0.671,0.373-1.035,0.489l-0.004,0.041
		c-0.286,0.035-0.56,0.119-0.827,0.218c-0.334,0.022-0.67,0.042-0.994,0.129c-6.181,0.041-12.363-0.019-18.544,0.03
		c0.001,0.02,0.002,0.059,0.003,0.079c-0.226,0.028-0.448,0.097-0.626,0.243c-0.038-0.004-0.112-0.013-0.149-0.018l-0.001,0.131
		l-0.089-0.013c-0.379,0.322-0.672,0.721-0.901,1.16c-0.065,0.189-0.129,0.379-0.183,0.572c-0.194,0.765-0.127,1.56-0.137,2.341
		c-0.008,1.651,0.013,3.303-0.013,4.954c-1.455,0.019-2.909,0.006-4.364,0.007c-0.026-1.949-0.003-3.898-0.017-5.847
		c0.017-0.485-0.023-0.979,0.08-1.456c0.028-0.149,0.053-0.297,0.078-0.446c0.047-0.149,0.094-0.299,0.141-0.449
		c0.091-0.293,0.216-0.573,0.353-0.847c0.178-0.341,0.394-0.659,0.625-0.966l0.086,0.001l-0.028-0.096
		c0.061-0.043,0.183-0.13,0.244-0.174l-0.014-0.101l0.089,0.032c0.027-0.037,0.08-0.109,0.107-0.146
		c0.217-0.177,0.436-0.354,0.653-0.532c0.038,0.003,0.111,0.011,0.149,0.014l0.024-0.096c0.126-0.055,0.254-0.109,0.382-0.164
		c0.142-0.062,0.288-0.121,0.433-0.183c0.475-0.125,0.957-0.254,1.455-0.232c5.865-0.007,11.73-0.001,17.594-0.002
		c0.375-0.011,0.764,0.043,1.129-0.072c0.176-0.041,0.355-0.078,0.532-0.127c0.587-0.258,1.075-0.721,1.338-1.309
		c0.08-0.224,0.159-0.449,0.25-0.669c0.016-0.209,0.029-0.42,0.038-0.629c0.02,0.004,0.062,0.013,0.084,0.018
		c-0.001-0.365-0.001-0.73-0.006-1.095l-0.081,0.002c-0.008-0.18-0.02-0.362-0.03-0.541c-0.05-0.137-0.099-0.274-0.144-0.412
		c-0.046-0.116-0.096-0.23-0.147-0.343c-0.013-0.052-0.042-0.158-0.057-0.21c-0.08-0.091-0.157-0.183-0.232-0.276l-0.028-0.012
		c-0.068-0.092-0.134-0.185-0.199-0.277c-0.036-0.021-0.107-0.063-0.142-0.085c-0.203-0.175-0.422-0.342-0.698-0.37
		c-0.001-0.03-0.006-0.089-0.008-0.119c-0.17-0.017-0.341-0.035-0.508-0.055c-0.138-0.043-0.279-0.089-0.424-0.085
		c-7.704-0.004-15.409,0.004-23.113-0.006c-0.004-0.717-0.01-1.435,0.007-2.152C84.332,36.225,92.184,36.23,100.035,36.228z"/>
	<path fill="#15467A" d="M127.029,36.234l-0.004-0.07c4.438,0.019,8.876,0,13.314,0.009c0.089,0.026,0.267,0.075,0.356,0.1
		c-0.013,0.7,0.002,1.401-0.01,2.101c-3.642,0.022-7.283-0.002-10.925,0.012c-0.593,0.026-1.199-0.07-1.781,0.077
		c-0.363,0.058-0.704,0.196-1.024,0.37c-0.397,0.294-0.71,0.686-0.915,1.136c-0.066,0.197-0.131,0.394-0.209,0.587
		c-0.018,0.148-0.031,0.296-0.045,0.445c-0.109,0.357-0.083,0.734-0.087,1.102c0.003,3.003-0.001,6.005,0.002,9.008
		c-0.007,0.515-0.002,1.035-0.119,1.541l-0.068-0.022c-0.016,0.163-0.031,0.326-0.045,0.49c-0.334,1.002-0.908,1.937-1.78,2.555
		l-0.011,0.076c-0.047-0.003-0.139-0.011-0.185-0.014l-0.007,0.099c-0.178,0.091-0.352,0.188-0.524,0.287
		c-0.106,0.042-0.209,0.087-0.312,0.131c-0.171,0.071-0.35,0.129-0.525,0.178l0.016,0.051c-1.556,0.379-3.164,0.24-4.749,0.265
		c-3.904-0.012-7.81,0.023-11.714-0.018c-0.01-0.703,0.002-1.405-0.008-2.107l0.116,0.024l-0.02-0.119
		c4.287-0.008,8.575,0.001,12.862-0.004c0.389,0.017,0.761-0.104,1.124-0.233c0.235-0.138,0.455-0.3,0.67-0.47
		c0.279-0.292,0.475-0.647,0.63-1.018c0.257-0.645,0.21-1.339,0.228-2.017c0.038-0.258,0.039-0.52,0.034-0.779
		c-0.109-0.704-0.001-1.414,0-2.12c-0.044-0.37-0.032-0.74,0.004-1.11c-0.081-0.367-0.021-0.743-0.033-1.114
		c0.029-0.257,0.035-0.518,0.029-0.776c-0.108-0.89,0.038-1.784-0.012-2.674c-0.045-0.258-0.042-0.521,0.011-0.777
		c0.018-0.301,0.021-0.606,0.104-0.897c0.021-0.165,0.041-0.33,0.061-0.494l0.065,0.003c0.029-0.168,0.063-0.336,0.112-0.5
		c0.126-0.312,0.269-0.616,0.429-0.913c0.14-0.22,0.3-0.429,0.473-0.626c0.032-0.029,0.098-0.088,0.13-0.118l-0.023-0.045
		c0.104-0.092,0.208-0.186,0.316-0.276c0.315-0.268,0.642-0.527,1.026-0.689l0.02-0.041c0.255-0.099,0.509-0.203,0.774-0.279
		c0.001-0.018,0.003-0.053,0.004-0.072c0.112-0.004,0.337-0.013,0.45-0.018l-0.022-0.081c0.174-0.021,0.347-0.043,0.523-0.066
		C126.174,36.238,126.602,36.233,127.029,36.234z"/>
	<g>
		<path fill="#15467A" d="M165.728,36.305c0.255-0.039,0.512-0.075,0.766-0.136c0.15,0.051,0.306,0.088,0.468,0.109
			c0.177,0.077,0.348,0.169,0.511,0.279c0.027,0.028,0.08,0.085,0.107,0.112c0.097,0.125,0.195,0.253,0.291,0.382
			c0.049,0.179,0.104,0.356,0.155,0.538c0.016,0.001,0.047,0.003,0.062,0.004c0.055,4.902,0,9.804,0.028,14.706
			c1.448,0.023,2.897,0.008,4.345,0.01c-0.007,0.047-0.018,0.139-0.024,0.186l0.115,0.004c-0.007,0.671-0.002,1.343-0.009,2.014
			c-1.473,0.04-2.946-0.01-4.419,0.027c-0.026,0.733-0.001,1.465-0.019,2.198c-1.442,0.021-2.883-0.002-4.324,0.011
			c-0.027-0.04-0.08-0.12-0.106-0.16c0.012-0.684,0.028-1.369-0.014-2.053c-7.736-0.02-15.472,0-23.208-0.01
			c-0.392-0.001-0.793-0.016-1.14-0.216l-0.105,0.003c-0.213-0.164-0.37-0.38-0.501-0.609c0.008-0.197,0.021-0.394,0.042-0.59
			c0.11-0.155,0.223-0.307,0.337-0.46c0.193-0.176,0.387-0.351,0.589-0.518c0.372-0.216,0.736-0.448,1.109-0.664
			c0.147-0.098,0.293-0.2,0.438-0.305c0.037,0.004,0.111,0.012,0.148,0.017l0.008-0.094c0.294-0.173,0.582-0.356,0.881-0.521
			l0.014-0.079l0.131,0.027l0.007-0.134c0.039,0.004,0.119,0.012,0.158,0.017c0.051-0.043,0.154-0.13,0.205-0.174
			c0.127-0.068,0.258-0.135,0.391-0.199l0.008-0.097c0.048,0.007,0.144,0.02,0.192,0.027l0.01-0.095
			c0.217-0.126,0.431-0.257,0.646-0.389c0.126-0.079,0.257-0.157,0.389-0.23l0.008-0.032c0.197-0.108,0.392-0.223,0.587-0.338
			c0.049-0.033,0.148-0.098,0.198-0.13c0.157-0.092,0.313-0.187,0.47-0.282c0.265-0.156,0.523-0.323,0.79-0.479
			c0.189-0.116,0.377-0.237,0.557-0.37c0.026-0.002,0.075-0.006,0.099-0.008c0.181-0.151,0.383-0.276,0.596-0.383l0.012-0.035
			c0.334-0.188,0.661-0.389,0.984-0.597c0.223-0.134,0.446-0.267,0.658-0.42l0.104,0.001c0.053-0.048,0.159-0.141,0.212-0.188
			c0.145-0.083,0.285-0.169,0.431-0.255c0.264-0.165,0.528-0.33,0.797-0.489c0.128-0.078,0.259-0.157,0.393-0.232l0.003-0.09
			c0.052,0.008,0.158,0.026,0.212,0.033l-0.007-0.099c0.181-0.097,0.362-0.195,0.547-0.289l0.002-0.04
			c0.258-0.144,0.51-0.298,0.751-0.471c0.037,0,0.108-0.002,0.145-0.002l0.003-0.078c0.135-0.085,0.274-0.17,0.409-0.259
			l0.088,0.001c0.047-0.037,0.141-0.11,0.188-0.148l0.015-0.075c0.036,0.002,0.106,0.006,0.14,0.007
			c0.116-0.09,0.238-0.179,0.362-0.264c0.224-0.125,0.446-0.255,0.648-0.417c0.033,0.003,0.102,0.008,0.137,0.011l0.016-0.079
			c0.479-0.267,0.929-0.582,1.404-0.855c0.257-0.159,0.513-0.323,0.77-0.488c0.385-0.218,0.776-0.432,1.126-0.707
			c0.024,0,0.074-0.001,0.098-0.002c0.176-0.135,0.363-0.255,0.553-0.371c0.273-0.163,0.542-0.328,0.803-0.512l0.131,0.012
			c0.004-0.022,0.013-0.067,0.018-0.09c0.046-0.037,0.136-0.11,0.181-0.147l0.09,0.007c0.181-0.138,0.375-0.258,0.574-0.371
			c0.116-0.073,0.235-0.147,0.353-0.22c0.089-0.057,0.179-0.114,0.272-0.169c0.251-0.14,0.495-0.292,0.72-0.471
			c0.024,0.003,0.074,0.011,0.099,0.014c0.173-0.16,0.374-0.285,0.586-0.39l0.013-0.038c0.101-0.056,0.204-0.111,0.307-0.167
			c0.226-0.147,0.458-0.289,0.695-0.422c0.096-0.076,0.194-0.15,0.294-0.226c0.037,0.002,0.111,0.007,0.149,0.009l0.012-0.116
			l0.125,0.013l0.01-0.125c0.048,0.006,0.145,0.017,0.193,0.022l0.009-0.098c0.277-0.139,0.553-0.283,0.841-0.405
			C165.498,36.393,165.611,36.35,165.728,36.305z M162.336,40.842c-0.499,0.317-1.016,0.603-1.5,0.944
			c-0.113,0.06-0.229,0.121-0.34,0.183c-0.147,0.092-0.293,0.184-0.436,0.277c-0.167,0.097-0.331,0.196-0.497,0.291l-0.021,0.078
			l-0.09-0.016c-0.053,0.036-0.161,0.108-0.216,0.144c-0.148,0.098-0.294,0.199-0.433,0.306c-0.036-0.006-0.106-0.018-0.141-0.023
			l-0.012,0.092c-0.13,0.076-0.259,0.155-0.384,0.236c-0.166,0.097-0.33,0.195-0.494,0.288l-0.012,0.038
			c-0.197,0.109-0.389,0.224-0.581,0.337c-0.125,0.085-0.251,0.171-0.369,0.261c-0.039-0.004-0.116-0.013-0.154-0.018l-0.003,0.132
			l-0.13-0.018l-0.002,0.13c-0.05-0.006-0.148-0.017-0.197-0.022L156.3,44.62c-0.036,0-0.108-0.002-0.145-0.002
			c-0.342,0.257-0.713,0.472-1.081,0.685l-0.017,0.031c-0.199,0.109-0.393,0.227-0.583,0.349c-0.701,0.436-1.407,0.868-2.111,1.303
			c-0.127,0.079-0.252,0.155-0.381,0.225l-0.007,0.035c-0.294,0.161-0.579,0.337-0.869,0.501c-0.144,0.1-0.285,0.202-0.423,0.305
			c-0.026,0.003-0.078,0.01-0.104,0.013c-0.067,0.04-0.199,0.12-0.266,0.16l0.002,0.039c-0.129,0.068-0.254,0.137-0.378,0.208
			c-0.316,0.207-0.64,0.402-0.963,0.599c-0.324,0.208-0.648,0.419-0.992,0.592l-0.002,0.047c-0.118,0.052-0.234,0.106-0.347,0.159
			l-0.008,0.045c-0.232,0.131-0.458,0.272-0.691,0.396l-0.011,0.083c-0.035,0-0.105-0.001-0.14-0.002
			c-0.315,0.237-0.654,0.441-0.992,0.641c-0.051,0.035-0.155,0.104-0.207,0.139l-0.091-0.018l-0.002,0.135
			c-0.047-0.003-0.141-0.011-0.189-0.014l-0.011,0.091c-0.118,0.056-0.235,0.112-0.35,0.169l-0.011,0.097
			c-0.047-0.007-0.141-0.018-0.188-0.024l0.002,0.099c-0.117,0.052-0.234,0.104-0.347,0.156l-0.006,0.062
			c-0.112,0.057-0.223,0.112-0.332,0.168c-0.003,0.051-0.01,0.154-0.013,0.205c0.281,0.013,0.561,0.02,0.844,0.018
			c6.265-0.01,12.528,0.007,18.792-0.009c0.025-2.921,0.003-5.844,0.01-8.765c-0.023-1.136,0.052-2.276-0.046-3.407
			C163.151,40.254,162.778,40.618,162.336,40.842z"/>
	</g>
	<path fill="#15467A" d="M33.401,47.16c0.087-0.001,0.259-0.003,0.346-0.004c-0.007,1.358,0.013,2.718-0.013,4.076
		c-0.248,0.06-0.492,0.14-0.724,0.249c-0.063,0.011-0.188,0.033-0.25,0.045c-0.121,0.061-0.244,0.121-0.365,0.181
		c-0.046,0.009-0.137,0.026-0.183,0.035c-0.47,0.19-0.959,0.328-1.423,0.532c-0.072,0.008-0.219,0.023-0.292,0.031v0.068
		c-0.169,0.051-0.335,0.11-0.501,0.169c-0.131,0.04-0.263,0.078-0.395,0.111l0.018,0.055c-0.13,0.032-0.258,0.067-0.386,0.105
		c-0.175,0.06-0.348,0.118-0.525,0.169l0.009,0.072c-0.071,0.007-0.215,0.021-0.286,0.029c-0.192,0.092-0.392,0.167-0.598,0.22
		l-0.006,0.055c-0.527,0.109-1.018,0.338-1.525,0.509c-0.146,0.075-0.291,0.149-0.436,0.223c-0.119,0.082-0.236,0.166-0.355,0.248
		c-0.055,0.167-0.107,0.335-0.149,0.507l0.1-0.007c0.038,0.04,0.114,0.121,0.15,0.161l-0.013,0.05
		c0.133,0.053,0.264,0.11,0.395,0.168c0.168,0.045,0.34,0.076,0.512,0.106l-0.03,0.063c0.826,0.056,1.655,0.041,2.483-0.001
		l-0.029-0.079c0.485,0.008,0.949-0.148,1.394-0.325c0.062-0.012,0.186-0.038,0.248-0.05c0.134-0.061,0.268-0.121,0.403-0.179
		c0.166-0.052,0.33-0.109,0.497-0.16c0.14-0.058,0.283-0.112,0.425-0.168c0.153-0.051,0.305-0.104,0.459-0.153
		c0.244-0.09,0.487-0.184,0.723-0.294c0.053-0.001,0.16-0.003,0.214-0.004l-0.003-0.109c0.153-0.015,0.306-0.028,0.459-0.043
		c0.002,1.197-0.007,2.395,0.007,3.592c-0.297,0.062-0.597,0.114-0.9,0.138l-0.001,0.065c-0.374,0.006-0.747,0.031-1.12,0.049
		l0.036,0.079c-0.441,0.013-0.885-0.002-1.32,0.072c-0.741,0.023-1.492,0.067-2.229-0.033c-0.432-0.022-0.864-0.036-1.296-0.048
		l0.02-0.08c-0.328-0.017-0.656-0.035-0.984-0.046c-0.037-0.134-0.126-0.304-0.205-0.101c-0.089-0.002-0.266-0.006-0.354-0.007
		l-0.052-0.049c-0.196-0.023-0.392-0.046-0.579-0.109c-0.191-0.035-0.385-0.057-0.568-0.124c-0.141-0.029-0.284-0.055-0.426-0.078
		c-0.149-0.05-0.299-0.099-0.446-0.152c-0.132-0.015-0.265-0.029-0.397-0.041l0.01-0.066c-0.362-0.073-0.71-0.198-1.059-0.318
		c-0.189-0.057-0.376-0.121-0.566-0.183c-0.111-0.058-0.222-0.118-0.331-0.179c-0.031-0.001-0.091-0.003-0.121-0.004
		c-0.057-0.035-0.171-0.106-0.229-0.141c-0.189-0.103-0.377-0.212-0.562-0.323c-0.187-0.157-0.37-0.32-0.552-0.482
		c-0.118-0.149-0.236-0.299-0.352-0.45c-0.219-0.497-0.223-1.092-0.018-1.593c0.249-0.319,0.538-0.607,0.876-0.833
		c0.192-0.121,0.386-0.236,0.588-0.338l-0.002-0.089c0.05,0.007,0.149,0.02,0.199,0.026l0.019-0.09
		c0.237-0.104,0.468-0.218,0.698-0.336c0.186-0.079,0.369-0.163,0.55-0.249c0.121-0.049,0.243-0.097,0.364-0.143
		c0.303-0.137,0.617-0.25,0.936-0.341l-0.008-0.075c0.077-0.004,0.232-0.014,0.308-0.019c0.118-0.062,0.238-0.124,0.36-0.183
		c0.048-0.012,0.146-0.036,0.195-0.048c0.112-0.041,0.226-0.08,0.34-0.118c0.354-0.136,0.715-0.255,1.07-0.387
		c0.119-0.039,0.237-0.079,0.355-0.119c0.183-0.068,0.365-0.136,0.542-0.217c0.065-0.013,0.194-0.04,0.258-0.052
		c0.351-0.155,0.717-0.269,1.075-0.405c0.3-0.101,0.6-0.205,0.89-0.335c0.06-0.01,0.181-0.03,0.242-0.04
		c0.183-0.083,0.367-0.159,0.554-0.23c0.132-0.037,0.266-0.071,0.401-0.105l-0.012-0.053c0.294-0.062,0.574-0.174,0.857-0.274
		c0.176-0.067,0.355-0.128,0.531-0.197c0.267-0.092,0.533-0.188,0.804-0.27c0.138-0.055,0.277-0.106,0.416-0.159
		c0.147-0.05,0.295-0.101,0.442-0.154c0.137-0.046,0.275-0.087,0.414-0.124L33.401,47.16z"/>
	<path fill="#15467A" d="M50.44,48.927l-0.019-0.076c0.581,0.022,1.163-0.016,1.745,0.017c0.513,0.085,1.035,0.075,1.553,0.12
		c0.215,0.039,0.432,0.052,0.65,0.068l-0.033,0.075c0.313,0.011,0.626,0.026,0.939,0.05c0.401,0.129,0.831,0.136,1.228,0.283
		c0.164,0.022,0.328,0.042,0.493,0.062l-0.007,0.068c0.387,0.029,0.748,0.185,1.123,0.274l-0.002,0.042
		c0.475,0.092,0.916,0.305,1.378,0.449c0.125,0.056,0.25,0.114,0.377,0.173c0.146,0.062,0.293,0.126,0.438,0.197
		c0.036-0.004,0.109-0.014,0.145-0.019l0.014,0.149c0.04-0.003,0.122-0.011,0.164-0.014c0.228,0.173,0.465,0.334,0.681,0.524
		c0.032,0.003,0.098,0.01,0.13,0.013l0.001,0.131l0.085,0.004c0.066,0.089,0.134,0.178,0.201,0.267
		c0.047,0.051,0.139,0.155,0.186,0.207c0.001,0.028,0.002,0.085,0.002,0.114c0.066,0.1,0.131,0.203,0.197,0.305
		c0.018,0.39,0.024,0.794-0.176,1.143c-0.057,0.087-0.112,0.175-0.168,0.263c-0.031,0.036-0.094,0.107-0.125,0.144l-0.031,0.002
		c-0.03,0.038-0.09,0.114-0.12,0.151c-0.522,0.47-1.13,0.826-1.753,1.142c-0.301,0.144-0.601,0.284-0.915,0.394
		c-0.11,0.039-0.222,0.078-0.332,0.116c-0.767,0.297-1.551,0.552-2.32,0.841c-0.185,0.066-0.369,0.13-0.554,0.193
		c-0.112,0.043-0.224,0.09-0.335,0.138c-0.063,0.017-0.19,0.049-0.254,0.066c-0.177,0.075-0.356,0.14-0.537,0.204
		c-0.118,0.041-0.236,0.081-0.353,0.121c-0.358,0.139-0.721,0.263-1.081,0.397c-0.154,0.05-0.305,0.105-0.456,0.158
		c-0.145,0.055-0.289,0.108-0.432,0.165c-0.116,0.038-0.23,0.076-0.345,0.116c-0.186,0.067-0.37,0.137-0.548,0.222
		c-0.062,0.01-0.186,0.031-0.247,0.042c-0.18,0.08-0.362,0.155-0.546,0.226c-0.131,0.041-0.264,0.08-0.396,0.117l0.006,0.048
		c-0.657,0.164-1.277,0.444-1.918,0.656c-0.12,0.041-0.238,0.085-0.355,0.13c-0.265,0.087-0.525,0.188-0.788,0.279
		c-0.298,0.111-0.598,0.219-0.897,0.326c-0.115,0.04-0.228,0.08-0.343,0.118c-0.248,0.09-0.497,0.179-0.743,0.273
		c-0.533,0.171-1.042,0.43-1.598,0.523c0.011-1.315-0.002-2.63,0.007-3.943c0.102-0.205,0.383-0.199,0.568-0.302
		c0.267-0.082,0.528-0.181,0.793-0.273c0.232-0.083,0.464-0.166,0.698-0.246c0.195-0.073,0.391-0.144,0.592-0.198l-0.01-0.078
		c0.146-0.012,0.293-0.022,0.441-0.032l-0.001-0.073c0.282-0.085,0.558-0.189,0.837-0.284c0.185-0.069,0.37-0.135,0.557-0.199
		c0.111-0.045,0.223-0.087,0.336-0.128c0.115-0.039,0.23-0.077,0.346-0.111c0.178-0.072,0.357-0.14,0.54-0.204
		c0.476-0.161,0.951-0.332,1.423-0.509c0.119-0.042,0.237-0.085,0.356-0.128c0.04-0.008,0.12-0.022,0.16-0.03
		c0.127-0.06,0.255-0.122,0.382-0.184c0.062-0.011,0.185-0.031,0.246-0.041c0.52-0.218,1.057-0.392,1.588-0.581
		c0.087-0.026,0.259-0.077,0.345-0.102l-0.007-0.053c0.134-0.031,0.266-0.065,0.399-0.101c0.277-0.109,0.557-0.213,0.844-0.292
		l-0.003-0.043c0.191-0.043,0.363-0.138,0.525-0.245l0.095,0.009c0.031-0.043,0.095-0.132,0.126-0.177
		c0.04-0.022,0.122-0.066,0.164-0.088c0.158-0.304,0.028-0.601-0.265-0.748c-0.124-0.046-0.245-0.095-0.366-0.142
		c-0.232-0.104-0.488-0.092-0.735-0.104l0.018-0.072c-0.571,0.006-1.157-0.083-1.715,0.07c-0.225,0.012-0.45,0.023-0.672,0.04
		c-0.298,0.1-0.606,0.161-0.904,0.255c-0.301,0.102-0.599,0.208-0.898,0.308c-0.148,0.057-0.294,0.115-0.438,0.18
		c-0.056,0.008-0.169,0.023-0.226,0.032c-0.185,0.083-0.372,0.159-0.563,0.225c-0.303,0.111-0.607,0.225-0.928,0.264
		c-0.001,0.026-0.003,0.079-0.006,0.105c-0.17,0.037-0.34,0.076-0.507,0.127c-0.107,0.039-0.213,0.08-0.317,0.121
		c-0.193,0.066-0.383,0.134-0.573,0.203c-0.145,0.047-0.287,0.096-0.429,0.15c-0.302,0.105-0.606,0.205-0.901,0.327
		c-0.055,0.011-0.164,0.036-0.218,0.047c-0.188,0.082-0.379,0.159-0.572,0.227c-0.112,0.036-0.226,0.071-0.338,0.105
		c-0.254,0.112-0.518,0.201-0.79,0.25c0.001-1.261,0.009-2.524-0.002-3.785c-0.011-0.166,0.027-0.325,0.081-0.48
		c0.252-0.032,0.493-0.112,0.725-0.214c0.077-0.014,0.233-0.042,0.309-0.057c0.402-0.154,0.822-0.256,1.242-0.344
		c0.18-0.061,0.37-0.09,0.56-0.114c0.181-0.05,0.364-0.096,0.546-0.151c0.209-0.018,0.421-0.034,0.632-0.049l-0.014-0.079
		c0.334-0.017,0.669-0.038,1.004-0.048l-0.026-0.077C49.149,48.995,49.793,48.916,50.44,48.927z"/>
	<path fill="#15467A" d="M178.511,54.425c0.128-0.01,0.259-0.018,0.393-0.027c0.189,0.723,0.028,1.483,0.092,2.221
		c-0.029,0.001-0.088,0.002-0.117,0.003l0.042,0.155l-0.131-0.082c-0.015,0.057-0.041,0.17-0.056,0.227
		c-0.122-0.538-0.071-1.092-0.056-1.638c-0.049,0.001-0.146,0.003-0.194,0.004c-0.085,0.317-0.18,0.63-0.291,0.938
		c-0.057,0.159-0.09,0.325-0.119,0.492c-0.124,0.009-0.245,0.019-0.362,0.029c-0.186-0.58-0.39-1.153-0.569-1.736
		c-0.05,0.569-0.031,1.141-0.028,1.711c-0.082,0.004-0.246,0.015-0.327,0.019c-0.006-0.754,0-1.506-0.002-2.26
		c0.148-0.002,0.292-0.006,0.445-0.007c0.047,0.165,0.095,0.33,0.139,0.498l0.05-0.008c0.083,0.356,0.203,0.704,0.328,1.049
		c0.032,0.121,0.07,0.246,0.107,0.37C178.075,55.731,178.325,55.089,178.511,54.425z"/>
	<path fill="#15467A" d="M174.693,54.41c0.594,0.012,1.19,0.007,1.786,0.002c-0.008,0.101-0.012,0.205-0.016,0.307
		c-0.235-0.004-0.466-0.007-0.698-0.01c-0.002,0.626-0.007,1.251,0.004,1.877c-0.059,0.105-0.116,0.209-0.169,0.315
		c-0.002-0.046-0.008-0.137-0.01-0.182c-0.035,0.007-0.105,0.021-0.14,0.028c-0.009-0.681,0.002-1.363-0.003-2.044
		c-0.226,0.006-0.451,0.011-0.671,0.02l0.014-0.105l-0.135,0.023L174.693,54.41z"/>
	<g>
		<path fill="#15467A" d="M58.945,58.363c0.413-0.136,0.856-0.092,1.261,0.049c0.389,0.21,0.687,0.541,0.867,0.944
			c0.088,0.33,0.077,0.675,0.038,1.012c-0.052,0.126-0.1,0.255-0.144,0.385l-0.028-0.004c-0.166,0.268-0.403,0.478-0.65,0.667
			c-0.026,0.003-0.078,0.009-0.104,0.012c-0.421,0.18-0.946,0.184-1.365-0.004c-0.026,0-0.078-0.001-0.104-0.001
			c-0.258-0.2-0.495-0.429-0.681-0.699c-0.043-0.12-0.09-0.238-0.14-0.354c-0.032-0.341-0.068-0.696,0.06-1.021
			c0.058-0.119,0.114-0.239,0.168-0.36c0.141-0.161,0.294-0.312,0.456-0.451C58.702,58.48,58.824,58.422,58.945,58.363z
			 M59.371,58.54c-0.197,0.07-0.393,0.137-0.589,0.206c-0.445,0.324-0.707,0.862-0.646,1.414c0.056,0.137,0.109,0.276,0.166,0.414
			c0.075,0.104,0.148,0.206,0.224,0.311c0.029,0.029,0.088,0.089,0.117,0.118c0.174,0.122,0.367,0.212,0.583,0.228l0.004,0.064
			c0.164-0.003,0.328-0.006,0.494-0.006c0.202-0.077,0.403-0.156,0.606-0.234l0.002-0.049c0.49-0.391,0.665-1.085,0.413-1.661
			C60.475,58.837,59.945,58.532,59.371,58.54z"/>
	</g>
	<g>
		<path fill="#15467A" d="M58.798,58.983c0.355-0.01,0.713-0.01,1.069-0.006c0.127,0.073,0.25,0.15,0.376,0.229
			c-0.038,0.237,0.098,0.599-0.198,0.706c0.33,0.131,0.125,0.602,0.222,0.88c-0.088-0.009-0.265-0.027-0.354-0.036
			c-0.004-0.224-0.01-0.445-0.018-0.668c-0.257-0.011-0.514-0.017-0.77-0.019c-0.003,0.273-0.004,0.547-0.019,0.82
			c-0.105-0.05-0.236-0.062-0.305-0.164C58.785,60.145,58.8,59.564,58.798,58.983z M59.121,59.285c0,0.122,0,0.366,0,0.489
			c0.261-0.002,0.521-0.01,0.782-0.026c0.001-0.148,0.002-0.296,0.004-0.443C59.645,59.292,59.383,59.286,59.121,59.285z"/>
	</g>
</g>
</svg>
