<?xml version="1.0" encoding="utf-8"?>
<!-- Generator: Adobe Illustrator 17.0.2, SVG Export Plug-In . SVG Version: 6.00 Build 0)  -->
<!DOCTYPE svg PUBLIC "-//W3C//DTD SVG 1.1//EN" "http://www.w3.org/Graphics/SVG/1.1/DTD/svg11.dtd">
<svg version="1.1" id="Layer_1" xmlns="http://www.w3.org/2000/svg" xmlns:xlink="http://www.w3.org/1999/xlink" x="0px" y="0px"
	 width="165px" height="79.113px" viewBox="0 0 165 79.113" enable-background="new 0 0 165 79.113" xml:space="preserve">
<g id="xd9I58.tif">
	<g>
		<path fill="#15467A" d="M165,15.242c-0.17,1.088-0.36,2.17-0.753,3.206c-1.393,3.678-4.068,6.058-7.635,7.521
			c-1.869,0.766-3.835,1.118-5.845,1.233c-3.048,0.176-6.099,0.071-9.149,0.075c-1.515,0.002-2.371-1.114-2.044-2.589
			c0.204-0.923,0.982-1.479,2.126-1.484c2.191-0.01,4.382,0.031,6.572-0.015c2.092-0.045,4.195-0.086,6.207-0.783
			c3.491-1.209,5.472-3.692,5.977-7.309c0.427-3.058-0.359-5.795-2.576-8.018c-1.5-1.504-3.391-2.228-5.46-2.538
			c-1.411-0.211-2.833-0.253-4.257-0.251c-3.978,0.006-7.957,0.002-11.935,0.002c-0.571,0-0.572,0.001-0.572,0.582
			c0,14.368-0.001,28.736,0.002,43.105c0,0.447-0.038,0.887-0.164,1.314c-0.269,0.908-1.016,1.448-1.995,1.455
			c-1.019,0.007-1.78-0.507-2.073-1.411c-0.108-0.334-0.16-0.677-0.16-1.03c0.002-15.296,0.001-30.591,0.003-45.887
			c0-1.499,0.761-2.272,2.261-2.274c5.161-0.006,10.323-0.03,15.484,0.017c2.641,0.024,5.258,0.332,7.729,1.359
			c4.043,1.681,6.8,4.53,7.907,8.84c0.16,0.621,0.236,1.264,0.351,1.897C165,13.253,165,14.247,165,15.242z"/>
		<path fill="#15467A" d="M99.516,0c0.931,0.285,1.51,0.942,1.889,1.803c1.234,2.803,2.468,5.606,3.698,8.411
			c3.125,7.123,6.247,14.246,9.37,21.369c2.309,5.266,4.61,10.534,6.929,15.795c0.801,1.818-0.351,3.045-1.673,3.325
			c-0.717,0.152-1.293-0.114-1.773-0.624c-0.306-0.326-0.52-0.715-0.698-1.125c-4.591-10.601-9.184-21.201-13.777-31.802
			c-1.495-3.451-2.99-6.903-4.487-10.353c-0.051-0.118-0.066-0.263-0.196-0.341c-0.13,0.034-0.135,0.157-0.175,0.25
			c-3.08,7.142-6.159,14.284-9.237,21.427c-2.988,6.933-5.975,13.866-8.963,20.799c-0.128,0.296-0.27,0.586-0.461,0.848
			c-0.694,0.952-1.582,1.199-2.607,0.725c-1.061-0.491-1.57-1.486-1.258-2.577c0.286-0.996,0.784-1.912,1.198-2.859
			c3.014-6.893,6.037-13.781,9.057-20.67c3.274-7.468,6.548-14.935,9.821-22.404c0.403-0.92,0.968-1.673,1.972-1.997
			C98.602,0,99.059,0,99.516,0z"/>
		<path fill="#15467A" d="M2.742,0C3.87,0.464,4.3,1.109,4.3,2.356c0.001,14.447,0.001,28.894,0.001,43.34
			c0,0.148,0.006,0.296,0,0.443c-0.008,0.207,0.092,0.294,0.293,0.287c0.134-0.005,0.269,0,0.403,0c7.19,0,14.38,0,21.569,0.001
			c0.335,0,0.669-0.004,1.002,0.07c1.133,0.249,1.701,0.979,1.643,2.135c-0.054,1.049-0.756,1.764-1.859,1.868
			c-0.44,0.042-0.884,0.065-1.327,0.065c-7.741,0.004-15.482,0.004-23.222,0c-0.389,0-0.78-0.02-1.165-0.072
			C0.771,50.377,0.246,49.856,0,49.032c0-15.78,0-31.559,0-47.339C0.194,0.88,0.65,0.292,1.452,0C1.882,0,2.312,0,2.742,0z"/>
		<path fill="#15467A" d="M0,66.855c0.313-1.032,1.881-0.932,2.405-0.117c0.502,0.782,0.92,1.608,1.366,2.42
			c0.906,1.648,1.795,3.304,2.693,4.956c0.07,0.128,0.153,0.248,0.256,0.413c0.393-0.55,0.656-1.133,0.962-1.688
			c1.035-1.883,2.055-3.775,3.085-5.661c0.371-0.679,0.861-1.166,1.726-1.057c0.488,0.062,0.794,0.298,0.905,0.777
			c0.042,0.181,0.066,0.371,0.066,0.558c0.004,3.439,0.004,6.878,0.001,10.318c-0.001,0.736-0.336,1.127-0.927,1.103
			c-0.394-0.016-0.663-0.214-0.768-0.593c-0.053-0.191-0.074-0.397-0.074-0.596c-0.003-2.418-0.002-4.836,0.006-7.254
			c0.002-0.503,0.114-1.006,0.006-1.621c-0.183,0.318-0.325,0.551-0.453,0.791c-1.143,2.145-2.284,4.292-3.426,6.438
			c-0.251,0.473-0.522,0.956-1.141,0.945c-0.598-0.011-0.85-0.492-1.094-0.951c-1.184-2.23-2.369-4.46-3.555-6.689
			c-0.079-0.148-0.171-0.289-0.275-0.463c-0.108,0.201-0.066,0.363-0.066,0.517c-0.001,2.835,0.004,5.669,0.001,8.504
			c-0.001,0.732-0.44,1.1-1.098,0.956C0.288,78.79,0.157,78.538,0,78.306C0,74.489,0,70.672,0,66.855z"/>
		<path fill="#15467A" d="M122.258,79.113c-0.822-0.199-1.641-0.398-2.383-0.833c-1.771-1.04-2.806-2.592-3.143-4.596
			c-0.379-2.247,0.159-4.282,1.768-5.902c1.933-1.946,4.335-2.387,6.889-1.564c2.534,0.816,4,2.691,4.335,5.31
			c0.377,2.947-0.809,5.406-3.291,6.816c-0.722,0.41-1.524,0.584-2.321,0.768C123.495,79.113,122.876,79.113,122.258,79.113z
			 M118.521,72.838c-0.043,0.595,0.221,1.498,0.686,2.353c1.393,2.563,5.086,3.121,7.159,1.068c1.589-1.574,1.887-3.485,1.255-5.541
			c-0.888-2.892-4.258-4.14-6.836-2.556C119.204,69.134,118.556,70.637,118.521,72.838z"/>
		<path fill="#15467A" d="M38.871,79.113c-0.712-0.187-1.435-0.328-2.1-0.676c-2.223-1.163-3.361-3.04-3.533-5.491
			c-0.142-2.024,0.467-3.829,1.949-5.267c1.252-1.215,2.77-1.792,4.519-1.808c1.835-0.017,3.442,0.538,4.744,1.845
			c1.626,1.633,2.192,3.637,1.841,5.878c-0.414,2.642-1.934,4.395-4.475,5.244c-0.355,0.118-0.727,0.185-1.09,0.275
			C40.108,79.113,39.489,79.113,38.871,79.113z M39.788,67.497c-1.176-0.001-2.225,0.355-3.085,1.169
			c-1.662,1.574-2.089,4.14-1.062,6.239c1.411,2.883,5.23,3.524,7.457,1.217c1.327-1.374,1.644-3.059,1.262-4.897
			C43.898,68.993,42.06,67.498,39.788,67.497z"/>
		<path fill="#15467A" d="M37.241,25.333c0-7.54,0-15.079,0.001-22.619c0-0.201-0.007-0.405,0.018-0.604
			c0.171-1.352,0.867-1.963,2.282-1.966c3.857-0.008,7.714-0.004,11.571-0.004c4.811,0,9.623,0.001,14.434-0.002
			c0.364,0,0.724,0.021,1.082,0.089c1.124,0.214,1.642,0.897,1.622,2.136c-0.016,0.989-0.645,1.68-1.682,1.847
			c-0.372,0.06-0.746,0.083-1.123,0.083C57.719,4.29,49.991,4.291,42.263,4.291c-0.629,0-0.63,0-0.63,0.641
			c0,13.628,0,27.256,0,40.883c0,0.611,0.001,0.611,0.616,0.611c7.795,0,15.59,0,23.385,0c0.349,0,0.696,0.002,1.041,0.081
			c1.142,0.259,1.638,0.963,1.573,2.256c-0.047,0.931-0.767,1.632-1.807,1.736c-0.427,0.043-0.857,0.066-1.286,0.067
			c-8.359,0.004-16.719,0.004-25.078,0c-0.388,0-0.78-0.021-1.165-0.074c-1.018-0.138-1.586-0.85-1.665-2.055
			c-0.011-0.174-0.006-0.349-0.006-0.524C37.241,40.386,37.241,32.86,37.241,25.333z"/>
		<path fill="#15467A" d="M151.292,68.97c0,0.201,0,0.361,0,0.52c0.002,2.741,0.004,5.482,0.005,8.223
			c0,0.214,0.012,0.429-0.069,0.637c-0.158,0.404-0.465,0.577-0.934,0.521c-0.388-0.046-0.653-0.313-0.698-0.716
			c-0.015-0.133-0.012-0.268-0.012-0.403c-0.001-3.467-0.001-6.933,0-10.4c0-0.695,0.18-1.039,0.615-1.187
			c0.554-0.188,1.129-0.024,1.512,0.473c1.846,2.393,3.683,4.793,5.524,7.19c0.466,0.607,0.933,1.214,1.401,1.82
			c0.063,0.082,0.106,0.19,0.238,0.205c0.109-0.111,0.062-0.253,0.057-0.378c-0.122-2.78-0.03-5.561-0.054-8.341
			c-0.006-0.634,0.297-0.989,0.799-1.017c0.518-0.029,0.844,0.221,0.94,0.734c0.027,0.144,0.028,0.294,0.029,0.441
			c0.001,3.426,0.001,6.853,0,10.279c0,0.121,0,0.243-0.017,0.362c-0.054,0.37-0.148,0.732-0.545,0.874
			c-0.418,0.15-0.823,0.092-1.178-0.193c-0.328-0.264-0.572-0.604-0.825-0.934c-2.159-2.813-4.315-5.629-6.475-8.441
			C151.535,69.15,151.488,69.029,151.292,68.97z"/>
		<path fill="#15467A" d="M53.31,27.267c-1.799,0-3.599,0.001-5.398-0.003c-0.227-0.001-0.457-0.013-0.681-0.052
			c-1.504-0.263-1.904-1.335-1.597-2.667c0.178-0.772,0.949-1.261,1.927-1.317c0.321-0.018,0.644-0.01,0.967-0.01
			c3.33,0,6.66-0.001,9.991,0.001c0.295,0,0.588-0.002,0.882,0.055c1.315,0.252,1.753,1.074,1.702,2.12
			c-0.055,1.127-0.839,1.839-2.033,1.861c-1.624,0.029-3.249,0.011-4.874,0.012C53.901,27.268,53.606,27.267,53.31,27.267z"/>
		<path fill="#15467A" d="M98.867,29.574c1.396,0,2.792,0.001,4.188-0.001c0.256,0,0.507,0.022,0.759,0.075
			c1.105,0.231,1.718,0.972,1.674,2.034c-0.047,1.123-0.676,1.815-1.805,1.961c-0.358,0.046-0.721,0.071-1.082,0.072
			c-2.551,0.006-5.101,0.004-7.652,0.003c-0.444,0-0.886-0.038-1.315-0.152c-0.879-0.233-1.379-0.859-1.404-1.737
			c-0.033-1.163,0.349-1.782,1.298-2.094c0.346-0.114,0.703-0.164,1.069-0.163C96.021,29.577,97.444,29.574,98.867,29.574z"/>
		<path fill="#15467A" d="M69.988,66.196c1.612,0,3.223-0.003,4.835,0.002c0.566,0.002,0.889,0.283,0.904,0.755
			c0.012,0.401-0.199,0.703-0.589,0.803c-0.18,0.046-0.371,0.06-0.557,0.061c-1.048,0.006-2.095,0.002-3.143,0.003
			c-0.534,0.001-0.547,0.013-0.547,0.538c-0.001,3.089,0,6.178-0.003,9.267c0,0.2-0.004,0.406-0.049,0.599
			c-0.102,0.435-0.404,0.655-0.847,0.652c-0.44-0.003-0.739-0.229-0.837-0.666c-0.043-0.194-0.044-0.399-0.045-0.6
			c-0.003-3.076-0.001-6.151-0.002-9.227c0-0.558-0.005-0.562-0.562-0.563c-1.021-0.001-2.041,0.003-3.062-0.004
			c-0.213-0.002-0.43-0.023-0.637-0.072c-0.382-0.09-0.594-0.406-0.574-0.809c0.019-0.388,0.283-0.677,0.679-0.726
			c0.146-0.018,0.295-0.014,0.443-0.014C66.926,66.195,68.457,66.196,69.988,66.196z"/>
		<path fill="#15467A" d="M96.86,72.542c0,1.787,0.004,3.573-0.003,5.36c-0.003,0.668-0.356,1.016-0.954,0.973
			c-0.376-0.027-0.621-0.228-0.752-0.574c-0.068-0.179-0.071-0.368-0.071-0.556c0-3.493,0-6.985,0.002-10.478
			c0-0.16,0.008-0.325,0.044-0.479c0.115-0.483,0.437-0.702,0.951-0.668c0.442,0.029,0.717,0.304,0.772,0.78
			c0.015,0.133,0.011,0.268,0.011,0.403C96.861,69.05,96.861,70.796,96.86,72.542z"/>
	</g>
</g>
</svg>
