<?xml version="1.0" encoding="utf-8"?>
<!-- Generator: Adobe Illustrator 17.0.2, SVG Export Plug-In . SVG Version: 6.00 Build 0)  -->
<!DOCTYPE svg PUBLIC "-//W3C//DTD SVG 1.1//EN" "http://www.w3.org/Graphics/SVG/1.1/DTD/svg11.dtd">
<svg version="1.1" id="Layer_1" xmlns="http://www.w3.org/2000/svg" xmlns:xlink="http://www.w3.org/1999/xlink" x="0px" y="0px"
	 width="198px" height="90px" viewBox="0 0 198 90" enable-background="new 0 0 198 90" xml:space="preserve">
<g>
	<polygon fill-rule="evenodd" clip-rule="evenodd" fill="#15467A" points="134.634,36.888 142.016,36.888 142.016,42.885 
		146.048,42.885 146.048,48.351 148.384,48.351 148.384,61.165 137.545,61.165 137.545,78.912 127.845,78.912 127.845,48.351 
		130.603,48.351 130.603,42.885 134.634,42.885 134.634,36.888 	"/>
	<polygon fill-rule="evenodd" clip-rule="evenodd" fill="#15467A" points="140.087,63.839 140.087,78.912 152.564,78.912 
		152.564,63.839 140.087,63.839 	"/>
	<polygon fill-rule="evenodd" clip-rule="evenodd" fill="#15467A" points="164.647,78.87 154.88,78.87 154.88,61.165 
		151.948,61.165 151.948,28.755 164.647,23.168 164.647,78.87 	"/>
	<g>
		<g>
			<polygon fill-rule="evenodd" clip-rule="evenodd" fill="#FFFFFF" points="134.95,51.422 134.95,55.194 137.464,55.194 
				137.464,51.422 134.95,51.422 			"/>
			<polygon fill-rule="evenodd" clip-rule="evenodd" fill="#FFFFFF" points="139.1,51.422 139.1,55.194 141.615,55.194 
				141.615,51.422 139.1,51.422 			"/>
			<polygon fill-rule="evenodd" clip-rule="evenodd" fill="#FFFFFF" points="143.28,51.422 143.28,55.194 145.794,55.194 
				145.794,51.422 143.28,51.422 			"/>
			<polygon fill-rule="evenodd" clip-rule="evenodd" fill="#FFFFFF" points="130.771,56.6 130.771,60.373 133.284,60.373 
				133.284,56.6 130.771,56.6 			"/>
			<polygon fill-rule="evenodd" clip-rule="evenodd" fill="#FFFFFF" points="130.771,61.78 130.771,65.552 133.284,65.552 
				133.284,61.78 130.771,61.78 			"/>
			<polygon fill-rule="evenodd" clip-rule="evenodd" fill="#FFFFFF" points="130.771,66.75 130.771,70.523 133.284,70.523 
				133.284,66.75 130.771,66.75 			"/>
			<polygon fill-rule="evenodd" clip-rule="evenodd" fill="#FFFFFF" points="130.771,71.93 130.771,75.703 133.284,75.703 
				133.284,71.93 130.771,71.93 			"/>
			<polygon fill-rule="evenodd" clip-rule="evenodd" fill="#FFFFFF" points="141.938,65.893 141.938,68.74 143.835,68.74 
				143.835,65.893 141.938,65.893 			"/>
			<polygon fill-rule="evenodd" clip-rule="evenodd" fill="#FFFFFF" points="141.938,69.802 141.938,72.647 143.835,72.647 
				143.835,69.802 141.938,69.802 			"/>
			<polygon fill-rule="evenodd" clip-rule="evenodd" fill="#FFFFFF" points="144.784,65.893 144.784,68.74 146.681,68.74 
				146.681,65.893 144.784,65.893 			"/>
			<polygon fill-rule="evenodd" clip-rule="evenodd" fill="#FFFFFF" points="144.784,69.802 144.784,72.647 146.681,72.647 
				146.681,69.802 144.784,69.802 			"/>
			<polygon fill-rule="evenodd" clip-rule="evenodd" fill="#FFFFFF" points="141.938,73.47 141.938,76.316 143.835,76.316 
				143.835,73.47 141.938,73.47 			"/>
			<polygon fill-rule="evenodd" clip-rule="evenodd" fill="#FFFFFF" points="144.784,73.47 144.784,76.316 146.681,76.316 
				146.681,73.47 144.784,73.47 			"/>
			<rect x="130.771" y="51.422" fill-rule="evenodd" clip-rule="evenodd" fill="#FFFFFF" width="2.513" height="3.773"/>
		</g>
		<g>
			<polygon fill-rule="evenodd" clip-rule="evenodd" fill="#FFFFFF" points="154.263,56.291 154.263,58.555 162.424,58.555 
				162.424,56.291 154.263,56.291 			"/>
			<path fill-rule="evenodd" clip-rule="evenodd" fill="#FFFFFF" d="M154.263,51.408c0,0.754,0,1.509,0,2.263
				c2.72,0,5.441,0,8.162,0c0-0.754,0-1.509,0-2.263C159.704,51.408,156.983,51.408,154.263,51.408L154.263,51.408z"/>
			<path fill-rule="evenodd" clip-rule="evenodd" fill="#FFFFFF" d="M154.263,46.525c0,0.754,0,1.509,0,2.264
				c2.72,0,5.441,0,8.162,0c0-0.754,0-1.509,0-2.264C159.704,46.525,156.983,46.525,154.263,46.525L154.263,46.525z"/>
			<path fill-rule="evenodd" clip-rule="evenodd" fill="#FFFFFF" d="M154.263,41.642c0,0.754,0,1.509,0,2.263
				c2.72,0,5.441,0,8.162,0c0-0.754,0-1.509,0-2.263C159.704,41.642,156.983,41.642,154.263,41.642L154.263,41.642z"/>
			<polygon fill-rule="evenodd" clip-rule="evenodd" fill="#FFFFFF" points="154.263,31.875 154.263,34.139 162.424,34.139 
				162.424,31.875 154.263,31.875 			"/>
			<path fill-rule="evenodd" clip-rule="evenodd" fill="#FFFFFF" d="M154.263,36.759c0,0.754,0,1.509,0,2.264
				c2.72,0,5.441,0,8.162,0c0-0.754,0-1.509,0-2.264C159.704,36.759,156.983,36.759,154.263,36.759z"/>
		</g>
	</g>
	<polygon fill-rule="evenodd" clip-rule="evenodd" fill="#15467A" points="138.897,35.236 143.972,35.236 143.972,40.723 
		147.264,40.723 147.264,43.604 150.35,43.604 150.35,27.555 156.18,24.674 156.18,21.382 141.64,21.382 141.64,30.641 
		138.828,30.641 	"/>
	<path fill-rule="evenodd" clip-rule="evenodd" fill="#15467A" d="M75.325,6.89h2.285v8.076c3.39,7.447,12.532,26.747,20.387,36.317
		l2.349,2.591c1.209,1.185,2.366,2.064,3.442,2.541c1.138,0.506,2.242,0.423,3.295-0.077c0.868-0.413,1.729-1.102,2.567-1.988
		V40.073c-2.029,4.331-4.746,9.125-8.014,12.549l-2.23-2.715c5.047-5.484,8.853-15.627,10.243-19.693v-1.209h0.403
		c0.112-0.346,0.17-0.54,0.173-0.545l1.776,0.545h1.761v0.541l0.015,0.005l-0.015,0.05v1.003h6.549v-1.599h4.112v33.818h6.204
		l0.055,2.279l-6.259,0.625v14.645l-14.773-0.194V67.203l-32.039,3.202v8.959l-23.9-0.612v-5.96l-18.215,1.82l-0.389-11.789h18.604
		V37.546c-3.667,3.131-7.571,5.901-11.744,8.257l-1.819-3.23c6.799-3.838,12.859-8.853,18.345-14.775
		C63.483,22.013,69.545,14.821,75.325,6.89L75.325,6.89z M120.308,62.823v-6.817h-6.549v6.817H120.308L120.308,62.823z
		 M109.648,62.823V59.16c-0.321,0.2-0.649,0.381-0.981,0.539c-2.008,0.954-4.143,1.1-6.379,0.106
		c-1.463-0.649-3.031-1.888-4.651-3.55l-3.005-3.465c-6.214-7.893-12.751-20.345-17.022-29.127v15.163
		c2.204,3.505,4.497,6.737,6.764,9.295c2.204,2.486,4.348,4.306,6.298,5.047c0.663,0.251,1.318,0.378,1.964,0.396l2.705,3.299
		c-1.886,0.58-3.884,0.579-5.978-0.218c-2.556-0.971-5.181-3.147-7.767-6.065c-1.335-1.506-2.669-3.217-3.985-5.066v17.308H109.648
		L109.648,62.823z M70.956,62.823V50.576H60.361v12.247H70.956L70.956,62.823z M60.361,31.223v2.824h10.596v-9.19h-5.031
		c-1.524,1.888-3.093,3.711-4.714,5.46C60.929,30.621,60.646,30.923,60.361,31.223L60.361,31.223z M67.953,22.271h3.004v-4.114
		C69.975,19.557,68.974,20.929,67.953,22.271L67.953,22.271z M113.76,48.306c0.161-0.303,0.319-0.608,0.475-0.917h-0.475V48.306
		L113.76,48.306z M115.008,45.789c0.89-1.912,1.68-3.863,2.355-5.68h-3.604v5.68H115.008L115.008,45.789z M117.942,38.511
		c0.97-2.76,1.635-5.037,1.935-6.11h-6.117v6.11H117.942L117.942,38.511z M120.308,42.787c-0.384,0.981-0.797,1.99-1.24,3.003h1.24
		V42.787L120.308,42.787z M118.348,47.389c-1.164,2.496-2.496,4.946-3.971,7.018h5.931v-7.018H118.348L118.348,47.389z
		 M53.709,16.828v11.781c1.297-1.24,2.563-2.529,3.8-3.864c0.968-1.046,1.918-2.12,2.853-3.222v-9.138h6.976
		c0.661-0.956,1.313-1.925,1.957-2.907h-8.933V6.89h-6.652v3.699c-2.211,3.247-4.576,6.076-7.144,8.574
		c-3.379,3.287-7.111,6.015-11.302,8.38l1.819,3.23c4.484-2.531,8.473-5.444,12.074-8.948C50.745,20.278,52.26,18.618,53.709,16.828
		L53.709,16.828z M60.361,36.634v11.355h10.596V36.634H60.361z"/>
	<polygon fill-rule="evenodd" clip-rule="evenodd" fill="#15467A" points="25.605,77.163 172.394,77.163 174,83.11 24,83.11 	"/>
</g>
</svg>
