<?xml version="1.0" encoding="utf-8"?>
<!-- Generator: Adobe Illustrator 17.1.0, SVG Export Plug-In . SVG Version: 6.00 Build 0)  -->
<!DOCTYPE svg PUBLIC "-//W3C//DTD SVG 1.1//EN" "http://www.w3.org/Graphics/SVG/1.1/DTD/svg11.dtd">
<svg version="1.1" id="Layer_1" xmlns="http://www.w3.org/2000/svg" xmlns:xlink="http://www.w3.org/1999/xlink" x="0px" y="0px"
	 width="178px" height="80px" viewBox="24.6 72.8 178 80" enable-background="new 24.6 72.8 178 80" xml:space="preserve">
<g>
	<path fill="#17457A" d="M90.4,82.9c-1.7,0-3.1,1-3.1,2.3v3.2c0,1.2,1.4,2.3,3.1,2.3s3.1-1,3.1-2.3v-3.2
		C93.5,84,92.1,82.9,90.4,82.9z"/>
	<g>
		<path fill="#17457A" d="M92.9,97.2c-4.1,0-7.5,3.3-7.5,7.5c0,4.1,3.3,7.5,7.5,7.5c4.1,0,7.5-3.3,7.5-7.5
			C100.4,100.6,97,97.2,92.9,97.2z M92.9,107.2c-3.1,0-5.6,0.7-5.6-2.4c0-3.1,2.5-5.6,5.6-5.6s5.6,2.5,5.6,5.6
			C98.6,107.9,96.1,107.2,92.9,107.2z"/>
		<path fill="#17457A" d="M92.9,103.5c-0.7,0-1.3,0.6-1.3,1.3s0.6,0.5,1.3,0.5c0.7,0,1.3,0.2,1.3-0.5
			C94.2,104,93.6,103.5,92.9,103.5z"/>
	</g>
	<g>
		<path fill="#17457A" d="M102.6,74.4c0,0-0.1,0-0.1,0c-1.2-0.4-7.6-2.5-12-0.1C93.9,74.8,99.3,75.4,102.6,74.4z"/>
	</g>
	<g>
		<path fill="#17457A" d="M127.3,96.1c-13.9,0-25.2,11-25.2,24.5s11.3,24.5,25.2,24.5s25.2-11,25.2-24.5S141.2,96.1,127.3,96.1z
			 M127.3,141.1c-11.7,0-21.2-9.2-21.2-20.6s9.5-20.6,21.2-20.6s21.2,9.2,21.2,20.6S139,141.1,127.3,141.1z"/>
	</g>
	<g>
		<path fill="#FFFFFF" d="M127.5,102.6c-10.5,0-19.1,7.7-19.1,17.3s8.5,17.3,19.1,17.3s19.1-7.7,19.1-17.3S138,102.6,127.5,102.6z
			 M127.5,129.3c-7.9,0-14.4-4.4-14.4-9.8c0-5.4,6.4-9.8,14.4-9.8s14.4,4.4,14.4,9.8C141.8,124.9,135.4,129.3,127.5,129.3z"/>
	</g>
	<g>
		<path fill="#FFFFFF" d="M127.5,110.2c-7.6,0-13.8,4.1-13.8,9.2c0,5.1,6.2,9.2,13.8,9.2c7.6,0,13.8-4.1,13.8-9.2
			S135.1,110.2,127.5,110.2z M127.5,127.6c-4.7,0-8.5-3.5-8.5-7.7s3.8-7.7,8.5-7.7s8.5,3.5,8.5,7.7S132.2,127.6,127.5,127.6z"/>
	</g>
	<path fill="#17457A" d="M147.4,78c0,0-0.1,0-0.1,0c-0.6,3.2-1.1,9.4,2.5,13.3c0-3.3-0.1-9.2-1.3-12.5C148.3,78.2,147.9,78,147.4,78
		L147.4,78L147.4,78z"/>
	<path fill="#17457A" d="M103.8,80.3c-0.9,0-1.7,1-1.7,2.3V91c0,1.3,0.8,2.3,1.7,2.3s1.7-1,1.7-2.3v-8.4
		C105.5,81.3,104.7,80.3,103.8,80.3z"/>
	<g>
		<path fill="#17457A" d="M103.8,76c-2.7,0-5.2,1-7.1,2.7c-1.4-0.9-3.1-1.4-4.9-1.4c-5.3,0-9.5,4.3-9.5,9.5c0,5.3,4.3,9.5,9.5,9.5
			c1.8,0,3.5-0.5,4.9-1.4c1.9,1.7,4.4,2.7,7.1,2.7c6,0,10.9-4.9,10.9-10.9S109.8,76,103.8,76z M95.8,89.6c0,2.2-2.4,3.9-5.4,3.9
			c-3,0-5.4-1.8-5.4-3.9V84c0-2.2,2.4-3.9,5.4-3.9c3,0,5.4,1.8,5.4,3.9V89.6z M108.1,92.1c0,2.2-1.9,4-4.3,4c-2.4,0-4.3-1.8-4.3-4
			V81.5c0-2.2,1.9-4,4.3-4c2.4,0,4.3,1.8,4.3,4V92.1z"/>
		<path fill="#17457A" d="M103.8,78.1c-2,0-3.7,1.5-3.7,3.4v10.6c0,1.9,1.7,3.4,3.7,3.4s3.7-1.5,3.7-3.4V81.5
			C107.5,79.6,105.8,78.1,103.8,78.1z M106.1,91c0,1.6-1,2.9-2.3,2.9c-1.3,0-2.3-1.3-2.3-2.9v-8.4c0-1.6,1-2.9,2.3-2.9
			c1.3,0,2.3,1.3,2.3,2.9V91z"/>
	</g>
	<g>
		<g>
			<path fill="#17457A" d="M126.1,122.5c0-1,0.2-2.3,1.7-3.2c0.6-0.4,1-0.9,1.2-1.5c0.3-1.4-0.5-3-1-3.9c-0.1,0-0.2,0-0.2,0
				c-2.7,0-4.9,2.2-4.9,4.9v2.1c0,2.6,2,4.6,4.5,4.9C126.6,124.9,126.1,123.7,126.1,122.5z"/>
		</g>
		<g>
			<path fill="#17457A" d="M128.3,113.9c0.5,1,1.3,2.6,1,4c-0.2,0.7-0.6,1.3-1.3,1.7c-1.3,0.7-1.6,2-1.5,2.9c0,1.3,0.6,2.5,1.3,3.3
				c0,0,0,0,0,0c2.7,0,4.9-2.2,4.9-4.9v-2.1C132.6,116.3,130.7,114.2,128.3,113.9z"/>
		</g>
	</g>
	<g>
		<path fill="#17457A" d="M113.5,82.7c-1.2,1-2,2.4-2,4.1c0,1.7,0.8,3.2,2.1,4.1c0.5-1.3,0.8-2.6,0.8-4.1
			C114.3,85.4,114,84,113.5,82.7z"/>
		<path fill="#17457A" d="M116.6,81.6c-1,0-1.9,0.3-2.7,0.7c0.6,1.4,1,2.9,1,4.5c0,1.6-0.3,3.1-0.9,4.4c0.8,0.5,1.7,0.7,2.6,0.7
			c2.9,0,5.2-2.3,5.2-5.2S119.5,81.6,116.6,81.6z M119.1,89.5c0,0.1-0.3,0.2-0.6,0.2s-0.6-0.1-0.6-0.2v-0.6c0-0.1,0.3-0.2,0.6-0.2
			s0.6,0.1,0.6,0.2V89.5z M119.8,86.3c0,0.2-0.4,0.4-1,0.4c-0.5,0-1-0.2-1-0.4v-1.1c0-0.2,0.4-0.4,1-0.4c0.5,0,1,0.2,1,0.4V86.3z"/>
	</g>
	<path fill="#17457A" d="M151.9,111.9c-0.3-5.5-1-11.5-2.2-18.1c0-0.1,0-0.2,0-0.2c0-0.2,0-0.8,0.1-1.5c-4.3-4.1-3.7-11-3-14.4
		c-0.2-0.1-0.3-0.4-0.4-0.6c-0.3-1-1.5-2.5-6.6-2.6c-6.6-0.1-29.8,0-35.7,0c-1.5,0.8-3.7,1.1-6.1,1.1c-3.3,0-6.9-0.6-9.1-0.9
		l-3.2,0.6c-0.4,0.1-0.7,0.3-0.8,0.7C84,78,81.1,85.5,78.4,95c2.3,2,3.2,3.8,3.8,9.7c2.3,29.3,0.9,39.8-0.8,43.3
		c0.6,0.5,1.1,1,1.8,1.5c0,0,0.1,0.1,0.2,0.1c11.3,6,14.8,0.6,16.4,0.7c1.7,0.2,37.4,4.5,46.2-1.8c1.3-0.8,4.1-7.2,5.4-18
		c1.4-3.1,2.1-6.5,2.1-10C153.5,117.5,152.9,114.6,151.9,111.9z M81.9,86.9c0-5.4,4.4-9.8,9.8-9.8c1.7,0,3.4,0.4,4.9,1.3
		c2-1.7,4.5-2.6,7.1-2.6c4.3,0,8.2,2.5,10.1,6.4c0.8-0.5,1.8-0.8,2.8-0.8c3,0,5.5,2.5,5.5,5.5s-2.5,5.5-5.5,5.5
		c-1,0-1.9-0.3-2.7-0.7c-1.8,3.9-5.8,6.4-10.1,6.4c-2.6,0-5.1-0.9-7.2-2.6c-1.5,0.8-3.2,1.3-4.9,1.3C86.3,96.7,81.9,92.3,81.9,86.9z
		 M92.9,112.5c-4.3,0-7.8-3.5-7.8-7.8c0-4.3,3.5-7.8,7.8-7.8c4.3,0,7.8,3.5,7.8,7.8C100.7,109,97.2,112.5,92.9,112.5z M127.3,145.6
		c-14.2,0-25.8-11.2-25.8-25.1s11.6-25.1,25.8-25.1s25.8,11.2,25.8,25.1S141.5,145.6,127.3,145.6z"/>
	<path fill="#17457A" d="M81.6,104.8c-0.6-5.4-1.3-7.3-3.3-9.1c-0.3,1-0.5,2-0.8,3c-1.5,0.2-2.6,1.5-2.6,3c0,1,0.5,1.9,1.3,2.5
		c-3.4,15.9-4.6,34.3,4.8,43.5C82.4,144.3,83.9,134.4,81.6,104.8z"/>
</g>
</svg>
