<?xml version="1.0" encoding="utf-8"?>
<!-- Generator: Adobe Illustrator 17.0.2, SVG Export Plug-In . SVG Version: 6.00 Build 0)  -->
<!DOCTYPE svg PUBLIC "-//W3C//DTD SVG 1.1//EN" "http://www.w3.org/Graphics/SVG/1.1/DTD/svg11.dtd">
<svg version="1.1" id="Layer_1" xmlns="http://www.w3.org/2000/svg" xmlns:xlink="http://www.w3.org/1999/xlink" x="0px" y="0px"
	 width="198px" height="90px" viewBox="0 0 198 90" enable-background="new 0 0 198 90" xml:space="preserve">
<path fill-rule="evenodd" clip-rule="evenodd" fill="#16457A" d="M149.955,77.409c1.025-1.55,0.803-1.865,0.711-1.924l-0.016-0.01
	l-0.02-0.002c-0.557-0.07-1.432-0.356-2.599-0.85l-1.478-0.664c-1.596-0.752-2.391-1.138-2.399-1.142l-0.023-0.011l-0.028,0.003
	c-0.041,0.004-1.001,0.108-1.306,0.211l-0.066,0.022l-0.026,0.063c-4.728-3.216-15.096-10.495-25.588-19.365
	c-14.755-12.475-2.316-1.557-13.637-11.62c-7.167-6.37-14.97-13.921-20.713-19.602c0.073-0.233,0.142-0.467,0.203-0.691
	c5.342-4.317,11.284-0.614,11.284-0.614S94.563,12.183,83.56,5c0,0-0.119,0.229-0.331,0.625c-0.024-0.015-0.047-0.03-0.071-0.044
	c0,0-3.236,7.466-6.53,9.171c-0.52,0.093-0.963,0.182-1.345,0.267c-0.089,0.02-0.631-0.57-0.786-0.633
	c-1.175-0.477-2.466,0.988-3.394,1.517c-0.438,0.25-0.999,0.599-1.451,1.086c-0.389,0.42-0.64,0.882-0.747,1.372
	c-0.103,0.477,0.183,0.787,0.42,1.043c0.089,0.096,0.55,0.578,1.263,1.315c-0.085,0.355-0.135,0.59-0.135,0.59
	s-0.47,0.783-1.579,2.029c-3.062,2.909-9.406,8.042-19.277,11.86c-0.123,0.043-0.246,0.087-0.365,0.14
	c-0.648,0.246-1.309,0.487-1.986,0.721c0,0,6.831,10.744,16.517,15.515c9.686,4.771,21.468,4.491,27.357,2.763l-1.933-1.72
	c0.03-0.002,0.063-0.004,0.093-0.006L83.1,47.031l-2.665-0.278c0,0-1.795-1.42-3.305-3.932c-1.909-3.373-3.174-8.544,0.674-14.81
	c1.624,1.601,3.226,3.145,4.546,4.346c2.021,1.84,5.185,4.791,8.848,8.208c4.653,4.34,9.138,8.285,14.818,13.49
	c10.332,9.469,11.954,10.372,16.368,13.908c3.535,2.831,10.71,8.38,14.783,11.374l-0.243,0.901l-0.012,0.075l0.048,0.036
	c1.252,0.95,2.102,1.631,2.524,2.023l1.213,1.147c0.614,0.59,1.291,1.252,1.454,1.427l0.053,0.036
	c0.062,0.042,0.116,0.079,1.647-0.92c0.716-0.467,1.534-1.188,2.365-2.084C146.957,81.179,149.408,78.237,149.955,77.409z"/>
</svg>
